<?xml version="1.0" encoding="UTF-8"?>
<svg width="193px" height="295px" viewBox="0 0 193 295" version="1.1" xmlns="http://www.w3.org/2000/svg" xmlns:xlink="http://www.w3.org/1999/xlink">
    <!-- Generator: Sketch 64 (93537) - https://sketch.com -->
    <title>maker</title>
    <desc>Created with Sketch.</desc>
    <defs>
        <path d="M128.084778,88.6168719 C128.084778,88.6325112 128.084778,88.6325112 128.069184,88.6481506 C128.100372,86.3835756 127.813438,82.9898411 126.129257,79.5179099 C123.684077,74.4820458 120.253339,73.3216075 117.125129,68.6360643 C116.201949,67.2347804 115.185203,65.3862116 114.408609,62.8995582 C114.249547,62.4397619 114.10608,61.9611984 113.978207,61.4513563 C113.48127,59.4974827 113.427002,53.6257485 113.815403,43.8361537 C109.070617,48.7288603 104.467918,51.6319143 100.007306,52.5453158 C90.8164915,54.4273228 74.9420506,55.7173816 52.3839832,56.4154921 C49.3649337,56.4154921 46.7762858,58.5205459 46.0152858,61.4513563 C45.8874128,61.9611984 45.7439456,62.4397619 45.6004783,62.8995582 C44.823884,65.3862116 43.7915437,67.2347804 42.8683633,68.6360643 C39.7370351,73.3216075 36.306297,74.4820458 33.8611164,79.5179099 C32.1769359,83.0086083 31.9055957,86.4179822 31.9367843,88.6794292 C31.9367843,88.6794292 26.8146923,92.0031279 26.7990981,92.0031279 C25.4798233,84.4024136 14,80.3003989 14,61.4513563 C14,42.6023137 30.6309141,41.0707429 37.1274845,40.0354193 C37.1617919,40.0229079 43.0174445,16.4112024 52.3839832,13.2797186 C56.3594869,11.9506017 73.8194994,12.5505531 94.0044524,10.40625 C101.684274,9.59040139 115.09035,6.12165139 134.22268,0 C128.363005,11.9452211 125.665198,19.2980857 126.129257,22.0585937 C128.314685,35.0588338 137.36936,39.4326306 139,43.8361537 C142.225033,52.5453158 132.788008,80.4750369 128.084778,88.6168719 Z" id="path-1"></path>
    </defs>
    <g id="maker" stroke="none" stroke-width="1" fill="none" fill-rule="evenodd">
        <g id="Student" transform="translate(13.000000, 9.000000)">
            <path d="M3.38306321,255.912345 L3.38306321,239.131345 L3.38306321,219.538392 C3.38306321,194.246468 22.1959832,172.930062 47.2310146,169.861626 L81.3637395,165.676541 L116.806383,169.94295 C141.885078,172.964469 160.760375,194.30277 160.760375,219.635356 L160.760375,239.131345 L160.760375,255.912345" id="Fill-1" fill="#FFFFFF"></path>
            <path d="M160.760375,259.040211 C159.035649,259.040211 157.641522,257.642055 157.641522,255.912345 L157.641522,219.635356 C157.641522,195.904237 139.926438,175.87964 116.435239,173.048921 L81.3668584,168.826302 L47.6083958,172.964469 C24.1733359,175.838977 6.501916,195.860447 6.501916,219.538392 L6.501916,255.912345 C6.501916,257.642055 5.1077888,259.040211 3.38306321,259.040211 C1.65833761,259.040211 0.264210415,257.642055 0.264210415,255.912345 L0.264210415,219.538392 C0.264210415,192.70443 20.293483,170.011763 46.8536334,166.755655 L80.9863583,162.57057 C81.2358666,162.539291 81.4916125,162.539291 81.734883,162.57057 L117.177526,166.836979 C143.803172,170.043042 163.879228,192.741965 163.879228,219.635356 L163.879228,255.912345 C163.879228,257.642055 162.485101,259.040211 160.760375,259.040211" id="Fill-3" fill="#4E4844"></path>
            <path d="M103.125535,155.739624 L103.125535,171.272606 C103.125535,184.131263 92.7366362,194.550184 79.9181513,194.550184 C67.0965474,194.550184 56.7045299,184.131263 56.7045299,171.272606 L56.7045299,155.739624 L103.125535,155.739624 Z" id="Fill-7" fill="#FFFFFF"></path>
            <path d="M43.0174445,99.8459106 C43.0174445,105.985911 38.0553497,110.962346 31.9330416,110.962346 C25.8076148,110.962346 20.8486388,105.985911 20.8486388,99.8459106 C20.8486388,93.7059098 25.8076148,88.7294751 31.9330416,88.7294751 C38.0553497,88.7294751 43.0174445,93.7059098 43.0174445,99.8459106" id="Fill-11" fill="#FFFFFF"></path>
            <path d="M31.9339773,91.8567154 C27.5426326,91.8567154 23.9653084,95.4412498 23.9653084,99.845285 C23.9653084,104.24932 27.5426326,107.833855 31.9339773,107.833855 C36.325322,107.833855 39.8995273,104.24932 39.8995273,99.845285 C39.8995273,95.4412498 36.325322,91.8567154 31.9339773,91.8567154 M31.9339773,114.089586 C24.0994191,114.089586 17.7276028,107.699356 17.7276028,99.845285 C17.7276028,91.9912137 24.0994191,85.6009836 31.9339773,85.6009836 C39.7654167,85.6009836 46.1372329,91.9912137 46.1372329,99.845285 C46.1372329,107.699356 39.7654167,114.089586 31.9339773,114.089586" id="Fill-13" fill="#4E4844"></path>
            <path d="M139.104933,99.8459106 C139.104933,105.985911 134.139719,110.962346 128.017411,110.962346 C121.895103,110.962346 116.936127,105.985911 116.936127,99.8459106 C116.936127,93.7059098 121.895103,88.7294751 128.017411,88.7294751 C134.139719,88.7294751 139.104933,93.7059098 139.104933,99.8459106" id="Fill-15" fill="#FFFFFF"></path>
            <path d="M128.018658,91.8567154 C123.627314,91.8567154 120.053108,95.4412498 120.053108,99.845285 C120.053108,104.24932 123.627314,107.833855 128.018658,107.833855 C132.410003,107.833855 135.987327,104.24932 135.987327,99.845285 C135.987327,95.4412498 132.410003,91.8567154 128.018658,91.8567154 M128.018658,114.089586 C120.187219,114.089586 113.815403,107.699356 113.815403,99.845285 C113.815403,91.9912137 120.187219,85.6009836 128.018658,85.6009836 C135.853217,85.6009836 142.225033,91.9912137 142.225033,99.845285 C142.225033,107.699356 135.853217,114.089586 128.018658,114.089586" id="Fill-17" fill="#4E4844"></path>
            <path d="M79.9898849,161.842716 L79.9898849,161.842716 C53.4640419,161.842716 31.9626708,140.27608 31.9626708,113.676708 L31.9626708,46.9624557 L128.017099,46.9624557 L128.017099,113.676708 C128.017099,140.27608 106.515728,161.842716 79.9898849,161.842716" id="Fill-19" fill="#FFFFFF"></path>
            <path d="M35.080276,50.0918856 L35.080276,113.675144 C35.080276,138.5104 55.228065,158.716414 79.9886373,158.716414 C104.752328,158.716414 124.900118,138.5104 124.900118,113.675144 L124.900118,50.0918856 L35.080276,50.0918856 Z M79.9886373,164.972146 C51.7817327,164.972146 28.8425704,141.960436 28.8425704,113.675144 L28.8425704,43.8361537 L131.137823,43.8361537 L131.137823,113.675144 C131.137823,141.960436 108.192423,164.972146 79.9886373,164.972146 L79.9886373,164.972146 Z" id="Fill-21" fill="#4E4844"></path>
            <path d="M76,96 C76,103.178426 69.9484115,109 62.5039347,109 C55.0515885,109 49,103.178426 49,96 C49,88.8215743 55.0515885,83 62.5039347,83 C69.9484115,83 76,88.8215743 76,96" id="Fill-23" fill="#4E4844"></path>
            <path d="M114,96 C114,103.178426 107.948412,109 100.503935,109 C93.0515885,109 87,103.178426 87,96 C87,88.8215743 93.0515885,83 100.503935,83 C107.948412,83 114,88.8215743 114,96" id="Fill-23" fill="#4E4844"></path>
            <g id="Fill-39">
                <use fill="#D0021B" fill-rule="evenodd" xlink:href="#path-1"></use>
                <use stroke="#979797" stroke-width="1" xlink:href="#path-1"></use>
                <use stroke="#4E4844" stroke-width="6" xlink:href="#path-1"></use>
            </g>
            <path d="M87,175.144904 C83.5,175.144904 75.6005859,175.144904 71.8261719,175.144904 C68.0517578,175.144904 38.2281341,153.373784 35.080276,144.173828 C32.9817039,138.040524 31.9324179,128.734251 31.9324179,116.255008 C36.0760285,119.108659 38.7317317,121.601782 39.8995273,123.734375 C43.3998124,130.12649 44.0165371,134.747202 46.1372329,138.5 C50.910208,146.946289 51.7593411,149.157901 59.8240065,154.012695 C67.8886719,158.86749 72.2014567,142.121094 79.9901968,142.121094 C87.7789368,142.121094 87,152.611758 95.3818359,154.012695 C103.763672,155.413633 111.480469,143.941406 114,140.777344 C116.519531,137.613281 116.936127,127.287109 120.053108,122.341797 C122.131096,119.044922 124.786903,117.015992 128.02053,116.255008 C127.14877,132.603232 125.583659,142.843099 123.325195,146.974609 C119.9375,153.171875 90.5,175.144904 87,175.144904 Z" id="Fill-39" stroke="#4E4844" stroke-width="4" fill="#D0021B"></path>
            <line x1="75.8508553" y1="116.255008" x2="85.9122744" y2="116.255008" id="Fill-48" fill="#FFFFFF"></line>
            <path d="M111.673555,100 L49.3264447,100 C38.6582472,100 30,98.88 30,97.5 C30,96.12 38.6582472,95 49.3264447,95 L111.673555,95 C122.361079,95 131,96.12 131,97.5 C131,98.88 122.361079,100 111.673555,100" id="Fill-50" fill="#4E4844"></path>
            <line x1="3.38306321" y1="239.132283" x2="29.9182627" y2="239.132283" id="Fill-52" fill="#FFFFFF"></line>
            <path d="M29.9179509,242.261713 L3.38275132,242.261713 C1.65802573,242.261713 0.26389853,240.860429 0.26389853,239.133847 C0.26389853,237.407265 1.65802573,236.005981 3.38275132,236.005981 L29.9179509,236.005981 C31.6426765,236.005981 33.0368037,237.407265 33.0368037,239.133847 C33.0368037,240.860429 31.6426765,242.261713 29.9179509,242.261713" id="Fill-54" fill="#4E4844"></path>
            <line x1="134.22268" y1="239.132283" x2="160.760999" y2="239.132283" id="Fill-56" fill="#FFFFFF"></line>
            <path d="M160.760375,242.261713 L134.222057,242.261713 C132.494212,242.261713 131.103204,240.860429 131.103204,239.133847 C131.103204,237.407265 132.494212,236.005981 134.222057,236.005981 L160.760375,236.005981 C162.485101,236.005981 163.879228,237.407265 163.879228,239.133847 C163.879228,240.860429 162.485101,242.261713 160.760375,242.261713" id="Fill-58" fill="#4E4844"></path>
            <line x1="29.9179509" y1="230.819354" x2="29.9179509" y2="255.911094" id="Fill-60" fill="#FFFFFF"></line>
            <path d="M29.9179509,259.040211 C28.1932253,259.040211 26.7990981,257.642055 26.7990981,255.912345 L26.7990981,230.820605 C26.7990981,229.090895 28.1932253,227.692739 29.9179509,227.692739 C31.6426765,227.692739 33.0368037,229.090895 33.0368037,230.820605 L33.0368037,255.912345 C33.0368037,257.642055 31.6426765,259.040211 29.9179509,259.040211" id="Fill-62" fill="#4E4844"></path>
            <line x1="134.22268" y1="230.819354" x2="134.22268" y2="255.911094" id="Fill-64" fill="#FFFFFF"></line>
            <path d="M134.22268,259.040211 C132.497955,259.040211 131.103828,257.642055 131.103828,255.912345 L131.103828,230.820605 C131.103828,229.090895 132.497955,227.692739 134.22268,227.692739 C135.947406,227.692739 137.341533,229.090895 137.341533,230.820605 L137.341533,255.912345 C137.341533,257.642055 135.947406,259.040211 134.22268,259.040211" id="Fill-66" fill="#4E4844"></path>
        </g>
        <path d="M89.6416003,129.792969 C93.293272,131.178111 91.9860575,138.446289 90.490172,139.753906 C88.9942864,141.061523 76.2748217,136.594991 73.0812171,142.047496 C70.9521473,145.682499 67.2584083,149.899985 62,154.699956 C65.3766263,142.825413 69.0703654,135.642225 73.0812171,133.150391 C79.0974947,129.412639 85.9899286,128.407827 89.6416003,129.792969 Z" id="Triangle" stroke="#4E4844" stroke-width="3" fill="#D0021B"></path>
        <path d="M123.630805,129.792969 C127.769366,131.178111 126.287856,138.446289 124.592519,139.753906 C122.897183,141.061523 108.481789,136.594991 104.862371,142.047496 C102.449425,145.682499 98.2631874,149.899985 92.3036579,154.699956 C96.1305011,142.825413 100.316739,135.642225 104.862371,133.150391 C111.680819,129.412639 119.492244,128.407827 123.630805,129.792969 Z" id="Triangle" stroke="#4E4844" stroke-width="3" fill="#D0021B" transform="translate(109.303658, 141.949466) scale(-1, 1) translate(-109.303658, -141.949466) "></path>
        <polyline id="Line" stroke="#4E4844" stroke-width="5" stroke-linecap="round" stroke-linejoin="round" points="69.7045299 176.071882 92.9901968 225.070313 116.125535 176.071882"></polyline>
    </g>
</svg>