<?xml version="1.0" encoding="UTF-8"?>
<svg width="193px" height="295px" viewBox="0 0 193 295" version="1.1" xmlns="http://www.w3.org/2000/svg" xmlns:xlink="http://www.w3.org/1999/xlink">
    <!-- Generator: Sketch 64 (93537) - https://sketch.com -->
    <title>students</title>
    <desc>Created with Sketch.</desc>
    <defs>
        <polygon id="path-1" points="0.800781125 0.276590769 0.800781125 78.8035417 113.438449 78.8035417 113.438449 0.276590769"></polygon>
    </defs>
    <g id="students" stroke="none" stroke-width="1" fill="none" fill-rule="evenodd">
        <g id="Student" transform="translate(13.000000, 22.000000)">
            <path d="M3.38306321,242.912345 L3.38306321,226.131345 L3.38306321,206.538392 C3.38306321,181.246468 22.1959832,159.930062 47.2310146,156.861626 L81.3637395,152.676541 L116.806383,156.94295 C141.885078,159.964469 160.760375,181.30277 160.760375,206.635356 L160.760375,226.131345 L160.760375,242.912345" id="Fill-1" fill="#FFFFFF"></path>
            <path d="M160.760375,246.040211 C159.035649,246.040211 157.641522,244.642055 157.641522,242.912345 L157.641522,206.635356 C157.641522,182.904237 139.926438,162.87964 116.435239,160.048921 L81.3668584,155.826302 L47.6083958,159.964469 C24.1733359,162.838977 6.501916,182.860447 6.501916,206.538392 L6.501916,242.912345 C6.501916,244.642055 5.1077888,246.040211 3.38306321,246.040211 C1.65833761,246.040211 0.264210415,244.642055 0.264210415,242.912345 L0.264210415,206.538392 C0.264210415,179.70443 20.293483,157.011763 46.8536334,153.755655 L80.9863583,149.57057 C81.2358666,149.539291 81.4916125,149.539291 81.734883,149.57057 L117.177526,153.836979 C143.803172,157.043042 163.879228,179.741965 163.879228,206.635356 L163.879228,242.912345 C163.879228,244.642055 162.485101,246.040211 160.760375,246.040211" id="Fill-3" fill="#4E4844"></path>
            <path d="M79.9169037,195.653732 C58.7742006,195.653732 41.5737275,178.403551 41.5737275,157.199748 C41.5737275,155.473166 42.9678547,154.071882 44.6925803,154.071882 C46.4173059,154.071882 47.8114331,155.473166 47.8114331,157.199748 C47.8114331,174.953515 62.2142953,189.398 79.9169037,189.398 C97.6195122,189.398 112.022374,174.953515 112.022374,157.199748 C112.022374,155.473166 113.416502,154.071882 115.141227,154.071882 C116.865953,154.071882 118.26008,155.473166 118.26008,157.199748 C118.26008,178.403551 101.059607,195.653732 79.9169037,195.653732" id="Fill-5" fill="#4E4844"></path>
            <path d="M103.125535,142.739624 L103.125535,158.272606 C103.125535,171.131263 92.7366362,181.550184 79.9181513,181.550184 C67.0965474,181.550184 56.7045299,171.131263 56.7045299,158.272606 L56.7045299,142.739624 L103.125535,142.739624 Z" id="Fill-7" fill="#FFFFFF"></path>
            <path d="M59.8240065,145.86749 L59.8240065,158.272606 C59.8240065,169.385914 68.8374911,178.422318 79.9156562,178.422318 C90.9938213,178.422318 100.007306,169.385914 100.007306,158.272606 L100.007306,145.86749 L59.8240065,145.86749 Z M79.9156562,184.67805 C65.3973964,184.67805 53.5863009,172.832822 53.5863009,158.272606 L53.5863009,139.611758 L106.245011,139.611758 L106.245011,158.272606 C106.245011,172.832822 94.4339159,184.67805 79.9156562,184.67805 L79.9156562,184.67805 Z" id="Fill-9" fill="#4E4844"></path>
            <path d="M43.0174445,86.8459106 C43.0174445,92.9859114 38.0553497,97.9623461 31.9330416,97.9623461 C25.8076148,97.9623461 20.8486388,92.9859114 20.8486388,86.8459106 C20.8486388,80.7059098 25.8076148,75.7294751 31.9330416,75.7294751 C38.0553497,75.7294751 43.0174445,80.7059098 43.0174445,86.8459106" id="Fill-11" fill="#FFFFFF"></path>
            <path d="M31.9339773,78.8567154 C27.5426326,78.8567154 23.9653084,82.4412498 23.9653084,86.845285 C23.9653084,91.2493203 27.5426326,94.8338546 31.9339773,94.8338546 C36.325322,94.8338546 39.8995273,91.2493203 39.8995273,86.845285 C39.8995273,82.4412498 36.325322,78.8567154 31.9339773,78.8567154 M31.9339773,101.089586 C24.0994191,101.089586 17.7276028,94.6993564 17.7276028,86.845285 C17.7276028,78.9912137 24.0994191,72.6009836 31.9339773,72.6009836 C39.7654167,72.6009836 46.1372329,78.9912137 46.1372329,86.845285 C46.1372329,94.6993564 39.7654167,101.089586 31.9339773,101.089586" id="Fill-13" fill="#4E4844"></path>
            <path d="M139.104933,86.8459106 C139.104933,92.9859114 134.139719,97.9623461 128.017411,97.9623461 C121.895103,97.9623461 116.936127,92.9859114 116.936127,86.8459106 C116.936127,80.7059098 121.895103,75.7294751 128.017411,75.7294751 C134.139719,75.7294751 139.104933,80.7059098 139.104933,86.8459106" id="Fill-15" fill="#FFFFFF"></path>
            <path d="M128.018658,78.8567154 C123.627314,78.8567154 120.053108,82.4412498 120.053108,86.845285 C120.053108,91.2493203 123.627314,94.8338546 128.018658,94.8338546 C132.410003,94.8338546 135.987327,91.2493203 135.987327,86.845285 C135.987327,82.4412498 132.410003,78.8567154 128.018658,78.8567154 M128.018658,101.089586 C120.187219,101.089586 113.815403,94.6993564 113.815403,86.845285 C113.815403,78.9912137 120.187219,72.6009836 128.018658,72.6009836 C135.853217,72.6009836 142.225033,78.9912137 142.225033,86.845285 C142.225033,94.6993564 135.853217,101.089586 128.018658,101.089586" id="Fill-17" fill="#4E4844"></path>
            <path d="M79.9898849,148.842716 L79.9898849,148.842716 C53.4640419,148.842716 31.9626708,127.27608 31.9626708,100.676708 L31.9626708,33.9624557 L128.017099,33.9624557 L128.017099,100.676708 C128.017099,127.27608 106.515728,148.842716 79.9898849,148.842716" id="Fill-19" fill="#FFFFFF"></path>
            <path d="M35.080276,37.0918856 L35.080276,100.675144 C35.080276,125.5104 55.228065,145.716414 79.9886373,145.716414 C104.752328,145.716414 124.900118,125.5104 124.900118,100.675144 L124.900118,37.0918856 L35.080276,37.0918856 Z M79.9886373,151.972146 C51.7817327,151.972146 28.8425704,128.960436 28.8425704,100.675144 L28.8425704,30.8361537 L131.137823,30.8361537 L131.137823,100.675144 C131.137823,128.960436 108.192423,151.972146 79.9886373,151.972146 L79.9886373,151.972146 Z" id="Fill-21" fill="#4E4844"></path>
            <path d="M64.292075,88.2249867 C64.292075,91.1870757 61.8936772,93.5892768 58.9432425,93.5892768 C55.9896889,93.5892768 53.5912911,91.1870757 53.5912911,88.2249867 C53.5912911,85.2628977 55.9896889,82.8606966 58.9432425,82.8606966 C61.8936772,82.8606966 64.292075,85.2628977 64.292075,88.2249867" id="Fill-23" fill="#4E4844"></path>
            <path d="M107.29201,87.9303417 C107.29201,90.8924308 104.893613,93.2946318 101.943178,93.2946318 C98.9896242,93.2946318 96.5943452,90.8924308 96.5943452,87.9303417 C96.5943452,84.9682527 98.9896242,82.5660517 101.943178,82.5660517 C104.893613,82.5660517 107.29201,84.9682527 107.29201,87.9303417" id="Fill-25" fill="#4E4844"></path>
            <path d="M63.582536,72.7980391 L54.1698383,74.64348 C52.6727889,74.9406273 51.2162847,73.9584774 50.9231125,72.4539739 C50.6330592,70.9525982 51.6092601,69.4950127 53.1094283,69.2009933 L62.5190072,67.3524245 C64.0191754,67.0584052 65.4694419,68.0405551 65.7657329,69.5419307 C66.0589051,71.0464342 65.0795853,72.5040197 63.582536,72.7980391" id="Fill-27" fill="#4E4844"></path>
            <path d="M105.452511,74.8186405 L96.1271411,72.5759607 C94.6394483,72.2162561 93.7256244,70.7180083 94.0811737,69.2291441 C94.4398417,67.7402799 95.9306534,66.8206873 97.4183461,67.1803919 L106.743716,69.4230718 C108.22829,69.7796485 109.145233,71.2778963 108.786565,72.7667605 C108.431015,74.2587525 106.940204,75.1752172 105.452511,74.8186405" id="Fill-29" fill="#4E4844"></path>
            <path d="M135.264377,49.8995582 C135.155217,58.5668747 132.788008,67.4750369 128.084778,75.6168719 C128.084778,75.6325112 128.084778,75.6325112 128.069184,75.6481506 C128.100372,73.3835756 127.813438,69.9898411 126.129257,66.5179099 C123.684077,61.4820458 120.253339,60.3216075 117.125129,55.6360643 C116.201949,54.2347804 115.185203,52.3862116 114.408609,49.8995582 C114.249547,49.4397619 114.10608,48.9611984 113.978207,48.4513563 C113.232801,45.5205459 110.637916,43.4154921 107.606391,43.4154921 L52.3839832,43.4154921 C49.3649337,43.4154921 46.7762858,45.5205459 46.0152858,48.4513563 C45.8874128,48.9611984 45.7439456,49.4397619 45.6004783,49.8995582 C44.823884,52.3862116 43.7915437,54.2347804 42.8683633,55.6360643 C39.7370351,60.3216075 36.306297,61.4820458 33.8611164,66.5179099 C32.1769359,70.0086083 31.9055957,73.4179822 31.9367843,75.6794292 C31.9367843,75.6794292 31.9367843,75.6637899 31.92119,75.6637899 C30.6019153,68.0630757 29.5539807,59.4770837 29.0955094,50.0590794 L29.0955094,49.8995582 C28.8896651,45.7269851 28.8397635,41.7108052 28.8896651,37.888553 C28.8896651,37.4256289 28.9021405,36.9470654 28.9021405,36.4841412 C29.0175381,29.8905998 33.8767107,24.2948477 40.3732811,23.2595241 C40.4075885,23.2470126 40.4543712,23.2470126 40.4855598,23.2470126 C41.2964615,23.1156422 42.2165231,23.0218063 43.2332691,23.0530849 C46.2523186,23.1500488 48.6039336,24.1853724 50.0167739,24.964211 C52.0190774,21.5391978 56.1328442,15.5024166 63.5214065,10.6260736 C64.3634967,10.0693134 70.7446695,5.9405304 79.4088426,4.25461066 C91.8468275,1.83051456 110.753313,4.14200749 123.369073,17.6668998 C128.639934,23.3408486 132.214139,30.3191175 133.97941,37.888553 C134.899471,41.7733625 135.329873,45.820821 135.264377,49.8995582" id="Fill-39" fill="#D0021B"></path>
            <g id="Group-43" transform="translate(24.950822, 0.003128)">
                <mask id="mask-2" fill="white">
                    <use xlink:href="#path-1"></use>
                </mask>
                <g id="Clip-42"></g>
                <path d="M27.4325371,40.2838728 L82.6549446,40.2838728 C87.0774778,40.2838728 90.9386176,43.3241585 92.0489292,47.6718921 C92.158089,48.1035376 92.2734866,48.4976487 92.4044784,48.8792484 C92.9939416,50.7653515 93.7393474,52.3355402 94.7779254,53.9088568 C95.9568517,55.676101 97.2106306,56.8803294 98.5423807,58.1564987 C100.423049,59.9644052 102.372332,61.8317412 103.984779,65.1441512 C104.084582,65.3537182 104.181267,65.5664131 104.277951,65.7759801 C106.13055,60.6275128 107.128582,55.2381998 107.194078,49.8582704 L107.194078,49.8488868 C107.256455,46.0109953 106.851005,42.2294054 105.990201,38.6073366 C104.324734,31.4413958 100.918947,24.9416904 96.1346263,19.7963509 C84.2081333,7.00963498 66.5523076,5.08599743 55.0468597,7.3192937 C47.0002195,8.8894824 40.9558828,12.7899312 40.2915671,13.2309603 C35.1516977,16.6246949 30.9350088,21.100671 27.7568978,26.5431577 C26.9023321,28.006999 25.0434958,28.5168411 23.5620408,27.703596 C21.8341963,26.7495969 20.0252617,26.233499 18.1820197,26.1771974 C17.5270606,26.1553023 16.8315564,26.2053482 16.0237736,26.3335907 C15.9801096,26.3398464 15.9395645,26.3429743 15.8990195,26.34923 C10.865191,27.1562194 7.15687508,31.4382679 7.07266606,36.5366894 L7.05707179,37.8847996 C7.0040513,42.0542449 7.0695472,45.9202872 7.25979722,49.7394115 C7.26291608,49.7925852 7.26291608,50.0052801 7.26291608,50.0584538 C7.45628495,53.9401354 7.75881367,57.8562236 8.17673994,61.7691839 C9.26833842,60.342877 10.422314,59.2387403 11.5513387,58.1533708 C12.87997,56.8803294 14.1337488,55.676101 15.3251505,53.8932174 C15.9769908,52.9016839 16.946954,51.290833 17.6736467,48.9605729 C17.7984008,48.560206 17.9262738,48.1348163 18.0385525,47.6844036 C19.1738149,43.3179027 23.0349546,40.2838728 27.4325371,40.2838728 L27.4325371,40.2838728 Z M103.120857,75.6443971 L103.152045,75.6443971 L103.120857,75.6443971 Z M6.98533818,78.8035417 C6.12141596,78.8035417 5.33858391,78.4500929 4.7709527,77.8808213 C4.3280756,77.4335365 4.01307147,76.8548813 3.89767392,76.1949015 C2.41621884,67.6839783 1.45561218,58.9415931 1.02832935,50.2085914 C1.0252105,50.1585455 1.0252105,49.9458506 1.0252105,49.8958048 C0.834960476,46.0985755 0.763226862,42.1074186 0.819366212,37.8441373 L0.834960476,36.4835157 C0.975308852,28.2885069 6.90424801,21.4478641 14.9321751,20.168567 L14.9321751,20.1716948 C14.9851956,20.1623112 15.0350972,20.1529276 15.0849989,20.1466719 C16.2545687,19.9652557 17.3180975,19.8933148 18.3816263,19.9245934 C20.2529379,19.9840229 22.0868234,20.3405996 23.8645695,20.9880678 C27.3296149,15.7801711 31.6866523,11.4199259 36.8545914,8.01055207 C38.1052513,7.1816676 44.8201414,2.94340926 53.8648145,1.18242074 C66.9296888,-1.36678999 87.0213385,0.869634149 100.694389,15.5268139 C106.220996,21.472887 110.150751,28.9547424 112.065726,37.1716462 C113.038808,41.2879177 113.500399,45.5856055 113.431784,49.936467 C113.313268,59.3294484 110.699669,68.7224298 105.877922,77.1019827 C105.753168,77.3365726 105.600345,77.5555232 105.428808,77.7494509 C104.558648,78.7097058 103.176996,79.0256202 101.973119,78.5533125 C100.769242,78.0778768 99.9832907,76.9017992 100.002004,75.6037349 C100.03943,72.7855277 99.4905119,70.1862711 98.3739626,67.8841618 C97.2542945,65.5757967 95.9194255,64.2964995 94.2290073,62.676265 C92.7880973,61.2937482 91.1538184,59.7266874 89.5819166,57.3745322 C88.2220968,55.3101407 87.2115885,53.1769361 86.481777,50.8310367 C86.3227155,50.3743683 86.1511786,49.8082245 86.0014736,49.2108021 C85.6022605,47.6437413 84.2268464,46.5396046 82.6549446,46.5396046 L27.4325371,46.5396046 C25.8731107,46.5396046 24.4945777,47.6468692 24.0828892,49.2358251 C23.9456597,49.7800737 23.7865982,50.3118109 23.6275367,50.8279088 C22.9039628,53.1456575 21.8872168,55.278862 20.5211593,57.355765 C18.9367821,59.7266874 17.3025032,61.2937482 15.8615932,62.676265 C14.171175,64.2964995 12.836306,65.5757967 11.7166379,67.8841618 C10.6094451,70.1737596 10.0698836,72.7761441 10.104191,75.6193742 L10.104191,75.6756758 C10.104191,77.3960021 8.72253918,78.7910303 7.00717015,78.8035417 L6.98533818,78.8035417 Z" id="Fill-41" fill="#4E4844" mask="url(#mask-2)"></path>
            </g>
            <path d="M92.6056444,116.812743 C94.2742306,116.37797 95.7057841,118.007588 95.0851324,119.618439 C92.7303985,125.7428 86.7297257,129.931013 80.0990447,129.718318 C73.8363883,129.518134 68.3472074,125.436269 66.1172277,119.64659 C65.4903382,118.016971 66.9125351,116.374842 68.5967156,116.812743 C71.6843799,117.62286 75.5486385,118.301607 80.0117168,118.357909 C84.9894059,118.420466 89.2715908,117.685418 92.6056444,116.812743" id="Fill-44" fill="#FFFFFF"></path>
            <path d="M69.9025793,120.342227 C72.0514689,124.017469 75.9781045,126.460333 80.2010312,126.594831 C84.782626,126.798142 88.9993149,124.289594 91.2885529,120.342227 C87.5771181,121.146088 83.8469701,121.537072 79.9733549,121.487026 C76.5893997,121.443236 73.214801,121.058508 69.9025793,120.342227 M80.5846501,132.853691 C80.3881624,132.853691 80.1947935,132.853691 80.0014246,132.847435 C72.5317722,132.606589 65.9385174,127.867872 63.2095212,120.773872 C62.4890662,118.909664 62.8602097,116.832761 64.1763656,115.356409 C65.4831649,113.889439 67.4948249,113.292017 69.3817309,113.78622 C72.8623706,114.699557 76.4521701,115.184376 80.0513263,115.231294 C83.9436546,115.312618 87.9700935,114.796521 91.815639,113.78622 L91.8187578,113.78622 C93.74309,113.292017 95.7235615,113.895695 97.0241232,115.359536 C98.3340413,116.832761 98.7051848,118.900281 97.9940864,120.748849 C95.184,128.049289 88.2383148,132.853691 80.5846501,132.853691" id="Fill-46" fill="#4E4844"></path>
            <line x1="75.8508553" y1="103.255008" x2="85.9122744" y2="103.255008" id="Fill-48" fill="#FFFFFF"></line>
            <path d="M85.9110269,106.382874 L75.8496078,106.382874 C74.128001,106.382874 72.730755,104.98159 72.730755,103.255008 C72.730755,101.528426 74.128001,100.127142 75.8496078,100.127142 L85.9110269,100.127142 C87.6357525,100.127142 89.0298797,101.528426 89.0298797,103.255008 C89.0298797,104.98159 87.6357525,106.382874 85.9110269,106.382874" id="Fill-50" fill="#4E4844"></path>
            <line x1="3.38306321" y1="226.132283" x2="29.9182627" y2="226.132283" id="Fill-52" fill="#FFFFFF"></line>
            <path d="M29.9179509,229.261713 L3.38275132,229.261713 C1.65802573,229.261713 0.26389853,227.860429 0.26389853,226.133847 C0.26389853,224.407265 1.65802573,223.005981 3.38275132,223.005981 L29.9179509,223.005981 C31.6426765,223.005981 33.0368037,224.407265 33.0368037,226.133847 C33.0368037,227.860429 31.6426765,229.261713 29.9179509,229.261713" id="Fill-54" fill="#4E4844"></path>
            <line x1="134.22268" y1="226.132283" x2="160.760999" y2="226.132283" id="Fill-56" fill="#FFFFFF"></line>
            <path d="M160.760375,229.261713 L134.222057,229.261713 C132.494212,229.261713 131.103204,227.860429 131.103204,226.133847 C131.103204,224.407265 132.494212,223.005981 134.222057,223.005981 L160.760375,223.005981 C162.485101,223.005981 163.879228,224.407265 163.879228,226.133847 C163.879228,227.860429 162.485101,229.261713 160.760375,229.261713" id="Fill-58" fill="#4E4844"></path>
            <line x1="29.9179509" y1="217.819354" x2="29.9179509" y2="242.911094" id="Fill-60" fill="#FFFFFF"></line>
            <path d="M29.9179509,246.040211 C28.1932253,246.040211 26.7990981,244.642055 26.7990981,242.912345 L26.7990981,217.820605 C26.7990981,216.090895 28.1932253,214.692739 29.9179509,214.692739 C31.6426765,214.692739 33.0368037,216.090895 33.0368037,217.820605 L33.0368037,242.912345 C33.0368037,244.642055 31.6426765,246.040211 29.9179509,246.040211" id="Fill-62" fill="#4E4844"></path>
            <line x1="134.22268" y1="217.819354" x2="134.22268" y2="242.911094" id="Fill-64" fill="#FFFFFF"></line>
            <path d="M134.22268,246.040211 C132.497955,246.040211 131.103828,244.642055 131.103828,242.912345 L131.103828,217.820605 C131.103828,216.090895 132.497955,214.692739 134.22268,214.692739 C135.947406,214.692739 137.341533,216.090895 137.341533,217.820605 L137.341533,242.912345 C137.341533,244.642055 135.947406,246.040211 134.22268,246.040211" id="Fill-66" fill="#4E4844"></path>
        </g>
    </g>
</svg>