<?xml version="1.0" encoding="UTF-8"?>
<svg width="193px" height="295px" viewBox="0 0 193 295" version="1.1" xmlns="http://www.w3.org/2000/svg" xmlns:xlink="http://www.w3.org/1999/xlink">
    <!-- Generator: Sketch 64 (93537) - https://sketch.com -->
    <title>teacher</title>
    <desc>Created with Sketch.</desc>
    <defs>
        <polygon id="path-1" points="0 253.995424 168.399482 253.995424 168.399482 0 0 0"></polygon>
    </defs>
    <g id="teacher" stroke="none" stroke-width="1" fill="none" fill-rule="evenodd">
        <g id="Tutor" transform="translate(11.000000, 20.000000)">
            <path d="M162.289495,249.249435 L6.1086912,249.249435 L6.1086912,243.200957 L6.1086912,222.928736 C6.1086912,196.757047 24.781603,174.693311 49.623765,171.520062 L83.4979684,167.19198 L118.667552,171.604727 C143.558291,174.733951 162.289495,196.81462 162.289495,223.023561 L162.289495,243.200957 L162.289495,249.249435 Z" id="Fill-1" fill="#FFFFFF"></path>
            <path d="M162.289495,252.636041 C160.498631,252.636041 159.051044,251.122228 159.051044,249.249435 L159.051044,223.026947 C159.051044,198.545175 141.524544,177.886881 118.282177,174.967626 L83.5012068,170.602292 L50.0156176,174.882961 C26.8315428,177.846241 9.34714277,198.501149 9.34714277,222.928736 L9.34714277,249.249435 C9.34714277,251.122228 7.89955492,252.636041 6.1086912,252.636041 C4.32106593,252.636041 2.87023963,251.122228 2.87023963,249.249435 L2.87023963,222.928736 C2.87023963,195.080677 22.802909,171.536995 49.2319123,168.160549 L83.1061157,163.82908 C83.3651919,163.795214 83.6307449,163.795214 83.8833441,163.82908 L119.052928,168.245214 C145.549939,171.570861 165.527947,195.121317 165.527947,223.026947 L165.527947,249.249435 C165.527947,251.122228 164.080359,252.636041 162.289495,252.636041" id="Fill-3" fill="#4E4844"></path>
            <mask id="mask-2" fill="white">
                <use xlink:href="#path-1"></use>
            </mask>
            <g id="Clip-6"></g>
            <polygon id="Fill-5" fill="#FFFFFF" mask="url(#mask-2)" points="61.0480506 186.476667 107.121501 186.476667 107.121501 145.224424 61.0480506 145.224424"></polygon>
            <path d="M62.6769917,184.783364 L105.508752,184.783364 L105.508752,146.917726 L62.6769917,146.917726 L62.6769917,184.783364 Z M59.4288248,188.16997 L108.740727,188.16997 L108.740727,143.531121 L59.4288248,143.531121 L59.4288248,188.16997 Z" id="Fill-7" fill="#5C5C5C" mask="url(#mask-2)"></path>
            <polygon id="Fill-8" fill="#FFFFFF" mask="url(#mask-2)" points="61.0480506 186.476667 107.121501 186.476667 107.121501 145.224424 61.0480506 145.224424"></polygon>
            <path d="M64.2962175,183.090061 L103.889526,183.090061 L103.889526,148.611029 L64.2962175,148.611029 L64.2962175,183.090061 Z M57.809599,189.863273 L110.359953,189.863273 L110.359953,141.837818 L57.809599,141.837818 L57.809599,189.863273 Z" id="Fill-9" fill="#5C5C5C" mask="url(#mask-2)"></path>
            <path d="M46.6064996,94.0277513 C46.6064996,99.9543112 42.0111368,104.759905 36.3438466,104.759905 C30.6733179,104.759905 26.0779551,99.9543112 26.0779551,94.0277513 C26.0779551,88.1011915 30.6733179,83.295598 36.3438466,83.295598 C42.0111368,83.295598 46.6064996,88.1011915 46.6064996,94.0277513" id="Fill-10" fill="#FFFFFF" mask="url(#mask-2)"></path>
            <path d="M36.3441704,86.680849 C32.4709824,86.680849 29.3167305,89.9760163 29.3167305,94.0263967 C29.3167305,98.0801637 32.4709824,101.375331 36.3441704,101.375331 C40.2173585,101.375331 43.3683719,98.0801637 43.3683719,94.0263967 C43.3683719,89.9760163 40.2173585,86.680849 36.3441704,86.680849 M36.3441704,108.148542 C28.8989703,108.148542 22.8398274,101.812203 22.8398274,94.0263967 C22.8398274,86.2439769 28.8989703,79.9076377 36.3441704,79.9076377 C43.7893706,79.9076377 49.845275,86.2439769 49.845275,94.0263967 C49.845275,101.812203 43.7893706,108.148542 36.3441704,108.148542" id="Fill-11" fill="#5C5C5C" mask="url(#mask-2)"></path>
            <path d="M141.037157,93.0686646 C141.037157,98.9952245 136.441794,103.800818 130.771265,103.800818 C125.103975,103.800818 120.508612,98.9952245 120.508612,93.0686646 C120.508612,87.1421047 125.103975,82.3365113 130.771265,82.3365113 C136.441794,82.3365113 141.037157,87.1421047 141.037157,93.0686646" id="Fill-12" fill="#FFFFFF" mask="url(#mask-2)"></path>
            <path d="M130.771589,85.7217623 C126.898401,85.7217623 123.747388,89.0169296 123.747388,93.06731 C123.747388,97.121077 126.898401,100.416244 130.771589,100.416244 C134.644777,100.416244 137.799029,97.121077 137.799029,93.06731 C137.799029,89.0169296 134.644777,85.7217623 130.771589,85.7217623 M130.771589,107.189456 C123.326389,107.189456 117.270484,100.853116 117.270484,93.06731 C117.270484,85.2848902 123.326389,78.948551 130.771589,78.948551 C138.216789,78.948551 144.275932,85.2848902 144.275932,93.06731 C144.275932,100.853116 138.216789,107.189456 130.771589,107.189456" id="Fill-13" fill="#5C5C5C" mask="url(#mask-2)"></path>
            <path d="M112.027107,27.6958011 C122.014492,27.6184464 130.172152,36.0206151 130.246636,46.4649069 L130.772016,119.412393 C130.829557,127.025482 127.490714,134.222019 121.745701,138.895535 L102.314991,154.663571 C99.4489616,156.983396 95.9190494,158.270306 92.2855067,158.297399 L74.078932,158.440165 C70.3514742,158.470116 66.72117,157.183206 63.780656,154.792262 L44.9717293,139.501737 C39.3238697,134.916273 36.0076953,127.872134 35.9558801,120.401282 L35.4177887,45.7774259 C35.3470512,36.1255998 42.7728207,28.2415819 52.0056461,28.1704632 L112.027107,27.6958011 Z" id="Fill-14" fill="#FFFFFF" mask="url(#mask-2)"></path>
            <path d="M112.052367,31.082944 L52.030906,31.5570688 C48.4297479,31.5841617 45.0585198,33.0776547 42.5292891,35.7564598 C40.0032969,38.4386515 38.626955,41.9878142 38.6556474,45.7537197 L39.193684,120.377575 C39.2422608,126.862925 42.069429,132.860604 46.9562524,136.826319 L65.7684176,152.116843 C68.1001027,154.013343 71.0017553,155.053031 73.9519847,155.053031 L74.0556151,155.053031 L92.2621899,154.910793 C95.1638425,154.887087 98.0298721,153.847399 100.332411,151.984766 L119.759882,136.220117 C124.672613,132.223922 127.580743,125.948542 127.532765,119.439486 L127.007537,46.4886131 C126.946006,37.9712999 120.297465,31.082944 112.162475,31.082944 L112.052367,31.082944 Z M73.9552231,161.826242 C69.5671213,161.826242 65.2535038,160.28195 61.7883606,157.464294 L42.9826723,142.173769 C36.5219614,136.927917 32.7783114,129.00326 32.7167808,120.424988 L32.1785591,45.8045188 C32.137098,40.2301659 34.1773225,34.9741539 37.9144956,31.0050521 C41.6581456,27.0359503 46.6518379,24.8244968 51.9790908,24.7838575 L112.000552,24.3097327 L112.162475,24.3097327 C123.850046,24.3097327 133.397002,34.2020078 133.48444,46.4378141 L134.009875,119.388686 C134.073838,127.990665 130.233035,136.281075 123.733462,141.570953 L104.299514,157.338989 C100.882948,160.109233 96.6243841,161.650138 92.3107666,161.684004 L74.1041919,161.826242 L73.9552231,161.826242 Z" id="Fill-15" fill="#5C5C5C" mask="url(#mask-2)"></path>
            <polygon id="Fill-16" fill="#FFFFFF" mask="url(#mask-2)" points="49.0301568 99.6237785 78.5907427 99.6237785 78.5907427 81.2988553 49.0301568 81.2988553"></polygon>
            <path d="M52.2686084,96.2371729 L75.3522912,96.2371729 L75.3522912,84.685461 L52.2686084,84.685461 L52.2686084,96.2371729 Z M78.5907427,103.010384 L49.0301568,103.010384 C47.2392931,103.010384 45.7917052,101.496571 45.7917052,99.6237785 L45.7917052,81.3022419 C45.7917052,79.4328356 47.2392931,77.9156363 49.0301568,77.9156363 L78.5907427,77.9156363 C80.378368,77.9156363 81.8291943,79.4328356 81.8291943,81.3022419 L81.8291943,99.6237785 C81.8291943,101.496571 80.378368,103.010384 78.5907427,103.010384 L78.5907427,103.010384 Z" id="Fill-17" fill="#5C5C5C" mask="url(#mask-2)"></path>
            <polygon id="Fill-18" fill="#FFFFFF" mask="url(#mask-2)" points="89.6468164 99.6237785 117.513692 99.6237785 117.513692 81.2988553 89.6468164 81.2988553"></polygon>
            <path d="M92.885268,96.2371729 L114.275241,96.2371729 L114.275241,84.685461 L92.885268,84.685461 L92.885268,96.2371729 Z M117.513692,103.010384 L89.6468164,103.010384 C87.8559527,103.010384 86.4083648,101.496571 86.4083648,99.6237785 L86.4083648,81.3022419 C86.4083648,79.4328356 87.8559527,77.9156363 89.6468164,77.9156363 L117.513692,77.9156363 C119.304556,77.9156363 120.752144,79.4328356 120.752144,81.3022419 L120.752144,99.6237785 C120.752144,101.496571 119.304556,103.010384 117.513692,103.010384 L117.513692,103.010384 Z" id="Fill-19" fill="#5C5C5C" mask="url(#mask-2)"></path>
            <line x1="80.1643063" y1="90.4626716" x2="89.6464925" y2="90.4626716" id="Fill-20" fill="#FFFFFF" mask="url(#mask-2)"></line>
            <polygon id="Fill-21" fill="#5C5C5C" mask="url(#mask-2)" points="80.1646302 93.8496159 89.6468164 93.8496159 89.6468164 87.0764046 80.1646302 87.0764046"></polygon>
            <line x1="117.514016" y1="81.3015646" x2="130.772237" y2="82.3344793" id="Fill-22" fill="#FFFFFF" mask="url(#mask-2)"></line>
            <polygon id="Fill-23" fill="#5C5C5C" mask="url(#mask-2)" points="130.530972 85.7119412 117.272751 84.6790264 117.755281 77.9261348 131.007024 78.9590495"></polygon>
            <line x1="49.0288614" y1="81.3015646" x2="37.351005" y2="82.3344793" id="Fill-24" fill="#FFFFFF" mask="url(#mask-2)"></line>
            <path d="M37.3464712,85.7217623 C35.6786686,85.7217623 34.2667038,84.3874397 34.1242119,82.6196315 C33.9720047,80.7569984 35.2932929,79.1178813 37.0776797,78.9587108 L48.7522976,77.9257961 C50.5269691,77.7700122 52.1073335,79.155134 52.2563022,81.0143805 C52.405271,82.8804002 51.0839828,84.5195173 49.299596,84.6753012 L37.6217396,85.7116025 C37.5310629,85.7183757 37.4371478,85.7217623 37.3464712,85.7217623" id="Fill-25" fill="#5C5C5C" mask="url(#mask-2)"></path>
            <path d="M69.1176242,90.4626716 C69.1176242,93.5275497 66.7438392,96.0133182 63.8098021,96.0133182 C60.8757649,96.0133182 58.5019799,93.5275497 58.5019799,90.4626716 C58.5019799,87.3977935 60.8757649,84.9120249 63.8098021,84.9120249 C66.7438392,84.9120249 69.1176242,87.3977935 69.1176242,90.4626716" id="Fill-26" fill="#4E4844" mask="url(#mask-2)"></path>
            <path d="M109.544511,90.4626716 C109.544511,93.5275497 107.167487,96.0133182 104.23345,96.0133182 C101.302651,96.0133182 98.9288663,93.5275497 98.9288663,90.4626716 C98.9288663,87.3977935 101.302651,84.9120249 104.23345,84.9120249 C107.167487,84.9120249 109.544511,87.3977935 109.544511,90.4626716" id="Fill-27" fill="#4E4844" mask="url(#mask-2)"></path>
            <path d="M77.5868227,132.950687 C79.3776865,133.624622 82.7812991,134.610124 86.9880476,133.976829 C93.6657348,132.96762 97.7364684,128.56842 98.9282186,127.176525" id="Fill-28" fill="#FFFFFF" mask="url(#mask-2)"></path>
            <path d="M84.2819975,137.56426 C81.6523748,137.56426 79.0065599,137.083362 76.4935215,136.138499 C74.8062882,135.505204 73.9351447,133.564679 74.5374967,131.803644 C75.1463256,130.045996 77.0051968,129.121452 78.6827147,129.764908 C81.2151839,130.716544 83.9257678,131.014565 86.5262445,130.625105 C91.6235672,129.852959 94.9721261,126.716962 96.5168675,124.918675 C97.7150946,123.523393 99.7585576,123.411635 101.086323,124.65452 C102.423803,125.904177 102.533911,128.044512 101.338922,129.439793 C99.2080208,131.922175 94.5737966,136.250257 87.4524416,137.327198 C86.4031833,137.486368 85.3442096,137.56426 84.2819975,137.56426" id="Fill-29" fill="#5C5C5C" mask="url(#mask-2)"></path>
            <path d="M41.6856725,22.6049154 C45.6851602,17.9889719 50.4424455,16.0789263 52.7579384,15.2085687 C56.2554661,13.8911791 59.2283646,13.4983328 60.6986216,13.3527088 C59.3319951,12.028546 61.4434655,8.82820362 64.3418797,8.90948216 C69.4327255,9.0551062 73.7139585,10.0609281 76.9167871,11.1141624 C75.71856,8.97044106 81.6254957,5.70913981 86.5511805,7.11119455 C93.7470199,9.16009097 99.5503251,12.0488656 103.844512,14.6328457 C103.135291,13.1935383 110.279315,12.9022902 112.782638,14.20952 C112.782638,14.20952 120.739514,18.3547253 125.529184,24.6131726 C125.966375,25.1888955 126.377658,25.7612319 126.763034,26.3335682 C129.402372,30.2417112 130.733375,34.9423198 130.733375,39.724207 L130.733375,69.1131709 L130.759283,76.1166714 L130.759283,79.5743957 C130.3059,76.5264506 129.561056,72.9298754 128.311014,69.0623718 C126.682072,64.1077677 124.233803,58.6824255 120.525776,53.3586814 C118.666905,50.6866495 116.723834,48.3803711 114.819624,46.3992067 C112.00541,43.4664063 107.844,42.4334915 104.097111,43.8287731 C99.1163726,45.6812463 92.4127779,47.4355081 84.4138025,47.5946785 C75.5954989,47.7741686 68.1988755,45.9555614 62.8133305,44.0048766 C58.8267966,42.5621825 54.4386948,43.7237883 51.6050496,46.9884761 C49.4806254,49.4268322 47.3043859,52.2851274 45.2447307,55.5972277 C42.7705537,59.5663295 40.8857749,63.5083385 39.4543793,67.2336047 C37.4109164,72.5065497 36.2709814,77.356169 35.6103373,81.3015646 L35.6103373,76.1166714 L35.6362449,76.1166714 C35.6038604,73.1364584 35.5747144,70.159632 35.5455683,67.179419 C35.5067069,57.6562839 35.4678454,48.1331488 35.428984,38.6134003 C35.5973835,35.910889 36.4005195,28.7008056 41.6856725,22.6049154" id="Fill-30" fill="#D0021B" mask="url(#mask-2)"></path>
            <path d="M44.0860128,24.8786825 C39.8144951,29.8061937 38.8559135,35.7361402 38.6616064,38.8314978 L38.7555215,60.6243051 C39.8889795,58.2570678 41.1519756,55.9575625 42.531556,53.7461091 C44.5134884,50.5660863 46.7577353,47.5249145 49.2092432,44.7106452 C52.9075548,40.4502953 58.6655217,38.9195495 63.8729519,40.8058888 C70.4988238,43.2069923 77.3805334,44.3550516 84.3529196,44.2094275 C90.7067616,44.0807365 96.9861192,42.8784915 103.016116,40.6365586 C107.873793,38.8314978 113.405069,40.1488874 117.106619,43.999458 C119.299051,46.2820302 121.32956,48.7610255 123.143093,51.3619387 C124.746126,53.6648305 126.196952,56.0964134 127.495571,58.6295944 L127.495571,39.7255616 C127.495571,35.5160108 126.329729,31.5604554 124.117866,28.2856077 C123.768114,27.7708437 123.395692,27.2493064 123.000601,26.7311558 C118.732321,21.1500296 111.410182,17.2757528 111.335698,17.2385001 C110.461316,16.7779217 107.770163,16.6492307 106.299906,16.8388806 C106.22866,16.9235458 106.160652,17.0048243 106.086168,17.0793296 C105.043387,18.1224042 103.479215,18.3154407 102.229172,17.5670008 C97.034696,14.4377772 91.4742746,12.0231274 85.7065924,10.3806237 C83.4817761,9.74732839 81.1565679,10.5601138 80.1558864,11.1967956 C80.1364557,11.9181426 79.9000487,12.6327164 79.4499039,13.2253724 C78.6143834,14.319246 77.2218492,14.7628914 75.9458993,14.3463389 C72.1439572,13.0966814 68.2092385,12.4058138 64.2550892,12.2940558 C64.0866897,12.2771228 63.9409594,12.3414683 63.8114213,12.412587 C63.9895361,13.0628153 63.9830592,13.7706159 63.766083,14.4411638 C63.3547996,15.7077543 62.2699183,16.6018182 61.0004453,16.723736 C58.5683682,16.964185 56.1621987,17.5263616 53.8564212,18.3933326 C52.1691879,19.0266279 47.6968863,20.7131575 44.0860128,24.8786825 M35.6142235,84.6895249 C35.5170699,84.6895249 35.4231548,84.6861383 35.3292397,84.6759785 C33.6549603,84.5235812 32.3725334,83.057181 32.3725334,81.3029193 L32.3725334,76.1146394 C32.3725334,75.9825618 32.3790103,75.8538708 32.3952026,75.7285664 L32.304526,67.2180263 L32.1911801,38.6283014 C32.4437794,34.415364 33.6938217,26.7819548 39.2866275,20.3304711 C43.9823823,14.911902 49.5557575,12.8122065 51.660751,12.0231274 C53.5131453,11.3254866 55.4205933,10.7870163 57.3539489,10.4178763 C57.3798565,10.3332112 57.412241,10.248546 57.447864,10.1638809 C58.545699,7.34961159 61.3793442,5.43279279 64.4267271,5.52423114 C67.9566393,5.62244271 71.4703593,6.12366034 74.9128333,7.01095103 C77.2315646,4.33553256 82.6009173,2.47967266 87.4067794,3.84447474 C93.0125391,5.439566 98.4401839,7.70859179 103.566653,10.5939798 C106.818058,9.4493071 112.087019,10.0622827 114.227635,11.176476 C114.580627,11.3593527 122.884016,15.7314606 128.059062,22.4978987 C128.538353,23.1244207 128.988498,23.7543294 129.412735,24.384238 C132.395349,28.8037584 133.972475,34.1071829 133.972475,39.7255616 L133.998382,79.5723638 C133.998382,81.3435585 132.693286,82.8133454 131.009291,82.9488096 C129.27672,83.0707274 127.816178,81.838003 127.557102,80.093901 C127.051904,76.6835892 126.274675,73.3376228 125.244848,70.1474402 C123.48313,64.7932167 121.012191,59.8081332 117.906516,55.3513601 C116.293767,53.0349219 114.486711,50.8302416 112.533925,48.7982782 C110.590854,46.7764746 107.708632,46.0822205 105.185879,47.0169236 C98.5017145,49.5060788 91.5293283,50.8404014 84.4792192,50.9826388 C76.7457969,51.1384227 69.0998127,49.8684456 61.7550045,47.2031869 C58.9958438,46.2142981 55.9549378,47.0203102 54.0021515,49.2656298 C51.7838122,51.8157438 49.7500646,54.5690542 47.9559624,57.4442824 C45.7894383,60.9223264 43.9402824,64.6374328 42.4570716,68.4947767 C40.8022229,72.7652864 39.5683728,77.2660853 38.8008598,81.8854154 C38.5255914,83.5177594 37.1686802,84.6895249 35.6142235,84.6895249" id="Fill-31" fill="#4E4844" mask="url(#mask-2)"></path>
            <polygon id="Fill-32" fill="#FFFFFF" mask="url(#mask-2)" points="61.0529082 167.688118 84.9041041 186.477006 58.7212231 186.477006"></polygon>
            <path d="M62.406581,183.091755 L75.2243723,183.091755 L63.5497544,173.893734 L62.406581,183.091755 Z M84.9041041,189.864966 L58.7212231,189.864966 C57.7885491,189.864966 56.9044518,189.445027 56.289146,188.71352 C55.6738402,187.982013 55.3920949,187.010058 55.5119176,186.044875 L57.8436027,167.2526 C57.9893331,166.057128 58.7341769,165.034373 59.796389,164.567022 C60.8586011,164.09967 62.0794974,164.255454 63.0024561,164.983574 L86.8536519,183.772463 C87.9676792,184.649593 88.417824,186.170179 87.9773946,187.551914 C87.5337267,188.93365 86.2966382,189.864966 84.9041041,189.864966 L84.9041041,189.864966 Z" id="Fill-33" fill="#5C5C5C" mask="url(#mask-2)"></path>
            <polygon id="Fill-34" fill="#FFFFFF" mask="url(#mask-2)" points="107.349488 167.688118 83.4982922 186.477006 109.681173 186.477006"></polygon>
            <path d="M93.1783478,183.091755 L105.996139,183.091755 L104.852966,173.893734 L93.1783478,183.091755 Z M109.681497,189.864966 L83.4986161,189.864966 C82.1060819,189.864966 80.8689934,188.93365 80.4253255,187.551914 C79.9848961,186.170179 80.4350409,184.649593 81.5490682,183.772463 L105.400264,164.983574 C106.319984,164.255454 107.540881,164.09967 108.606331,164.567022 C109.668543,165.034373 110.413387,166.057128 110.559117,167.2526 L112.890803,186.044875 C113.010625,187.010058 112.72888,187.982013 112.113574,188.71352 C111.498268,189.445027 110.614171,189.864966 109.681497,189.864966 L109.681497,189.864966 Z" id="Fill-35" fill="#5C5C5C" mask="url(#mask-2)"></path>
            <line x1="79.9146217" y1="114.329436" x2="89.8987679" y2="114.329436" id="Fill-36" fill="#FFFFFF" mask="url(#mask-2)"></line>
            <path d="M89.8987679,117.716042 L79.9146217,117.716042 C78.123758,117.716042 76.6761702,116.198843 76.6761702,114.329436 C76.6761702,112.46003 78.123758,110.942831 79.9146217,110.942831 L89.8987679,110.942831 C91.6896316,110.942831 93.1372195,112.46003 93.1372195,114.329436 C93.1372195,116.198843 91.6896316,117.716042 89.8987679,117.716042" id="Fill-37" fill="#5C5C5C" mask="url(#mask-2)"></path>
            <polyline id="Fill-38" fill="#FFFFFF" mask="url(#mask-2)" points="83.4976445 186.47836 83.4976445 243.204005 83.4976445 249.252483"></polyline>
            <path d="M83.4976445,252.639427 C81.7067808,252.639427 80.259193,251.122228 80.259193,249.252822 L80.259193,186.478699 C80.259193,184.609293 81.7067808,183.092093 83.4976445,183.092093 C85.2885083,183.092093 86.7360961,184.609293 86.7360961,186.478699 L86.7360961,249.252822 C86.7360961,251.122228 85.2885083,252.639427 83.4976445,252.639427" id="Fill-39" fill="#4E4844" mask="url(#mask-2)"></path>
            <polygon id="Fill-40" fill="#FFFFFF" mask="url(#mask-2)" points="120.508936 238.257868 111.049419 243.202312 101.589902 238.257868 101.589902 221.768485 120.508936 221.768485"></polygon>
            <path d="M120.508936,238.257868 L120.541321,238.257868 L120.508936,238.257868 Z M104.828354,236.164945 L111.049419,239.416087 L117.270484,236.164945 L117.270484,225.15509 L104.828354,225.15509 L104.828354,236.164945 Z M111.049419,246.588918 C110.553936,246.588918 110.055214,246.470386 109.601831,246.233324 L100.142314,241.28888 C99.044479,240.713157 98.3514504,239.541391 98.3514504,238.257868 L98.3514504,221.768485 C98.3514504,219.899078 99.7957998,218.381879 101.589902,218.381879 L120.508936,218.381879 C122.2998,218.381879 123.747388,219.899078 123.747388,221.768485 L123.747388,238.257868 C123.747388,239.541391 123.054359,240.713157 121.956524,241.28888 L112.497007,246.233324 C112.043624,246.470386 111.544902,246.588918 111.049419,246.588918 L111.049419,246.588918 Z" id="Fill-41" fill="#4E4844" mask="url(#mask-2)"></path>
            <line x1="31.7394162" y1="223.284329" x2="31.7394162" y2="249.249435" id="Fill-42" fill="#FFFFFF" mask="url(#mask-2)"></line>
            <path d="M31.7394162,252.639427 C29.9485524,252.639427 28.5009646,251.122228 28.5009646,249.252822 L28.5009646,223.284329 C28.5009646,221.414923 29.9485524,219.897724 31.7394162,219.897724 C33.5302799,219.897724 34.9778677,221.414923 34.9778677,223.284329 L34.9778677,249.252822 C34.9778677,251.122228 33.5302799,252.639427 31.7394162,252.639427" id="Fill-43" fill="#4E4844" mask="url(#mask-2)"></path>
            <line x1="135.252634" y1="223.284329" x2="135.252634" y2="249.249435" id="Fill-44" fill="#FFFFFF" mask="url(#mask-2)"></line>
            <path d="M135.252634,252.639427 C133.461771,252.639427 132.014183,251.122228 132.014183,249.252822 L132.014183,223.284329 C132.014183,221.414923 133.461771,219.897724 135.252634,219.897724 C137.043498,219.897724 138.491086,221.414923 138.491086,223.284329 L138.491086,249.252822 C138.491086,251.122228 137.043498,252.639427 135.252634,252.639427" id="Fill-45" fill="#4E4844" mask="url(#mask-2)"></path>
        </g>
    </g>
</svg>