<?xml version="1.0" encoding="UTF-8" standalone="no"?>
<svg
   version="1.0"
   width="489" height="137" viewBox="0 0 92.333 25.933"
  
   id="svg84"
   sodipodi:docname="abb-65.wmf"
   xmlns:inkscape="http://www.inkscape.org/namespaces/inkscape"
   xmlns:sodipodi="http://sodipodi.sourceforge.net/DTD/sodipodi-0.dtd"
   xmlns="http://www.w3.org/2000/svg"
   xmlns:svg="http://www.w3.org/2000/svg">
  <sodipodi:namedview
     id="namedview84"
     pagecolor="#ffffff"
     bordercolor="#000000"
     borderopacity="0.25"
     inkscape:showpageshadow="2"
     inkscape:pageopacity="0.0"
     inkscape:pagecheckerboard="0"
     inkscape:deskcolor="#d1d1d1"
     inkscape:document-units="mm" />
  <defs
     id="defs9">
    <clipPath
       clipPathUnits="userSpaceOnUse"
       id="clipWmfPath1">
      <path
         d="M 8.0666667,1.0666667 L 13.266667,1.0666667 L 13.266667,7 L 8.0666667,7 z"
         id="path1" />
    </clipPath>
    <clipPath
       clipPathUnits="userSpaceOnUse"
       id="clipWmfPath2">
      <path
         d="M 86.8,14.6 L 90.4,14.6 L 90.4,19.466667 L 86.8,19.466667 z"
         id="path2" />
    </clipPath>
    <clipPath
       clipPathUnits="userSpaceOnUse"
       id="clipWmfPath3">
      <path
         d="M 2,7.5333333 L 7.2666667,7.5333333 L 7.2666667,13.466667 L 2,13.466667 z"
         id="path3" />
    </clipPath>
    <clipPath
       clipPathUnits="userSpaceOnUse"
       id="clipWmfPath4">
      <path
         d="M 2.4666667,13.6 L 7.6666667,13.6 L 7.6666667,19.466667 L 2.4666667,19.466667 z"
         id="path4" />
    </clipPath>
    <clipPath
       clipPathUnits="userSpaceOnUse"
       id="clipWmfPath5">
      <path
         d="M 7.2666667,18.2 L 14.933333,18.2 L 14.933333,22.4 L 7.2666667,22.4 z"
         id="path5" />
    </clipPath>
    <clipPath
       clipPathUnits="userSpaceOnUse"
       id="clipWmfPath6">
      <path
         d="M 18.066667,18.2 L 24.933333,18.2 L 24.933333,22.2 L 18.066667,22.2 z"
         id="path6" />
    </clipPath>
    <clipPath
       clipPathUnits="userSpaceOnUse"
       id="clipWmfPath7">
      <path
         d="M 30.333333,18.2 L 36,18.2 L 36,22 L 30.333333,22 z"
         id="path7" />
    </clipPath>
    <clipPath
       clipPathUnits="userSpaceOnUse"
       id="clipWmfPath8">
      <path
         d="M 41.4,18.2 L 49.933333,18.2 L 49.933333,23.266667 L 41.4,23.266667 z"
         id="path8" />
    </clipPath>
    <clipPath
       clipPathUnits="userSpaceOnUse"
       id="clipWmfPath9">
      <path
         d="M 52.666667,18.4 L 62.866667,18.4 L 62.866667,24.933333 L 52.666667,24.933333 z"
         id="path9" />
    </clipPath>
    <pattern
       id="WMFhbasepattern"
       patternUnits="userSpaceOnUse"
       width="6"
       height="6"
       x="0"
       y="0" />
  </defs>
  <text
     xml:space="preserve"
     style="font-size:2.812500px;font-style:normal;font-variant:normal;font-weight:400;font-stretch:Condensed;line-height:125.000000%;letter-spacing:0px;word-spacing:0px;fill:#000000;fill-opacity:1;stroke:none;font-family:Times New Roman;text-align:start;text-anchor:start;"
     transform="matrix(1.000000,-0.000000,0.000000,1.000000,0.000000,-0.066667)"
     x="0.000000"
     y="2.506256"
     id="text10"><tspan
       sodipodi:role="line"
       x="0.000000"
       y="2.506256"
       id="tspan10"><tspan
         dx="0.000000"
         dy="0.000000"
         style="fill:#000000;font-size:2.812500px;font-style:normal;font-variant:normal;font-weight:400;font-stretch:Condensed;font-family:Times New Roman;"
         id="tspan9"> </tspan></tspan></text>
  <path
     style="fill:none;stroke:#000000;stroke-width:0.2px;stroke-linecap:round;stroke-linejoin:round;stroke-miterlimit:4;stroke-dasharray:none;stroke-opacity:1;"
     d="  M 6.4666667,17.133333   L 6.4666667,4.9333333  "
     id="path10" />
  <path
     style="fill:#000000;fill-rule:evenodd;fill-opacity:1;stroke:none;"
     d="  M 7.2,5.1333333   L 6.5333333,2   L 5.8,5.1333333  z "
     id="path11" />
  <path
     style="fill:none;stroke:#000000;stroke-width:0.2px;stroke-linecap:round;stroke-linejoin:round;stroke-miterlimit:4;stroke-dasharray:none;stroke-opacity:1;"
     d="  M 6.4666667,17.133333   L 82.666667,17.133333  "
     id="path12" />
  <path
     style="fill:#000000;fill-rule:evenodd;fill-opacity:1;stroke:none;"
     d="  M 82.533333,17.866667   L 85.733333,17.2   L 82.533333,16.466667  z "
     id="path13" />
  <path
     style="fill:none;stroke:none;"
     d="  M 6.0666667,0.066666667   L 15.266667,0.066666667   L 15.266667,8.0666667   L 6.0666667,8.0666667   z "
     id="path14" />
  <g
     clip-path="url(#clipWmfPath1)"
     id="g17">
    <text
       xml:space="preserve"
       style="font-size:3.875000px;font-style:normal;font-variant:normal;font-weight:400;font-stretch:Normal;line-height:125.000000%;letter-spacing:0px;word-spacing:0px;fill:#000000;fill-opacity:1;stroke:none;font-family:Verdana;text-align:start;text-anchor:start;"
       transform="matrix(1.000000,-0.000000,0.000000,1.000000,8.066667,1.000000)"
       x="0.000000"
       y="3.895813"
       id="text17"><tspan
         sodipodi:role="line"
         x="0.000000"
         y="3.895813"
         id="tspan17"><tspan
           dx="0.000000"
           dy="0.000000"
           style="fill:#000000;font-size:3.875000px;font-style:normal;font-variant:normal;font-weight:400;font-stretch:Normal;font-family:Verdana;"
           id="tspan14">Q</tspan><tspan
           dx="0.000000"
           dy="0.613784"
           style="fill:#000000;font-size:2.562500px;font-style:normal;font-variant:normal;font-weight:400;font-stretch:Normal;font-family:Verdana;"
           id="tspan15">D</tspan><tspan
           dx="0.000000"
           dy="0.000000"
           style="fill:#000000;font-size:2.562500px;font-style:normal;font-variant:normal;font-weight:400;font-stretch:Normal;font-family:Verdana;"
           id="tspan16"> </tspan></tspan></text>
  </g>
  <path
     style="fill:none;stroke:none;"
     d="  M 84.8,13.6   L 92.4,13.6   L 92.4,20.6   L 84.8,20.6   z "
     id="path17" />
  <g
     clip-path="url(#clipWmfPath2)"
     id="g20">
    <text
       xml:space="preserve"
       style="font-size:3.875000px;font-style:normal;font-variant:normal;font-weight:400;font-stretch:Condensed;line-height:125.000000%;letter-spacing:0px;word-spacing:0px;fill:#000000;fill-opacity:1;stroke:none;font-family:Times New Roman;text-align:start;text-anchor:start;"
       transform="matrix(1.000000,-0.000000,0.000000,1.000000,86.800000,14.666667)"
       x="0.000000"
       y="3.453064"
       id="text20"><tspan
         sodipodi:role="line"
         x="0.000000"
         y="3.453064"
         id="tspan20"><tspan
           dx="0.000000"
           dy="0.000000"
           style="fill:#000000;font-size:3.875000px;font-style:normal;font-variant:normal;font-weight:400;font-stretch:Condensed;font-family:Times New Roman;"
           id="tspan18">t</tspan><tspan
           dx="0.000000"
           dy="0.000000"
           style="fill:#000000;font-size:3.875000px;font-style:normal;font-variant:normal;font-weight:400;font-stretch:Condensed;font-family:Times New Roman;"
           id="tspan19"> </tspan></tspan></text>
  </g>
  <path
     style="fill:#000000;fill-rule:nonzero;fill-opacity:1;stroke:none;"
     d="  M 6.4666667,16.733333   L 6.4666667,17.133333   L 16.466667,17.133333   L 16.466667,16.733333  z "
     id="path20" />
  <path
     style="fill:#000000;fill-rule:nonzero;fill-opacity:1;stroke:none;"
     d="  M 16.066667,16.933333   L 16.466667,16.933333   L 16.466667,10.266667   L 16.066667,10.266667  z "
     id="path21" />
  <path
     style="fill:#000000;fill-rule:nonzero;fill-opacity:1;stroke:none;"
     d="  M 16.133333,10   L 16.133333,10.4   L 39.6,10.4   L 39.6,10  z "
     id="path22" />
  <path
     style="fill:#000000;fill-rule:nonzero;fill-opacity:1;stroke:none;"
     d="  M 39.6,10.266667   L 39.2,10.266667   L 39.2,17.133333   L 39.6,17.133333  z "
     id="path23" />
  <path
     style="fill:none;stroke:#000000;stroke-width:0.2px;stroke-linecap:round;stroke-linejoin:round;stroke-miterlimit:4;stroke-dasharray:none;stroke-opacity:1;"
     d="  M 7.0666667,10.066667   L 5.8666667,10.066667  "
     id="path24" />
  <path
     style="fill:none;stroke:none;"
     d="  M 0,6.5333333   L 9.2666667,6.5333333   L 9.2666667,14.533333   L 0,14.533333   z "
     id="path25" />
  <g
     clip-path="url(#clipWmfPath3)"
     id="g28">
    <text
       xml:space="preserve"
       style="font-size:3.875000px;font-style:normal;font-variant:normal;font-weight:400;font-stretch:Normal;line-height:125.000000%;letter-spacing:0px;word-spacing:0px;fill:#000000;fill-opacity:1;stroke:none;font-family:Verdana;text-align:start;text-anchor:start;"
       transform="matrix(1.000000,-0.000000,0.000000,1.000000,2.000000,7.466667)"
       x="0.000000"
       y="3.895813"
       id="text26"><tspan
         sodipodi:role="line"
         x="0.000000"
         y="3.895813"
         id="tspan26"><tspan
           dx="0.000000"
           dy="0.000000"
           style="fill:#000000;font-size:3.875000px;font-style:normal;font-variant:normal;font-weight:400;font-stretch:Normal;font-family:Verdana;"
           id="tspan25">H</tspan></tspan></text>
    <text
       xml:space="preserve"
       style="font-size:2.562500px;font-style:normal;font-variant:normal;font-weight:400;font-stretch:Normal;line-height:125.000000%;letter-spacing:0px;word-spacing:0px;fill:#000000;fill-opacity:1;stroke:none;font-family:Verdana;text-align:start;text-anchor:start;"
       transform="matrix(1.000000,-0.000000,0.000000,1.000000,2.000000,7.466667)"
       x="2.933333"
       y="4.509597"
       id="text28"><tspan
         sodipodi:role="line"
         x="2.933333"
         y="4.509597"
         id="tspan28"><tspan
           dx="0.000000"
           dy="0.000000"
           style="fill:#000000;font-size:2.562500px;font-style:normal;font-variant:normal;font-weight:400;font-stretch:Normal;font-family:Verdana;"
           id="tspan27"> </tspan></tspan></text>
  </g>
  <path
     style="fill:none;stroke:none;"
     d="  M 0.4,12.6   L 9.6666667,12.6   L 9.6666667,20.6   L 0.4,20.6   z "
     id="path28" />
  <g
     clip-path="url(#clipWmfPath4)"
     id="g32">
    <text
       xml:space="preserve"
       style="font-size:3.875000px;font-style:normal;font-variant:normal;font-weight:400;font-stretch:Normal;line-height:125.000000%;letter-spacing:0px;word-spacing:0px;fill:#000000;fill-opacity:1;stroke:none;font-family:Verdana;text-align:start;text-anchor:start;"
       transform="matrix(1.000000,-0.000000,0.000000,1.000000,2.466667,13.533333)"
       x="0.000000"
       y="3.895813"
       id="text30"><tspan
         sodipodi:role="line"
         x="0.000000"
         y="3.895813"
         id="tspan30"><tspan
           dx="0.000000"
           dy="0.000000"
           style="fill:#000000;font-size:3.875000px;font-style:normal;font-variant:normal;font-weight:400;font-stretch:Normal;font-family:Verdana;"
           id="tspan29">L</tspan></tspan></text>
    <text
       xml:space="preserve"
       style="font-size:2.562500px;font-style:normal;font-variant:normal;font-weight:400;font-stretch:Normal;line-height:125.000000%;letter-spacing:0px;word-spacing:0px;fill:#000000;fill-opacity:1;stroke:none;font-family:Verdana;text-align:start;text-anchor:start;"
       transform="matrix(1.000000,-0.000000,0.000000,1.000000,2.466667,13.533333)"
       x="2.133333"
       y="4.509597"
       id="text32"><tspan
         sodipodi:role="line"
         x="2.133333"
         y="4.509597"
         id="tspan32"><tspan
           dx="0.000000"
           dy="0.000000"
           style="fill:#000000;font-size:2.562500px;font-style:normal;font-variant:normal;font-weight:400;font-stretch:Normal;font-family:Verdana;"
           id="tspan31"> </tspan></tspan></text>
  </g>
  <path
     style="fill:none;stroke:#000000;stroke-width:0.2px;stroke-linecap:round;stroke-linejoin:round;stroke-miterlimit:4;stroke-dasharray:none;stroke-opacity:1;"
     d="  M 7.0666667,17.133333   L 5.8666667,17.133333  "
     id="path32" />
  <path
     style="fill:#000000;fill-rule:nonzero;fill-opacity:1;stroke:none;"
     d="  M 39.2,16.733333   L 39.2,17.133333   L 68.333333,17.133333   L 68.333333,16.733333  z "
     id="path33" />
  <path
     style="fill:#000000;fill-rule:nonzero;fill-opacity:1;stroke:none;"
     d="  M 27.2,10.333333   L 27.133333,10.266667   L 27.066667,10.2   L 27.066667,10.2   L 27,10.266667   L 27,11   L 27,11.066667   L 27.066667,11.133333   L 27.133333,11.133333   L 27.2,11.066667  z "
     id="path34" />
  <path
     style="fill:#000000;fill-rule:nonzero;fill-opacity:1;stroke:none;"
     d="  M 27.2,11.666667   L 27.2,11.6   L 27.133333,11.533333   L 27.066667,11.533333   L 27,11.6   L 27,12.4   L 27,12.466667   L 27.066667,12.533333   L 27.133333,12.533333   L 27.2,12.466667  z "
     id="path35" />
  <path
     style="fill:#000000;fill-rule:nonzero;fill-opacity:1;stroke:none;"
     d="  M 27.2,13.066667   L 27.2,13   L 27.133333,12.933333   L 27.066667,12.933333   L 27,13   L 27,13.8   L 27,13.866667   L 27.066667,13.933333   L 27.133333,13.933333   L 27.2,13.866667  z "
     id="path36" />
  <path
     style="fill:#000000;fill-rule:nonzero;fill-opacity:1;stroke:none;"
     d="  M 27.2,14.466667   L 27.2,14.4   L 27.133333,14.333333   L 27.066667,14.333333   L 27,14.4   L 27,15.2   L 27,15.266667   L 27.066667,15.333333   L 27.133333,15.333333   L 27.2,15.266667  z "
     id="path37" />
  <path
     style="fill:#000000;fill-rule:nonzero;fill-opacity:1;stroke:none;"
     d="  M 27.2,15.866667   L 27.2,15.8   L 27.133333,15.733333   L 27.066667,15.733333   L 27,15.8   L 27,16.6   L 27,16.666667   L 27.066667,16.733333   L 27.133333,16.733333   L 27.2,16.666667  z "
     id="path38" />
  <path
     style="fill:#000000;fill-rule:nonzero;fill-opacity:1;stroke:none;"
     d="  M 27.2,17.266667   L 27.2,17.2   L 27.133333,17.133333   L 27.066667,17.133333   L 27,17.2   L 27,18   L 27,18.066667   L 27.066667,18.133333   L 27.133333,18.133333   L 27.2,18.066667  z "
     id="path39" />
  <path
     style="fill:#000000;fill-rule:nonzero;fill-opacity:1;stroke:none;"
     d="  M 27.2,18.666667   L 27.2,18.6   L 27.133333,18.533333   L 27.066667,18.533333   L 27,18.6   L 27,19.4   L 27,19.466667   L 27.066667,19.533333   L 27.133333,19.533333   L 27.2,19.466667  z "
     id="path40" />
  <path
     style="fill:#000000;fill-rule:nonzero;fill-opacity:1;stroke:none;"
     d="  M 51.6,10.133333   L 51.533333,10.066667   L 51.466667,10   L 51.466667,10   L 51.4,10.066667   L 51.4,10.8   L 51.4,10.866667   L 51.466667,10.933333   L 51.533333,10.933333   L 51.6,10.866667  z "
     id="path41" />
  <path
     style="fill:#000000;fill-rule:nonzero;fill-opacity:1;stroke:none;"
     d="  M 51.6,11.466667   L 51.6,11.4   L 51.533333,11.333333   L 51.466667,11.333333   L 51.4,11.4   L 51.4,12.2   L 51.4,12.266667   L 51.466667,12.333333   L 51.533333,12.333333   L 51.6,12.266667  z "
     id="path42" />
  <path
     style="fill:#000000;fill-rule:nonzero;fill-opacity:1;stroke:none;"
     d="  M 51.6,12.866667   L 51.6,12.8   L 51.533333,12.733333   L 51.466667,12.733333   L 51.4,12.8   L 51.4,13.6   L 51.4,13.666667   L 51.466667,13.733333   L 51.533333,13.733333   L 51.6,13.666667  z "
     id="path43" />
  <path
     style="fill:#000000;fill-rule:nonzero;fill-opacity:1;stroke:none;"
     d="  M 51.6,14.266667   L 51.6,14.2   L 51.533333,14.133333   L 51.466667,14.133333   L 51.4,14.2   L 51.4,15   L 51.4,15.066667   L 51.466667,15.133333   L 51.533333,15.133333   L 51.6,15.066667  z "
     id="path44" />
  <path
     style="fill:#000000;fill-rule:nonzero;fill-opacity:1;stroke:none;"
     d="  M 51.6,15.666667   L 51.6,15.6   L 51.533333,15.533333   L 51.466667,15.533333   L 51.4,15.6   L 51.4,16.4   L 51.4,16.466667   L 51.466667,16.533333   L 51.533333,16.533333   L 51.6,16.466667  z "
     id="path45" />
  <path
     style="fill:#000000;fill-rule:nonzero;fill-opacity:1;stroke:none;"
     d="  M 51.6,17.066667   L 51.6,17   L 51.533333,16.933333   L 51.466667,16.933333   L 51.4,17   L 51.4,17.8   L 51.4,17.866667   L 51.466667,17.933333   L 51.533333,17.933333   L 51.6,17.866667  z "
     id="path46" />
  <path
     style="fill:#000000;fill-rule:nonzero;fill-opacity:1;stroke:none;"
     d="  M 51.6,18.466667   L 51.6,18.4   L 51.533333,18.333333   L 51.466667,18.333333   L 51.4,18.4   L 51.4,19.2   L 51.4,19.266667   L 51.466667,19.333333   L 51.533333,19.333333   L 51.6,19.266667  z "
     id="path47" />
  <path
     style="fill:#000000;fill-rule:nonzero;fill-opacity:1;stroke:none;"
     d="  M 51.6,19.866667   L 51.6,19.8   L 51.533333,19.733333   L 51.466667,19.733333   L 51.4,19.8   L 51.4,20.266667   L 51.4,20.266667   L 51.466667,20.333333   L 51.466667,20.333333   L 51.6,20.333333  z "
     id="path48" />
  <path
     style="fill:none;stroke:none;"
     d="  M 5.2,17.2   L 16.933333,17.2   L 16.933333,23.466667   L 5.2,23.466667   z "
     id="path49" />
  <g
     clip-path="url(#clipWmfPath5)"
     id="g51">
    <text
       xml:space="preserve"
       style="font-size:2.812500px;font-style:normal;font-variant:normal;font-weight:400;font-stretch:Condensed;line-height:125.000000%;letter-spacing:0px;word-spacing:0px;fill:#000000;fill-opacity:1;stroke:none;font-family:Times New Roman;text-align:start;text-anchor:start;"
       transform="matrix(1.000000,-0.000000,0.000000,1.000000,10.400000,18.266667)"
       x="0.000000"
       y="2.506256"
       id="text51"><tspan
         sodipodi:role="line"
         x="0.000000"
         y="2.506256"
         id="tspan51"><tspan
           dx="0.000000"
           dy="0.000000"
           style="fill:#000000;font-size:2.812500px;font-style:normal;font-variant:normal;font-weight:400;font-stretch:Condensed;font-family:Times New Roman;"
           id="tspan49">7</tspan><tspan
           dx="0.000000"
           dy="0.000000"
           style="fill:#000000;font-size:2.812500px;font-style:normal;font-variant:normal;font-weight:400;font-stretch:Condensed;font-family:Times New Roman;"
           id="tspan50"> </tspan></tspan></text>
  </g>
  <path
     style="fill:none;stroke:none;"
     d="  M 16.066667,17.2   L 26.933333,17.2   L 26.933333,23.266667   L 16.066667,23.266667   z "
     id="path51" />
  <g
     clip-path="url(#clipWmfPath6)"
     id="g54">
    <text
       xml:space="preserve"
       style="font-size:2.812500px;font-style:normal;font-variant:normal;font-weight:400;font-stretch:Condensed;line-height:125.000000%;letter-spacing:0px;word-spacing:0px;fill:#000000;fill-opacity:1;stroke:none;font-family:Times New Roman;text-align:start;text-anchor:start;"
       transform="matrix(1.000000,-0.000000,0.000000,1.000000,20.800000,18.266667)"
       x="0.000000"
       y="2.506256"
       id="text54"><tspan
         sodipodi:role="line"
         x="0.000000"
         y="2.506256"
         id="tspan54"><tspan
           dx="0.000000"
           dy="0.000000"
           style="fill:#000000;font-size:2.812500px;font-style:normal;font-variant:normal;font-weight:400;font-stretch:Condensed;font-family:Times New Roman;"
           id="tspan52">8</tspan><tspan
           dx="0.000000"
           dy="0.000000"
           style="fill:#000000;font-size:2.562500px;font-style:normal;font-variant:normal;font-weight:400;font-stretch:Condensed;font-family:Times New Roman;"
           id="tspan53"> </tspan></tspan></text>
  </g>
  <path
     style="fill:none;stroke:none;"
     d="  M 28.333333,17.2   L 38,17.2   L 38,23.066667   L 28.333333,23.066667   z "
     id="path54" />
  <g
     clip-path="url(#clipWmfPath7)"
     id="g57">
    <text
       xml:space="preserve"
       style="font-size:2.812500px;font-style:normal;font-variant:normal;font-weight:400;font-stretch:Condensed;line-height:125.000000%;letter-spacing:0px;word-spacing:0px;fill:#000000;fill-opacity:1;stroke:none;font-family:Times New Roman;text-align:start;text-anchor:start;"
       transform="matrix(1.000000,-0.000000,0.000000,1.000000,32.400000,18.266667)"
       x="0.000000"
       y="2.506256"
       id="text57"><tspan
         sodipodi:role="line"
         x="0.000000"
         y="2.506256"
         id="tspan57"><tspan
           dx="0.000000"
           dy="0.000000"
           style="fill:#000000;font-size:2.812500px;font-style:normal;font-variant:normal;font-weight:400;font-stretch:Condensed;font-family:Times New Roman;"
           id="tspan55">9</tspan><tspan
           dx="0.000000"
           dy="0.000000"
           style="fill:#000000;font-size:2.562500px;font-style:normal;font-variant:normal;font-weight:400;font-stretch:Condensed;font-family:Times New Roman;"
           id="tspan56"> </tspan></tspan></text>
  </g>
  <path
     style="fill:none;stroke:none;"
     d="  M 39.4,17.2   L 51.933333,17.2   L 51.933333,24.333333   L 39.4,24.333333   z "
     id="path57" />
  <g
     clip-path="url(#clipWmfPath8)"
     id="g60">
    <text
       xml:space="preserve"
       style="font-size:2.812500px;font-style:normal;font-variant:normal;font-weight:400;font-stretch:Condensed;line-height:125.000000%;letter-spacing:0px;word-spacing:0px;fill:#000000;fill-opacity:1;stroke:none;font-family:Times New Roman;text-align:start;text-anchor:start;"
       transform="matrix(1.000000,-0.000000,0.000000,1.000000,44.933333,18.266667)"
       x="0.000000"
       y="2.506256"
       id="text60"><tspan
         sodipodi:role="line"
         x="0.000000"
         y="2.506256"
         id="tspan60"><tspan
           dx="0.000000"
           dy="0.000000"
           style="fill:#000000;font-size:2.812500px;font-style:normal;font-variant:normal;font-weight:400;font-stretch:Condensed;font-family:Times New Roman;"
           id="tspan58">0</tspan><tspan
           dx="0.000000"
           dy="0.000000"
           style="fill:#000000;font-size:2.562500px;font-style:normal;font-variant:normal;font-weight:400;font-stretch:Condensed;font-family:Times New Roman;"
           id="tspan59"> </tspan></tspan></text>
  </g>
  <path
     style="fill:none;stroke:none;"
     d="  M 50.666667,17.4   L 64.866667,17.4   L 64.866667,26   L 50.666667,26   z "
     id="path60" />
  <g
     clip-path="url(#clipWmfPath9)"
     id="g63">
    <text
       xml:space="preserve"
       style="font-size:2.812500px;font-style:normal;font-variant:normal;font-weight:400;font-stretch:Condensed;line-height:125.000000%;letter-spacing:0px;word-spacing:0px;fill:#000000;fill-opacity:1;stroke:none;font-family:Times New Roman;text-align:start;text-anchor:start;"
       transform="matrix(1.000000,-0.000000,0.000000,1.000000,57.066667,18.466667)"
       x="0.000000"
       y="2.506256"
       id="text63"><tspan
         sodipodi:role="line"
         x="0.000000"
         y="2.506256"
         id="tspan63"><tspan
           dx="0.000000"
           dy="0.000000"
           style="fill:#000000;font-size:2.812500px;font-style:normal;font-variant:normal;font-weight:400;font-stretch:Condensed;font-family:Times New Roman;"
           id="tspan61">1</tspan><tspan
           dx="0.000000"
           dy="0.000000"
           style="fill:#000000;font-size:2.562500px;font-style:normal;font-variant:normal;font-weight:400;font-stretch:Condensed;font-family:Times New Roman;"
           id="tspan62"> </tspan></tspan></text>
  </g>
  <path
     style="fill:#000000;fill-rule:nonzero;fill-opacity:1;stroke:none;"
     d="  M 62.866667,10.133333   L 62.8,10.066667   L 62.733333,10   L 62.733333,10   L 62.666667,10.066667   L 62.666667,10.8   L 62.666667,10.866667   L 62.733333,10.933333   L 62.8,10.933333   L 62.866667,10.866667  z "
     id="path63" />
  <path
     style="fill:#000000;fill-rule:nonzero;fill-opacity:1;stroke:none;"
     d="  M 62.866667,11.466667   L 62.866667,11.4   L 62.8,11.333333   L 62.733333,11.333333   L 62.666667,11.4   L 62.666667,12.2   L 62.666667,12.266667   L 62.733333,12.333333   L 62.8,12.333333   L 62.866667,12.266667  z "
     id="path64" />
  <path
     style="fill:#000000;fill-rule:nonzero;fill-opacity:1;stroke:none;"
     d="  M 62.866667,12.866667   L 62.866667,12.8   L 62.8,12.733333   L 62.733333,12.733333   L 62.666667,12.8   L 62.666667,13.6   L 62.666667,13.666667   L 62.733333,13.733333   L 62.8,13.733333   L 62.866667,13.666667  z "
     id="path65" />
  <path
     style="fill:#000000;fill-rule:nonzero;fill-opacity:1;stroke:none;"
     d="  M 62.866667,14.266667   L 62.866667,14.2   L 62.8,14.133333   L 62.733333,14.133333   L 62.666667,14.2   L 62.666667,15   L 62.666667,15.066667   L 62.733333,15.133333   L 62.8,15.133333   L 62.866667,15.066667  z "
     id="path66" />
  <path
     style="fill:#000000;fill-rule:nonzero;fill-opacity:1;stroke:none;"
     d="  M 62.866667,15.666667   L 62.866667,15.6   L 62.8,15.533333   L 62.733333,15.533333   L 62.666667,15.6   L 62.666667,16.4   L 62.666667,16.466667   L 62.733333,16.533333   L 62.8,16.533333   L 62.866667,16.466667  z "
     id="path67" />
  <path
     style="fill:#000000;fill-rule:nonzero;fill-opacity:1;stroke:none;"
     d="  M 62.866667,17.066667   L 62.866667,17   L 62.8,16.933333   L 62.733333,16.933333   L 62.666667,17   L 62.666667,17.8   L 62.666667,17.866667   L 62.733333,17.933333   L 62.8,17.933333   L 62.866667,17.866667  z "
     id="path68" />
  <path
     style="fill:#000000;fill-rule:nonzero;fill-opacity:1;stroke:none;"
     d="  M 62.866667,18.466667   L 62.866667,18.4   L 62.8,18.333333   L 62.733333,18.333333   L 62.666667,18.4   L 62.666667,19.2   L 62.666667,19.266667   L 62.733333,19.333333   L 62.8,19.333333   L 62.866667,19.266667  z "
     id="path69" />
  <path
     style="fill:#000000;fill-rule:nonzero;fill-opacity:1;stroke:none;"
     d="  M 62.866667,19.866667   L 62.866667,19.8   L 62.8,19.733333   L 62.733333,19.733333   L 62.666667,19.8   L 62.666667,20.266667   L 62.666667,20.266667   L 62.733333,20.333333   L 62.733333,20.333333   L 62.866667,20.333333  z "
     id="path70" />
  <path
     style="fill:#000000;fill-rule:nonzero;fill-opacity:1;stroke:none;"
     d="  M 39.466667,10.333333   L 39.4,10.266667   L 39.333333,10.2   L 39.333333,10.2   L 39.266667,10.266667   L 39.266667,11   L 39.266667,11.066667   L 39.333333,11.133333   L 39.4,11.133333   L 39.466667,11.066667  z "
     id="path71" />
  <path
     style="fill:#000000;fill-rule:nonzero;fill-opacity:1;stroke:none;"
     d="  M 39.466667,11.666667   L 39.466667,11.6   L 39.4,11.533333   L 39.333333,11.533333   L 39.266667,11.6   L 39.266667,12.4   L 39.266667,12.466667   L 39.333333,12.533333   L 39.4,12.533333   L 39.466667,12.466667  z "
     id="path72" />
  <path
     style="fill:#000000;fill-rule:nonzero;fill-opacity:1;stroke:none;"
     d="  M 39.466667,13.066667   L 39.466667,13   L 39.4,12.933333   L 39.333333,12.933333   L 39.266667,13   L 39.266667,13.8   L 39.266667,13.866667   L 39.333333,13.933333   L 39.4,13.933333   L 39.466667,13.866667  z "
     id="path73" />
  <path
     style="fill:#000000;fill-rule:nonzero;fill-opacity:1;stroke:none;"
     d="  M 39.466667,14.466667   L 39.466667,14.4   L 39.4,14.333333   L 39.333333,14.333333   L 39.266667,14.4   L 39.266667,15.2   L 39.266667,15.266667   L 39.333333,15.333333   L 39.4,15.333333   L 39.466667,15.266667  z "
     id="path74" />
  <path
     style="fill:#000000;fill-rule:nonzero;fill-opacity:1;stroke:none;"
     d="  M 39.466667,15.866667   L 39.466667,15.8   L 39.4,15.733333   L 39.333333,15.733333   L 39.266667,15.8   L 39.266667,16.6   L 39.266667,16.666667   L 39.333333,16.733333   L 39.4,16.733333   L 39.466667,16.666667  z "
     id="path75" />
  <path
     style="fill:#000000;fill-rule:nonzero;fill-opacity:1;stroke:none;"
     d="  M 39.466667,17.266667   L 39.466667,17.2   L 39.4,17.133333   L 39.333333,17.133333   L 39.266667,17.2   L 39.266667,18   L 39.266667,18.066667   L 39.333333,18.133333   L 39.4,18.133333   L 39.466667,18.066667  z "
     id="path76" />
  <path
     style="fill:#000000;fill-rule:nonzero;fill-opacity:1;stroke:none;"
     d="  M 39.466667,18.666667   L 39.466667,18.6   L 39.4,18.533333   L 39.333333,18.533333   L 39.266667,18.6   L 39.266667,19.4   L 39.266667,19.466667   L 39.333333,19.533333   L 39.4,19.533333   L 39.466667,19.466667  z "
     id="path77" />
  <path
     style="fill:#000000;fill-rule:nonzero;fill-opacity:1;stroke:none;"
     d="  M 16.4,10.333333   L 16.333333,10.266667   L 16.266667,10.2   L 16.266667,10.2   L 16.2,10.266667   L 16.2,11   L 16.2,11.066667   L 16.266667,11.133333   L 16.333333,11.133333   L 16.4,11.066667  z "
     id="path78" />
  <path
     style="fill:#000000;fill-rule:nonzero;fill-opacity:1;stroke:none;"
     d="  M 16.4,11.666667   L 16.4,11.6   L 16.333333,11.533333   L 16.266667,11.533333   L 16.2,11.6   L 16.2,12.4   L 16.2,12.466667   L 16.266667,12.533333   L 16.333333,12.533333   L 16.4,12.466667  z "
     id="path79" />
  <path
     style="fill:#000000;fill-rule:nonzero;fill-opacity:1;stroke:none;"
     d="  M 16.4,13.066667   L 16.4,13   L 16.333333,12.933333   L 16.266667,12.933333   L 16.2,13   L 16.2,13.8   L 16.2,13.866667   L 16.266667,13.933333   L 16.333333,13.933333   L 16.4,13.866667  z "
     id="path80" />
  <path
     style="fill:#000000;fill-rule:nonzero;fill-opacity:1;stroke:none;"
     d="  M 16.4,14.466667   L 16.4,14.4   L 16.333333,14.333333   L 16.266667,14.333333   L 16.2,14.4   L 16.2,15.2   L 16.2,15.266667   L 16.266667,15.333333   L 16.333333,15.333333   L 16.4,15.266667  z "
     id="path81" />
  <path
     style="fill:#000000;fill-rule:nonzero;fill-opacity:1;stroke:none;"
     d="  M 16.4,15.866667   L 16.4,15.8   L 16.333333,15.733333   L 16.266667,15.733333   L 16.2,15.8   L 16.2,16.6   L 16.2,16.666667   L 16.266667,16.733333   L 16.333333,16.733333   L 16.4,16.666667  z "
     id="path82" />
  <path
     style="fill:#000000;fill-rule:nonzero;fill-opacity:1;stroke:none;"
     d="  M 16.4,17.266667   L 16.4,17.2   L 16.333333,17.133333   L 16.266667,17.133333   L 16.2,17.2   L 16.2,18   L 16.2,18.066667   L 16.266667,18.133333   L 16.333333,18.133333   L 16.4,18.066667  z "
     id="path83" />
  <path
     style="fill:#000000;fill-rule:nonzero;fill-opacity:1;stroke:none;"
     d="  M 16.4,18.666667   L 16.4,18.6   L 16.333333,18.533333   L 16.266667,18.533333   L 16.2,18.6   L 16.2,19.4   L 16.2,19.466667   L 16.266667,19.533333   L 16.333333,19.533333   L 16.4,19.466667  z "
     id="path84" />
</svg>
