<?xml version="1.0" encoding="UTF-8" standalone="no"?>
<svg
   version="1.0"
   width="323" height="195" viewBox="0 0 61.133 36.933"
  
   id="svg49"
   sodipodi:docname="abb-42.wmf"
   xmlns:inkscape="http://www.inkscape.org/namespaces/inkscape"
   xmlns:sodipodi="http://sodipodi.sourceforge.net/DTD/sodipodi-0.dtd"
   xmlns="http://www.w3.org/2000/svg"
   xmlns:svg="http://www.w3.org/2000/svg">
  <sodipodi:namedview
     id="namedview49"
     pagecolor="#ffffff"
     bordercolor="#000000"
     borderopacity="0.25"
     inkscape:showpageshadow="2"
     inkscape:pageopacity="0.0"
     inkscape:pagecheckerboard="0"
     inkscape:deskcolor="#d1d1d1"
     inkscape:document-units="mm" />
  <defs
     id="defs6">
    <clipPath
       clipPathUnits="userSpaceOnUse"
       id="clipWmfPath1">
      <path
         d="M 27.533333,0.86666667 L 32.8,0.86666667 L 32.8,5.9333333 L 27.533333,5.9333333 z"
         id="path1" />
    </clipPath>
    <clipPath
       clipPathUnits="userSpaceOnUse"
       id="clipWmfPath2">
      <path
         d="M 27.8,30.666667 L 33,30.666667 L 33,35.733333 L 27.8,35.733333 z"
         id="path2" />
    </clipPath>
    <clipPath
       clipPathUnits="userSpaceOnUse"
       id="clipWmfPath3">
      <path
         d="M 50.266667,12.533333 L 58.8,12.533333 L 58.8,17.6 L 50.266667,17.6 z"
         id="path3" />
    </clipPath>
    <clipPath
       clipPathUnits="userSpaceOnUse"
       id="clipWmfPath4">
      <path
         d="M 1.9333333,15.866667 L 7.1333333,15.866667 L 7.1333333,20.933333 L 1.9333333,20.933333 z"
         id="path4" />
    </clipPath>
    <clipPath
       clipPathUnits="userSpaceOnUse"
       id="clipWmfPath5">
      <path
         d="M 1.9333333,12.333333 L 7.1333333,12.333333 L 7.1333333,17.4 L 1.9333333,17.4 z"
         id="path5" />
    </clipPath>
    <clipPath
       clipPathUnits="userSpaceOnUse"
       id="clipWmfPath6">
      <path
         d="M 50.466667,19.6 L 59.066667,19.6 L 59.066667,24.733333 L 50.466667,24.733333 z"
         id="path6" />
    </clipPath>
    <pattern
       id="WMFhbasepattern"
       patternUnits="userSpaceOnUse"
       width="6"
       height="6"
       x="0"
       y="0" />
  </defs>
  <text
     xml:space="preserve"
     style="font-size:2.812500px;font-style:normal;font-variant:normal;font-weight:400;font-stretch:Condensed;line-height:125.000000%;letter-spacing:0px;word-spacing:0px;fill:#000000;fill-opacity:1;stroke:none;font-family:Times New Roman;text-align:start;text-anchor:start;"
     transform="matrix(1.000000,-0.000000,0.000000,1.000000,0.000000,-0.133333)"
     x="0.000000"
     y="2.506256"
     id="text7"><tspan
       sodipodi:role="line"
       x="0.000000"
       y="2.506256"
       id="tspan7"><tspan
         dx="0.000000"
         dy="0.000000"
         style="fill:#000000;font-size:2.812500px;font-style:normal;font-variant:normal;font-weight:400;font-stretch:Condensed;font-family:Times New Roman;"
         id="tspan6"> </tspan></tspan></text>
  <path
     style="fill:#ffffff;fill-rule:evenodd;fill-opacity:1;stroke:#000000;stroke-width:0.2px;stroke-linecap:round;stroke-linejoin:round;stroke-miterlimit:4;stroke-dasharray:none;stroke-opacity:1;"
     d="  M 18.066667,11.2   L 40.6,11.2   L 40.6,25   L 18.066667,25   z "
     id="path7" />
  <path
     style="fill:#000000;fill-rule:nonzero;fill-opacity:1;stroke:none;"
     d="  M 20,18   L 19.933333,18   L 19.866667,18.066667   L 19.866667,18.066667   L 19.933333,18.2   L 20.666667,18.2   L 20.733333,18.2   L 20.8,18.133333   L 20.8,18.066667   L 20.733333,18  z "
     id="path8" />
  <path
     style="fill:#000000;fill-rule:nonzero;fill-opacity:1;stroke:none;"
     d="  M 21.333333,18   L 21.266667,18   L 21.2,18.066667   L 21.2,18.133333   L 21.266667,18.2   L 22.066667,18.2   L 22.133333,18.2   L 22.2,18.133333   L 22.2,18.066667   L 22.133333,18  z "
     id="path9" />
  <path
     style="fill:#000000;fill-rule:nonzero;fill-opacity:1;stroke:none;"
     d="  M 22.733333,18   L 22.666667,18   L 22.6,18.066667   L 22.6,18.133333   L 22.666667,18.2   L 23.466667,18.2   L 23.533333,18.2   L 23.6,18.133333   L 23.6,18.066667   L 23.533333,18  z "
     id="path10" />
  <path
     style="fill:#000000;fill-rule:nonzero;fill-opacity:1;stroke:none;"
     d="  M 24.133333,18   L 24.066667,18   L 24,18.066667   L 24,18.133333   L 24.066667,18.2   L 24.866667,18.2   L 24.933333,18.2   L 25,18.133333   L 25,18.066667   L 24.933333,18  z "
     id="path11" />
  <path
     style="fill:#000000;fill-rule:nonzero;fill-opacity:1;stroke:none;"
     d="  M 25.533333,18   L 25.466667,18   L 25.4,18.066667   L 25.4,18.133333   L 25.466667,18.2   L 26.266667,18.2   L 26.333333,18.2   L 26.4,18.133333   L 26.4,18.066667   L 26.333333,18  z "
     id="path12" />
  <path
     style="fill:#000000;fill-rule:nonzero;fill-opacity:1;stroke:none;"
     d="  M 26.933333,18   L 26.866667,18   L 26.8,18.066667   L 26.8,18.133333   L 26.866667,18.2   L 27.666667,18.2   L 27.733333,18.2   L 27.8,18.133333   L 27.8,18.066667   L 27.733333,18  z "
     id="path13" />
  <path
     style="fill:#000000;fill-rule:nonzero;fill-opacity:1;stroke:none;"
     d="  M 28.333333,18   L 28.266667,18   L 28.2,18.066667   L 28.2,18.133333   L 28.266667,18.2   L 29.066667,18.2   L 29.133333,18.2   L 29.2,18.133333   L 29.2,18.066667   L 29.133333,18  z "
     id="path14" />
  <path
     style="fill:#000000;fill-rule:nonzero;fill-opacity:1;stroke:none;"
     d="  M 29.733333,18   L 29.666667,18   L 29.6,18.066667   L 29.6,18.133333   L 29.666667,18.2   L 30.466667,18.2   L 30.533333,18.2   L 30.6,18.133333   L 30.6,18.066667   L 30.533333,18  z "
     id="path15" />
  <path
     style="fill:#000000;fill-rule:nonzero;fill-opacity:1;stroke:none;"
     d="  M 31.133333,18   L 31.066667,18   L 31,18.066667   L 31,18.133333   L 31.066667,18.2   L 31.866667,18.2   L 31.933333,18.2   L 32,18.133333   L 32,18.066667   L 31.933333,18  z "
     id="path16" />
  <path
     style="fill:#000000;fill-rule:nonzero;fill-opacity:1;stroke:none;"
     d="  M 32.533333,18   L 32.466667,18   L 32.4,18.066667   L 32.4,18.133333   L 32.466667,18.2   L 33.266667,18.2   L 33.333333,18.2   L 33.4,18.133333   L 33.4,18.066667   L 33.333333,18  z "
     id="path17" />
  <path
     style="fill:#000000;fill-rule:nonzero;fill-opacity:1;stroke:none;"
     d="  M 33.933333,18   L 33.866667,18   L 33.8,18.066667   L 33.8,18.133333   L 33.866667,18.2   L 34.666667,18.2   L 34.733333,18.2   L 34.8,18.133333   L 34.8,18.066667   L 34.733333,18  z "
     id="path18" />
  <path
     style="fill:#000000;fill-rule:nonzero;fill-opacity:1;stroke:none;"
     d="  M 35.333333,18   L 35.266667,18   L 35.2,18.066667   L 35.2,18.133333   L 35.266667,18.2   L 36.066667,18.2   L 36.133333,18.2   L 36.2,18.133333   L 36.2,18.066667   L 36.133333,18  z "
     id="path19" />
  <path
     style="fill:#000000;fill-rule:nonzero;fill-opacity:1;stroke:none;"
     d="  M 36.733333,18   L 36.666667,18   L 36.6,18.066667   L 36.6,18.133333   L 36.666667,18.2   L 37.466667,18.2   L 37.533333,18.2   L 37.6,18.133333   L 37.6,18.066667   L 37.533333,18  z "
     id="path20" />
  <path
     style="fill:#000000;fill-rule:nonzero;fill-opacity:1;stroke:none;"
     d="  M 38.133333,18   L 38.066667,18   L 38,18.066667   L 38,18.133333   L 38.066667,18.2   L 38.866667,18.2   L 38.933333,18.2   L 39,18.133333   L 39,18.066667   L 38.933333,18  z "
     id="path21" />
  <path
     style="fill:#000000;fill-rule:nonzero;fill-opacity:1;stroke:none;"
     d="  M 39.533333,18   L 39.466667,18   L 39.4,18.066667   L 39.4,18.133333   L 39.466667,18.2   L 40.266667,18.2   L 40.333333,18.2   L 40.4,18.133333   L 40.4,18.066667   L 40.333333,18  z "
     id="path22" />
  <path
     style="fill:#000000;fill-rule:evenodd;fill-opacity:1;stroke:#000000;stroke-width:0.2px;stroke-linecap:round;stroke-linejoin:round;stroke-miterlimit:4;stroke-dasharray:none;stroke-opacity:1;"
     d="  M 37.2,18.066667   L 40.6,18.066667   L 40.6,25   L 37.2,25   z "
     id="path23" />
  <ellipse
     style="fill:#ffffff;fill-rule:evenodd;fill-opacity:1;stroke:#000000;stroke-width:0.2px;stroke-linecap:round;stroke-linejoin:round;stroke-miterlimit:4;stroke-dasharray:none;stroke-opacity:1;"
     cx="28.733333"
     cy="6"
     rx="0.53333333"
     ry="0.53333333"
     id="ellipse23" />
  <path
     style="fill:none;stroke:#000000;stroke-width:0.2px;stroke-linecap:round;stroke-linejoin:round;stroke-miterlimit:4;stroke-dasharray:none;stroke-opacity:1;"
     d="  M 28.666667,11.133333   L 28.666667,6.6  "
     id="path24" />
  <path
     style="fill:none;stroke:#000000;stroke-width:0.2px;stroke-linecap:round;stroke-linejoin:round;stroke-miterlimit:4;stroke-dasharray:none;stroke-opacity:1;"
     d="  M 28.866667,29.466667   L 28.866667,24.933333  "
     id="path25" />
  <ellipse
     style="fill:#ffffff;fill-rule:evenodd;fill-opacity:1;stroke:#000000;stroke-width:0.2px;stroke-linecap:round;stroke-linejoin:round;stroke-miterlimit:4;stroke-dasharray:none;stroke-opacity:1;"
     cx="28.8"
     cy="29.6"
     rx="0.53333333"
     ry="0.53333333"
     id="ellipse25" />
  <path
     style="fill:none;stroke:#000000;stroke-width:0.2px;stroke-linecap:round;stroke-linejoin:round;stroke-miterlimit:4;stroke-dasharray:none;stroke-opacity:1;"
     d="  M 40.533333,14.733333   L 47.866667,14.733333  "
     id="path26" />
  <path
     style="fill:none;stroke:#000000;stroke-width:0.2px;stroke-linecap:round;stroke-linejoin:round;stroke-miterlimit:4;stroke-dasharray:none;stroke-opacity:1;"
     d="  M 40.533333,21.6   L 47.866667,21.6  "
     id="path27" />
  <ellipse
     style="fill:#ffffff;fill-rule:evenodd;fill-opacity:1;stroke:#000000;stroke-width:0.2px;stroke-linecap:round;stroke-linejoin:round;stroke-miterlimit:4;stroke-dasharray:none;stroke-opacity:1;"
     cx="48.6"
     cy="21.7"
     rx="0.53333333"
     ry="0.5"
     id="ellipse27" />
  <ellipse
     style="fill:#ffffff;fill-rule:evenodd;fill-opacity:1;stroke:#000000;stroke-width:0.2px;stroke-linecap:round;stroke-linejoin:round;stroke-miterlimit:4;stroke-dasharray:none;stroke-opacity:1;"
     cx="48.6"
     cy="14.6"
     rx="0.53333333"
     ry="0.53333333"
     id="ellipse28" />
  <path
     style="fill:none;stroke:none;"
     d="  M 25.533333,-0.066666667   L 34.8,-0.066666667   L 34.8,7.0666667   L 25.533333,7.0666667   z "
     id="path28" />
  <g
     clip-path="url(#clipWmfPath1)"
     id="g30">
    <text
       xml:space="preserve"
       style="font-size:2.812500px;font-style:normal;font-variant:normal;font-weight:400;font-stretch:Condensed;line-height:125.000000%;letter-spacing:0px;word-spacing:0px;fill:#000000;fill-opacity:1;stroke:none;font-family:Times New Roman;text-align:start;text-anchor:start;"
       transform="matrix(1.000000,-0.000000,0.000000,1.000000,27.533333,0.933333)"
       x="0.000000"
       y="2.506256"
       id="text30"><tspan
         sodipodi:role="line"
         x="0.000000"
         y="2.506256"
         id="tspan30"><tspan
           dx="0.000000"
           dy="0.000000"
           style="fill:#000000;font-size:2.812500px;font-style:normal;font-variant:normal;font-weight:400;font-stretch:Condensed;font-family:Times New Roman;"
           id="tspan28">S</tspan><tspan
           dx="0.000000"
           dy="0.000000"
           style="fill:#000000;font-size:2.812500px;font-style:normal;font-variant:normal;font-weight:400;font-stretch:Condensed;font-family:Times New Roman;"
           id="tspan29"> </tspan></tspan></text>
  </g>
  <path
     style="fill:none;stroke:none;"
     d="  M 25.733333,29.733333   L 35,29.733333   L 35,36.866667   L 25.733333,36.866667   z "
     id="path30" />
  <g
     clip-path="url(#clipWmfPath2)"
     id="g33">
    <text
       xml:space="preserve"
       style="font-size:2.812500px;font-style:normal;font-variant:normal;font-weight:400;font-stretch:Condensed;line-height:125.000000%;letter-spacing:0px;word-spacing:0px;fill:#000000;fill-opacity:1;stroke:none;font-family:Times New Roman;text-align:start;text-anchor:start;"
       transform="matrix(1.000000,-0.000000,0.000000,1.000000,27.800000,30.733333)"
       x="0.000000"
       y="2.506256"
       id="text33"><tspan
         sodipodi:role="line"
         x="0.000000"
         y="2.506256"
         id="tspan33"><tspan
           dx="0.000000"
           dy="0.000000"
           style="fill:#000000;font-size:2.812500px;font-style:normal;font-variant:normal;font-weight:400;font-stretch:Condensed;font-family:Times New Roman;"
           id="tspan31">R</tspan><tspan
           dx="0.000000"
           dy="0.000000"
           style="fill:#000000;font-size:2.812500px;font-style:normal;font-variant:normal;font-weight:400;font-stretch:Condensed;font-family:Times New Roman;"
           id="tspan32"> </tspan></tspan></text>
  </g>
  <path
     style="fill:none;stroke:none;"
     d="  M 48.266667,11.6   L 60.8,11.6   L 60.8,18.733333   L 48.266667,18.733333   z "
     id="path33" />
  <g
     clip-path="url(#clipWmfPath3)"
     id="g36">
    <text
       xml:space="preserve"
       style="font-size:2.812500px;font-style:normal;font-variant:normal;font-weight:400;font-stretch:Condensed;line-height:125.000000%;letter-spacing:0px;word-spacing:0px;fill:#000000;fill-opacity:1;stroke:none;font-family:Times New Roman;text-align:start;text-anchor:start;"
       transform="matrix(1.000000,-0.000000,0.000000,1.000000,50.266667,12.600000)"
       x="0.000000"
       y="2.506256"
       id="text36"><tspan
         sodipodi:role="line"
         x="0.000000"
         y="2.506256"
         id="tspan36"><tspan
           dx="0.000000"
           dy="0.000000"
           style="fill:#000000;font-size:2.812500px;font-style:normal;font-variant:normal;font-weight:400;font-stretch:Condensed;font-family:Times New Roman;"
           id="tspan34">Q</tspan><tspan
           dx="0.000000"
           dy="0.000000"
           style="fill:#000000;font-size:2.812500px;font-style:normal;font-variant:normal;font-weight:400;font-stretch:Condensed;font-family:Times New Roman;"
           id="tspan35"> </tspan></tspan></text>
  </g>
  <path
     style="fill:none;stroke:#000000;stroke-width:0.2px;stroke-linecap:round;stroke-linejoin:round;stroke-miterlimit:4;stroke-dasharray:none;stroke-opacity:1;"
     d="  M 19.933333,11.133333   L 19.933333,24.933333  "
     id="path36" />
  <path
     style="fill:#000000;fill-rule:evenodd;fill-opacity:1;stroke:#000000;stroke-width:0.2px;stroke-linecap:round;stroke-linejoin:round;stroke-miterlimit:4;stroke-dasharray:none;stroke-opacity:1;"
     d="  M 20.2,18.066667   L 18.266667,16.933333   L 18.133333,18.933333  z "
     id="path37" />
  <path
     style="fill:none;stroke:#000000;stroke-width:0.2px;stroke-linecap:round;stroke-linejoin:round;stroke-miterlimit:4;stroke-dasharray:none;stroke-opacity:1;"
     d="  M 18.066667,18.066667   L 5.7333333,18.066667  "
     id="path38" />
  <ellipse
     style="fill:#ffffff;fill-rule:evenodd;fill-opacity:1;stroke:#000000;stroke-width:0.2px;stroke-linecap:round;stroke-linejoin:round;stroke-miterlimit:4;stroke-dasharray:none;stroke-opacity:1;"
     cx="5.2666667"
     cy="17.933333"
     rx="0.53333333"
     ry="0.53333333"
     id="ellipse38" />
  <path
     style="fill:none;stroke:none;"
     d="  M -0.066666667,14.933333   L 9.1333333,14.933333   L 9.1333333,22.066667   L -0.066666667,22.066667   z "
     id="path39" />
  <g
     clip-path="url(#clipWmfPath4)"
     id="g41">
    <text
       xml:space="preserve"
       style="font-size:2.812500px;font-style:normal;font-variant:normal;font-weight:400;font-stretch:Condensed;line-height:125.000000%;letter-spacing:0px;word-spacing:0px;fill:#000000;fill-opacity:1;stroke:none;font-family:Times New Roman;text-align:start;text-anchor:start;"
       transform="matrix(1.000000,-0.000000,0.000000,1.000000,1.933333,15.933333)"
       x="0.000000"
       y="2.506256"
       id="text41"><tspan
         sodipodi:role="line"
         x="0.000000"
         y="2.506256"
         id="tspan41"><tspan
           dx="0.000000"
           dy="0.000000"
           style="fill:#000000;font-size:2.812500px;font-style:normal;font-variant:normal;font-weight:400;font-stretch:Condensed;font-family:Times New Roman;"
           id="tspan39">T</tspan><tspan
           dx="0.000000"
           dy="0.000000"
           style="fill:#000000;font-size:2.812500px;font-style:normal;font-variant:normal;font-weight:400;font-stretch:Condensed;font-family:Times New Roman;"
           id="tspan40"> </tspan></tspan></text>
  </g>
  <path
     style="fill:none;stroke:#000000;stroke-width:0.2px;stroke-linecap:round;stroke-linejoin:round;stroke-miterlimit:4;stroke-dasharray:none;stroke-opacity:1;"
     d="  M 18.066667,14.266667   L 5.7333333,14.266667  "
     id="path41" />
  <ellipse
     style="fill:#ffffff;fill-rule:evenodd;fill-opacity:1;stroke:#000000;stroke-width:0.2px;stroke-linecap:round;stroke-linejoin:round;stroke-miterlimit:4;stroke-dasharray:none;stroke-opacity:1;"
     cx="5.2666667"
     cy="14.2"
     rx="0.53333333"
     ry="0.53333333"
     id="ellipse41" />
  <path
     style="fill:none;stroke:none;"
     d="  M -0.066666667,11.4   L 9.1333333,11.4   L 9.1333333,18.533333   L -0.066666667,18.533333   z "
     id="path42" />
  <g
     clip-path="url(#clipWmfPath5)"
     id="g44">
    <text
       xml:space="preserve"
       style="font-size:2.812500px;font-style:normal;font-variant:normal;font-weight:400;font-stretch:Condensed;line-height:125.000000%;letter-spacing:0px;word-spacing:0px;fill:#000000;fill-opacity:1;stroke:none;font-family:Times New Roman;text-align:start;text-anchor:start;"
       transform="matrix(1.000000,-0.000000,0.000000,1.000000,1.933333,12.400000)"
       x="0.000000"
       y="2.506256"
       id="text44"><tspan
         sodipodi:role="line"
         x="0.000000"
         y="2.506256"
         id="tspan44"><tspan
           dx="0.000000"
           dy="0.000000"
           style="fill:#000000;font-size:2.812500px;font-style:normal;font-variant:normal;font-weight:400;font-stretch:Condensed;font-family:Times New Roman;"
           id="tspan42">D</tspan><tspan
           dx="0.000000"
           dy="0.000000"
           style="fill:#000000;font-size:2.812500px;font-style:normal;font-variant:normal;font-weight:400;font-stretch:Condensed;font-family:Times New Roman;"
           id="tspan43"> </tspan></tspan></text>
  </g>
  <path
     style="fill:#000000;fill-rule:nonzero;fill-opacity:1;stroke:none;"
     d="  M 39.4,12.8   L 38.8,12.8   L 38.8,16.8   L 39.4,16.8  z "
     id="path44" />
  <path
     style="fill:#000000;fill-rule:nonzero;fill-opacity:1;stroke:none;"
     d="  M 39.266667,12.933333   L 39.266667,12.333333   L 36.6,12.333333   L 36.6,12.933333  z "
     id="path45" />
  <path
     style="fill:none;stroke:none;"
     d="  M 48.466667,18.666667   L 61.066667,18.666667   L 61.066667,25.8   L 48.466667,25.8   z "
     id="path46" />
  <g
     clip-path="url(#clipWmfPath6)"
     id="g49">
    <text
       xml:space="preserve"
       style="font-size:2.812500px;font-style:normal;font-variant:normal;font-weight:400;font-stretch:Normal;line-height:125.000000%;letter-spacing:0px;word-spacing:0px;fill:#000000;fill-opacity:1;stroke:none;font-family:Lucida Console;text-align:start;text-anchor:start;"
       transform="matrix(1.000000,-0.000000,0.000000,1.000000,50.466667,20.000000)"
       x="0.000000"
       y="2.827606"
       id="text49"><tspan
         sodipodi:role="line"
         x="0.000000"
         y="2.827606"
         id="tspan49"><tspan
           dx="0.000000"
           dy="0.000000"
           style="fill:#000000;font-size:2.812500px;font-style:normal;font-variant:normal;font-weight:400;font-stretch:Normal;font-family:Lucida Console;"
           id="tspan46">¬</tspan><tspan
           dx="-0.634969"
           dy="-0.654683"
           style="fill:#000000;font-size:2.812500px;font-style:normal;font-variant:normal;font-weight:400;font-stretch:Condensed;font-family:Times New Roman;"
           id="tspan47">Q</tspan><tspan
           dx="0.000000"
           dy="0.000000"
           style="fill:#000000;font-size:2.812500px;font-style:normal;font-variant:normal;font-weight:400;font-stretch:Condensed;font-family:Times New Roman;"
           id="tspan48"> </tspan></tspan></text>
  </g>
</svg>
