<?xml version="1.0" encoding="UTF-8"?>
<svg width="55px" height="55px" viewBox="0 0 55 55" version="1.1" xmlns="http://www.w3.org/2000/svg" xmlns:xlink="http://www.w3.org/1999/xlink">
    <title>app_coffee</title>
    <g id="app_coffee" stroke="none" stroke-width="1" fill="none" fill-rule="evenodd">
        <path d="M33.8567429,9.7416954 C30.8708064,10.1093699 27.6928596,10.2932072 24.3229027,10.2932072 C19.2679672,10.2932072 14.0313806,8.80141871 14.9928131,7.46334839 C15.9542457,6.12527807 22.9614361,5.7092514 27.5781097,5.7092514 C32.1947834,5.7092514 36.2528992,6.90035629 36.6320877,7.46334839 C37.0112762,8.02634048 37.9080102,12.1919824 38.2362366,12.7981796 C38.564463,13.4043768 39.9473953,12.7769966 40.3320847,13.5544434 C40.716774,14.3318901 41.8123245,16.9848099 41.8123245,18.2711716 C41.8123245,19.5575333 33.3257493,20.7313843 25.8776932,20.7313843 C18.429637,20.7313843 11.0290375,19.5115929 11.0290375,18.2711716 C11.0290375,17.0307503 11.8722534,14.6307068 12.4274597,13.5544434 C12.982666,12.4781799 16.5329094,14.9442253 25.8776932,14.9442253 C32.107549,14.9442253 36.8035202,14.4809647 39.9656067,13.5544434" id="Path-5" stroke="#424242" stroke-width="2" stroke-linecap="round"></path>
        <path d="M37.7939987,19.9195843 L35.0323309,46.7144927 C34.8221204,48.7540472 33.1037675,50.3043976 31.0534087,50.3043976 L21.5929639,50.3043976 C19.5492648,50.3043976 17.8342406,48.7638092 17.6158647,46.7318107 L15.1478271,23.7666035 L15.1478271,23.7666035" id="Path-6" stroke="#424242" stroke-width="2" stroke-linecap="round"></path>
        <path d="M18.2062035,26.8570824 C21.2624372,28.0360451 24.0173403,27.802639 26.4709129,26.1568642 C28.9244855,24.5110893 31.6176097,24.06987 34.5502853,24.8332062 L32.7643634,44.5058046 C32.6240686,46.051204 31.328404,47.2345734 29.7766496,47.2345734 L23.1471589,47.2345734 C21.6179781,47.2345734 20.3335166,46.0843872 20.1653539,44.5644809 L18.2062035,26.8570824 L18.2062035,26.8570824 Z" id="Path-7" fill="#C71D3D"></path>
    </g>
</svg>