<?xml version="1.0" encoding="UTF-8"?>
<svg width="55px" height="55px" viewBox="0 0 55 55" version="1.1" xmlns="http://www.w3.org/2000/svg" xmlns:xlink="http://www.w3.org/1999/xlink">
    <title>app_legal</title>
    <g id="app_legal" stroke="none" stroke-width="1" fill="none" fill-rule="evenodd">
        <path d="M14.8789062,7.82519531 L38.8789062,7.82519531 C40.5357605,7.82519531 41.8789062,9.16834106 41.8789062,10.8251953 L41.8789062,38.3370361 L41.8789062,38.3370361 L35.1061401,45.8251953 L14.8789062,45.8251953 C13.222052,45.8251953 11.8789062,44.4820496 11.8789062,42.8251953 L11.8789062,10.8251953 C11.8789062,9.16834106 13.222052,7.82519531 14.8789062,7.82519531 Z" id="Rectangle" stroke="#4A4A4A" stroke-width="2"></path>
        <line x1="32.5" y1="37.5" x2="17.5" y2="37.5" id="Line" stroke="#4A4A4A" stroke-linecap="round"></line>
        <path d="M41.5,38.5 L36.6510239,38.5 C35.5464544,38.5 34.6510239,39.3954305 34.6510239,40.5 L34.6510239,45.8251953 L34.6510239,45.8251953" id="Line" stroke="#4A4A4A" stroke-width="2" stroke-linecap="round"></path>
        <line x1="31.5" y1="31.5" x2="23.5" y2="31.5" id="Line" stroke="#4A4A4A" stroke-linecap="round"></line>
        <line x1="33.5" y1="11.5" x2="20.5" y2="11.5" id="Line" stroke="#4A4A4A" stroke-linecap="round"></line>
        <line x1="27.5" y1="11.5" x2="27.5" y2="31.5" id="Line" stroke="#4A4A4A" stroke-linecap="square"></line>
        <line x1="25.5" y1="40.5" x2="17.5" y2="40.5" id="Line" stroke="#4A4A4A" stroke-linecap="round"></line>
        <g id="Group" transform="translate(17.000000, 13.240662)" stroke="#4A4A4A">
            <line x1="0.5" y1="9.25933838" x2="6.5" y2="9.25933838" id="Line-2" stroke-linecap="square"></line>
            <path d="M3.5,12.7593384 C5.43299662,12.7593384 7,11.4161926 7,9.75933838 C7,8.65476888 5.83333333,5.40165609 3.5,0 C1.16666667,5.40165609 0,8.65476888 0,9.75933838 C0,11.4161926 1.56700338,12.7593384 3.5,12.7593384 Z" id="Oval"></path>
        </g>
        <g id="Group" transform="translate(30.000000, 13.240662)" stroke="#4A4A4A">
            <line x1="0.5" y1="9.25933838" x2="6.5" y2="9.25933838" id="Line-2" stroke-linecap="square"></line>
            <path d="M3.5,12.7593384 C5.43299662,12.7593384 7,11.4161926 7,9.75933838 C7,8.65476888 5.83333333,5.40165609 3.5,0 C1.16666667,5.40165609 0,8.65476888 0,9.75933838 C0,11.4161926 1.56700338,12.7593384 3.5,12.7593384 Z" id="Oval"></path>
        </g>
    </g>
</svg>