<?xml version="1.0" encoding="UTF-8"?>
<svg width="55px" height="55px" viewBox="0 0 55 55" version="1.1" xmlns="http://www.w3.org/2000/svg" xmlns:xlink="http://www.w3.org/1999/xlink">
    <title>app_simulator</title>
    <g id="app_simulator" stroke="none" stroke-width="1" fill="none" fill-rule="evenodd">
        <path d="M21.5760742,9.5 L40.1666667,9.5 C42.5599006,9.5 44.5,10.9015434 44.5,12.6304348 L44.5,42.3695652 C44.5,44.0984566 42.5599006,45.5 40.1666667,45.5 L9.83333333,45.5 C7.44009942,45.5 5.5,44.0984566 5.5,42.3695652 L5.5,30.7880345" id="Rectangle-7" stroke="#4A4A4A" stroke-width="2" stroke-linecap="round" transform="translate(25.000000, 27.500000) scale(1, -1) rotate(90.000000) translate(-25.000000, -27.500000) "></path>
        <polygon id="Triangle-2" fill="#4A4A4A" points="48.2568852 40.2988232 28 52.5976463 28 28"></polygon>
        <rect id="Rectangle" stroke="#4A4A4A" x="31" y="26.5" width="6" height="6"></rect>
        <rect id="Rectangle" stroke="#4A4A4A" x="15" y="14.5" width="6" height="6"></rect>
        <polyline id="Line" stroke="#4A4A4A" stroke-linecap="square" points="16 40.5 23.3291016 40.5 23.3291016 31.5 30.6582031 31.5"></polyline>
        <polyline id="Line" stroke="#4A4A4A" stroke-linecap="square" transform="translate(26.158203, 22.500000) scale(1, -1) translate(-26.158203, -22.500000) " points="21.6582031 27.5 26.1582031 27.5 26.1582031 17.5 30.6582031 17.5"></polyline>
    </g>
</svg>