<?xml version="1.0" encoding="UTF-8"?>
<svg width="55px" height="55px" viewBox="0 0 55 55" version="1.1" xmlns="http://www.w3.org/2000/svg" xmlns:xlink="http://www.w3.org/1999/xlink">
    <title>app_lessons</title>
    <g id="app_lessons" stroke="none" stroke-width="1" fill="none" fill-rule="evenodd">
        <line x1="22.5" y1="24.5" x2="30.5" y2="24.5" id="Line-12" stroke="#4A4A4A" stroke-linecap="round" stroke-linejoin="round"></line>
        <line x1="22.5" y1="34.5" x2="27.5" y2="34.5" id="Line-12" stroke="#4A4A4A" stroke-linecap="round" stroke-linejoin="round"></line>
        <path d="M41.8789063,41.5 L41.8789063,42.8251953 C41.8789063,44.4820496 40.5357605,45.8251953 38.8789063,45.8251953 L14.8442078,45.8251953 C13.1873535,45.8251953 11.8442078,44.4820496 11.8442078,42.8251953 L11.8442078,10.8251953 C11.8442078,9.16834106 13.1873535,7.82519531 14.8442078,7.82519531 L36.0718384,7.82519531 L36.0718384,7.82519531" id="Path" stroke="#4A4A4A" stroke-width="2" stroke-linecap="round"></path>
        <path d="M32.3731613,34 L27.5,34 L27.5,29.1629181 L40.0695453,12.6891727 C41.0705054,11.3773066 42.9430311,11.1201088 44.2606279,12.1135132 L44.7367786,12.4725079 C46.0559545,13.4671028 46.3227169,15.3410752 45.3334822,16.6642755 L32.3731613,34 L32.3731613,34 Z" id="Path-4" stroke="#424242"></path>
        <line x1="39.5" y1="13.5" x2="44.5" y2="17.5" id="Line" stroke="#424242" stroke-linecap="square"></line>
    </g>
</svg>