<?xml version="1.0" encoding="UTF-8"?>
<svg width="55px" height="55px" viewBox="0 0 55 55" version="1.1" xmlns="http://www.w3.org/2000/svg" xmlns:xlink="http://www.w3.org/1999/xlink">
    <!-- Generator: Sketch 64 (93537) - https://sketch.com -->
    <title>app_home</title>
    <desc>Created with Sketch.</desc>
    <g id="app_home" stroke="none" stroke-width="1" fill="none" fill-rule="evenodd">
        <path d="M26.5292969,20.2607422 C27.1979167,20.2607422 27.6888021,20.1189779 28.0019531,19.8354492 C28.3151042,19.5519206 28.4716797,19.1816406 28.4716797,18.7246094 C28.4716797,18.3183594 28.3447266,17.9946289 28.0908203,17.753418 C27.8369141,17.512207 27.413737,17.3916016 26.8212891,17.3916016 C26.2203776,17.3916016 25.7548828,17.53125 25.4248047,17.8105469 C25.0947266,18.0898438 24.9254557,18.4622396 24.9169922,18.9277344 C24.9169922,19.359375 25.0481771,19.6894531 25.3105469,19.9179688 C25.5729167,20.1464844 25.9791667,20.2607422 26.5292969,20.2607422 Z M29.1572266,35 C29.4280599,35 29.610026,34.9576823 29.703125,34.8730469 C29.796224,34.7884115 29.8427734,34.6318359 29.8427734,34.4033203 C29.8427734,34.1494141 29.7877604,33.9124349 29.6777344,33.6923828 L29.6777344,33.6923828 L28.3320312,33.6923828 C28.2727865,32.5159505 28.2431641,31.1363932 28.2431641,29.5537109 L28.2431641,29.5537109 L28.2431641,23.7773438 C28.2431641,23.3541667 28.226237,23.0558268 28.1923828,22.8823242 C28.1585286,22.7088216 28.023112,22.590332 27.7861328,22.5268555 C27.5491536,22.4633789 27.0963542,22.4316406 26.4277344,22.4316406 C25.4798177,22.4316406 24.8408203,22.4697266 24.5107422,22.5458984 C24.1806641,22.6220703 24.015625,22.8336589 24.015625,23.1806641 C24.015625,23.4176432 24.070638,23.625 24.1806641,23.8027344 C24.476888,23.8027344 24.7244466,23.8323568 24.9233398,23.8916016 C25.1222331,23.9508464 25.2766927,24.1031901 25.3867188,24.3486328 C25.4967448,24.5940755 25.566569,25.0405273 25.5961914,25.6879883 C25.6223288,26.2592773 25.636935,27.329703 25.64001,28.8992654 L25.640625,29.5537109 C25.640625,31.1363932 25.6110026,32.5159505 25.5517578,33.6923828 L25.5517578,33.6923828 L24.6123047,33.6923828 C24.3922526,33.6923828 24.237793,33.7368164 24.1489258,33.8256836 C24.0600586,33.9145508 24.015625,34.0520833 24.015625,34.2382812 C24.015625,34.4752604 24.0664062,34.7291667 24.1679688,35 L24.1679688,35 L29.1572266,35 Z" id="i" fill="#4A4A4A" fill-rule="nonzero"></path>
        <circle id="Oval" stroke="#4A4A4A" cx="27" cy="27" r="17"></circle>
    </g>
</svg>