<?xml version="1.0" encoding="UTF-8"?>
<svg width="55px" height="55px" viewBox="0 0 55 55" version="1.1" xmlns="http://www.w3.org/2000/svg" xmlns:xlink="http://www.w3.org/1999/xlink">
    <!-- Generator: Sketch 64 (93537) - https://sketch.com -->
    <title>app_user</title>
    <desc>Created with Sketch.</desc>
    <g id="app_user" stroke="none" stroke-width="1" fill="none" fill-rule="evenodd">
        <circle id="Oval" stroke="#4A4A4A" cx="27.5" cy="27.5" r="20.5"></circle>
        <circle id="Oval" stroke="#4A4A4A" cx="28" cy="23" r="7"></circle>
        <path d="M13.0048828,41.5 C18.1682943,35.5 23,32.5 27.5,32.5 C32,32.5 36.6666667,35.5 41.5,41.5" id="Line" stroke="#4A4A4A" stroke-linecap="square"></path>
        <path d="M42.8382599,31.3700688 C42.2519215,31.1385898 41.6272662,31.1666854 41.0913257,31.3992354 C40.5553853,31.6317854 40.1081597,32.0687899 39.8766806,32.6551283 C39.6356521,33.2656555 39.1801822,33.7322252 38.6280674,33.9981097 C38.0759525,34.2639942 37.4271928,34.3291935 36.7995846,34.1369796 C36.1953936,33.9519377 35.5415301,34.0256104 34.9936632,34.3404581 C34.4471095,34.6545511 34.0796093,35.1604437 33.9272709,35.7244513 C33.7749324,36.288459 33.8377556,36.9105819 34.1518486,37.4571356 C34.4788992,38.0262367 34.5596972,38.6732389 34.4233361,39.2706759 C34.286975,39.8681129 33.9334548,40.4159848 33.3918687,40.7868253 C32.8704901,41.143829 32.5204125,41.7009743 32.4249809,42.3256183 C32.3297781,42.9487649 32.4961682,43.551507 32.8421457,44.022263 C33.1881232,44.4930191 33.713688,44.8317892 34.3368347,44.926992 C34.9856886,45.0261223 35.541912,45.3663511 35.9239873,45.8454584 C36.3060626,46.3245657 36.5139898,46.9425515 36.4662512,47.5971958 C36.4202937,48.2274142 36.6376176,48.8484902 37.0664834,49.3125608 C37.494321,49.775519 38.0693063,50.0212335 38.6530716,50.044249 C39.2368369,50.0672645 39.8293824,49.867581 40.2923406,49.4397434 C40.7743975,48.9942557 41.3871988,48.7715119 42,48.7715119 C42.6128012,48.7715119 43.2256025,48.9942557 43.7076594,49.4397434 C44.17173,49.8686091 44.792806,50.085933 45.4230244,50.0399755 C46.0517321,49.9941283 46.6023369,49.6977872 46.9843029,49.255731 C47.3662689,48.8136748 47.5795961,48.2259035 47.5337488,47.5971958 C47.4860102,46.9425515 47.6939374,46.3245657 48.0760127,45.8454584 C48.458088,45.3663511 49.0143114,45.0261223 49.6631653,44.926992 C50.2878093,44.8315604 50.8449545,44.4814829 51.2019583,43.9601043 C51.5581063,43.4399755 51.669714,42.8247297 51.5622524,42.2504792 C51.4547909,41.6762286 51.1282601,41.1429733 50.6081313,40.7868253 C50.0665452,40.4159848 49.713025,39.8681129 49.5766639,39.2706759 C49.4403028,38.6732389 49.5211008,38.0262367 49.8481514,37.4571356 C50.1629991,36.9092686 50.2366718,36.2554051 50.0516299,35.6512141 C49.8670315,35.0484714 49.4555992,34.5776136 48.9396309,34.303591 C48.4236625,34.0295685 47.8031581,33.9523812 47.2004154,34.1369796 C46.5728072,34.3291935 45.9240475,34.2639942 45.3719326,33.9981097 C44.8198178,33.7322252 44.3643479,33.2656555 44.1233194,32.6551283 C43.8912841,32.067381 43.4260073,31.6021041 42.8382599,31.3700688 Z" id="Star" stroke="#FFFFFF" stroke-width="2" fill="#4A4A4A"></path>
        <circle id="Oval" fill="#FFFFFF" cx="42" cy="41" r="2"></circle>
    </g>
</svg>