<?xml version="1.0" encoding="UTF-8"?>
<svg width="55px" height="55px" viewBox="0 0 55 55" version="1.1" xmlns="http://www.w3.org/2000/svg" xmlns:xlink="http://www.w3.org/1999/xlink">
    <title>app_youtube</title>
    <g id="app_youtube" stroke="none" stroke-width="1" fill="none" fill-rule="evenodd">
        <path d="M27,10.4963989 C31.9688585,10.4963989 36.937717,10.6923733 41.9065755,11.084322 L43.7698896,11.2405777 C47.5450367,11.576065 50.5667169,14.5145353 51.007463,18.2788453 C51.3663883,21.3460958 51.5458069,24.4198175 51.5458069,27.5 C51.5458069,30.2219217 51.405698,32.9438553 51.1254802,35.6658008 L50.9964472,36.8323069 C50.5522878,40.5949139 47.5296739,43.5299911 43.7556419,43.8634144 C38.9821723,44.2853571 33.814443,44.4963989 28.2524414,44.4963989 C22.9568003,44.4963989 17.6600545,44.3050864 12.3622041,43.9224613 L10.3754623,43.7699621 C6.54101832,43.4581482 3.47149514,40.4612307 3.06799913,36.6353479 C2.74607775,33.5838945 2.58509827,30.5387799 2.58509827,27.5 C2.58509827,24.8321786 2.70917363,22.1643674 2.95732436,19.4965664 L3.07150062,18.3532483 C3.47675936,14.5508305 6.51629585,11.5668714 10.3255441,11.2318436 C15.8837077,10.7416133 21.4418538,10.4963989 27,10.4963989 Z M22.2941176,19 L22.2941176,36 L35.2941176,27.5 L22.2941176,19 Z" id="Combined-Shape" fill="#4A4A4A"></path>
    </g>
</svg>