<?xml version="1.0" encoding="UTF-8"?>
<svg width="55px" height="55px" viewBox="0 0 55 55" version="1.1" xmlns="http://www.w3.org/2000/svg" xmlns:xlink="http://www.w3.org/1999/xlink">
    <!-- Generator: Sketch 64 (93537) - https://sketch.com -->
    <title>app_groups</title>
    <desc>Created with Sketch.</desc>
    <g id="app_groups" stroke="none" stroke-width="1" fill="none" fill-rule="evenodd">
        <ellipse id="Oval" stroke="#4A4A4A" cx="13" cy="16.5" rx="5" ry="4.5"></ellipse>
        <path d="M5,29 C7.89925403,25 10.6122554,23 13.1390041,23 C15.6657528,23 18.2860847,25 21,29 L5,29 Z" id="Line" stroke="#4A4A4A" stroke-linecap="square"></path>
        <circle id="Oval" stroke="#4A4A4A" cx="41" cy="16" r="5"></circle>
        <path d="M33,29 C35.899254,25 38.6122554,23 41.1390041,23 C43.6657528,23 46.2860847,25 49,29 L33,29 Z" id="Line" stroke="#4A4A4A" stroke-linecap="square"></path>
        <circle id="Oval" stroke="#4A4A4A" cx="27" cy="22" r="5"></circle>
        <path d="M16,36 C19.9864743,32 23.7168512,30 27.1911306,30 C30.6654101,30 34.2683665,32 38,36 L16,36 Z" id="Line" stroke="#4A4A4A" stroke-linecap="square"></path>
        <path d="M48.2585449,21.4774452 C49.9975586,22.6279243 53,25.9721024 53,28.7865623 C53,35.8835389 41.6358073,43.8857379 27.5,44 L26.5502064,44 C12.206445,44 1,35.9590386 1,28.7865623 C1,26.6304369 2.04312736,24.6019287 3.96680795,22.8175042 C5.89048854,21.0330798 6.29772949,22.0754343 4.69519043,23.7154164 C3.09265137,25.3553985 2,27.017773 2,28.7865623 C2,34.8508491 12.9355763,40.0817758 26.5502064,40.1947751 L27,40.1966406 C40.8227608,40.1966406 52,34.9174896 52,28.7865623 C52,26.6240946 49.2431824,23.7070185 47.8813568,22.5922318 C46.5195313,21.4774452 46.5195313,20.3269661 48.2585449,21.4774452 Z" id="Path" fill="#4A4A4A" fill-rule="nonzero"></path>
    </g>
</svg>