<?xml version="1.0" encoding="UTF-8"?>
<svg width="100px" height="100px" viewBox="0 0 100 100" version="1.1" xmlns="http://www.w3.org/2000/svg" xmlns:xlink="http://www.w3.org/1999/xlink">
    <title>export_mode_solution</title>
    <g id="export_mode_solution" stroke="none" stroke-width="1" fill="none" fill-rule="evenodd">
        <rect id="Rectangle" fill="#F2CED9" x="17" y="9" width="63" height="83" rx="3"></rect>
        <rect id="Rectangle" fill="#FFFFFF" x="23" y="16" width="51" height="69" rx="3"></rect>
        <line x1="39.7391304" y1="59" x2="57" y2="59" id="Line-6" stroke="#4A4A4A" stroke-width="2" stroke-linecap="round"></line>
        <line x1="39.7391304" y1="73" x2="57" y2="73" id="Line-6" stroke="#4A4A4A" stroke-width="2" stroke-linecap="round"></line>
        <polyline id="Line-6" stroke="#4A4A4A" stroke-width="2" stroke-linecap="round" points="27.0696869 72 31.9869827 75.6168823 37.2715302 67.6695099"></polyline>
        <polyline id="Line-6" stroke="#4A4A4A" stroke-width="2" stroke-linecap="round" points="26.0696869 58 30.9869827 61.6168823 36.2715302 53.6695099"></polyline>
        <polyline id="Line-6" stroke="#4A4A4A" stroke-width="2" stroke-linecap="round" points="27.0696869 44 31.9869827 47.6168823 37.2715302 39.6695099"></polyline>
        <polyline id="Line-6" stroke="#4A4A4A" stroke-width="2" stroke-linecap="round" points="27.0696869 31 31.9869827 34.6168823 37.2715302 26.6695099"></polyline>
        <line x1="48.7391304" y1="70" x2="61" y2="70" id="Line-6" stroke="#4A4A4A" stroke-width="2" stroke-linecap="round"></line>
        <line x1="39.7391304" y1="55" x2="52" y2="55" id="Line-6" stroke="#4A4A4A" stroke-width="2" stroke-linecap="round"></line>
        <line x1="49.7391304" y1="42" x2="62" y2="42" id="Line-6" stroke="#4A4A4A" stroke-width="2" stroke-linecap="round"></line>
        <line x1="39.7391304" y1="29" x2="52" y2="29" id="Line-6" stroke="#4A4A4A" stroke-width="2" stroke-linecap="round"></line>
        <line x1="55.7391304" y1="29" x2="61" y2="29" id="Line-6" stroke="#4A4A4A" stroke-width="2" stroke-linecap="round"></line>
        <line x1="39.7391304" y1="42" x2="45" y2="42" id="Line-6" stroke="#4A4A4A" stroke-width="2" stroke-linecap="round"></line>
        <line x1="55.7391304" y1="55" x2="61" y2="55" id="Line-6" stroke="#4A4A4A" stroke-width="2" stroke-linecap="round"></line>
        <line x1="39.7391304" y1="70" x2="45" y2="70" id="Line-6" stroke="#4A4A4A" stroke-width="2" stroke-linecap="round"></line>
        <path d="M33.5,15.5 L26.5,15.5 C24.8431458,15.5 23.5,16.8431458 23.5,18.5 L23.5,83.4756012 C23.5,84.5801707 24.3954305,85.4756012 25.5,85.4756012 L67.441391,85.4756012 L67.441391,85.4756012" id="Line" stroke="#4A4A4A" stroke-linecap="square"></path>
        <path d="M28.3650324,9.4756012 L20.441391,9.4756012 C18.7845367,9.4756012 17.441391,10.8187469 17.441391,12.4756012 L17.441391,90.4756012 C17.441391,91.5801707 18.3368215,92.4756012 19.441391,92.4756012 L65.441391,92.4756012 L65.441391,92.4756012 L77,92.4756012 C78.6568542,92.4756012 80,91.1324554 80,89.4756012 L80,12.4756012 C80,10.8187469 78.6568542,9.4756012 77,9.4756012 L65.441391,9.4756012 L65.441391,9.4756012" id="Line" stroke="#4A4A4A" stroke-width="2" stroke-linecap="square"></path>
        <line x1="39.7391304" y1="46" x2="59" y2="46" id="Line-6" stroke="#4A4A4A" stroke-width="2" stroke-linecap="round"></line>
        <line x1="39.7391304" y1="33.2083333" x2="59" y2="33" id="Line-6" stroke="#4A4A4A" stroke-width="2" stroke-linecap="round"></line>
        <path d="M39,8 L45.0794601,8 L45.0794601,8 C45.5192403,5.9104983 46.9492754,4.86574745 49.3695652,4.86574745 C51.7898551,4.86574745 53.224762,5.9104983 53.6742859,8 L60,8 C61.6568542,8 63,9.34314575 63,11 L63,15 C63,16.6568542 61.6568542,18 60,18 L39,18 C37.3431458,18 36,16.6568542 36,15 L36,11 C36,9.34314575 37.3431458,8 39,8 Z" id="Rectangle" stroke="#4A4A4A" stroke-width="2"></path>
    </g>
</svg>