<?xml version="1.0" encoding="UTF-8"?>
<svg width="100px" height="100px" viewBox="0 0 100 100" version="1.1" xmlns="http://www.w3.org/2000/svg" xmlns:xlink="http://www.w3.org/1999/xlink">
    <title>export_mode_worksheet</title>
    <g id="export_mode_worksheet" stroke="none" stroke-width="1" fill="none" fill-rule="evenodd">
        <g id="Group" transform="translate(17.000000, 4.865747)">
            <rect id="Rectangle" fill="#F2CED9" x="0" y="4.13425255" width="63" height="83" rx="3"></rect>
            <rect id="Rectangle" fill="#FFFFFF" x="6" y="11.1342525" width="51" height="69" rx="3"></rect>
            <line x1="22.7391304" y1="54.1342525" x2="40" y2="54.1342525" id="Line-6" stroke="#4A4A4A" stroke-width="2" stroke-linecap="round"></line>
            <line x1="22.7391304" y1="68.1342525" x2="40" y2="68.1342525" id="Line-6" stroke="#4A4A4A" stroke-width="2" stroke-linecap="round"></line>
            <line x1="31.7391304" y1="65.1342525" x2="44" y2="65.1342525" id="Line-6" stroke="#4A4A4A" stroke-width="2" stroke-linecap="round"></line>
            <line x1="22.7391304" y1="50.1342525" x2="35" y2="50.1342525" id="Line-6" stroke="#4A4A4A" stroke-width="2" stroke-linecap="round"></line>
            <line x1="32.7391304" y1="37.1342525" x2="45" y2="37.1342525" id="Line-6" stroke="#4A4A4A" stroke-width="2" stroke-linecap="round"></line>
            <line x1="22.7391304" y1="24.1342525" x2="35" y2="24.1342525" id="Line-6" stroke="#4A4A4A" stroke-width="2" stroke-linecap="round"></line>
            <line x1="38.7391304" y1="24.1342525" x2="44" y2="24.1342525" id="Line-6" stroke="#4A4A4A" stroke-width="2" stroke-linecap="round"></line>
            <line x1="22.7391304" y1="37.1342525" x2="28" y2="37.1342525" id="Line-6" stroke="#4A4A4A" stroke-width="2" stroke-linecap="round"></line>
            <line x1="38.7391304" y1="50.1342525" x2="44" y2="50.1342525" id="Line-6" stroke="#4A4A4A" stroke-width="2" stroke-linecap="round"></line>
            <line x1="22.7391304" y1="65.1342525" x2="28" y2="65.1342525" id="Line-6" stroke="#4A4A4A" stroke-width="2" stroke-linecap="round"></line>
            <path d="M16.5,10.6342525 L9.5,10.6342525 C7.84314575,10.6342525 6.5,11.9773983 6.5,13.6342525 L6.5,78.6098537 C6.5,79.7144232 7.3954305,80.6098537 8.5,80.6098537 L50.441391,80.6098537 L50.441391,80.6098537" id="Line" stroke="#4A4A4A" stroke-linecap="square"></path>
            <path d="M11.3650324,4.60985374 L3.44139099,4.60985374 C1.78453674,4.60985374 0.441390991,5.9529995 0.441390991,7.60985374 L0.441390991,85.6098537 C0.441390991,86.7144232 1.33682149,87.6098537 2.44139099,87.6098537 L48.441391,87.6098537 L48.441391,87.6098537 L60,87.6098537 C61.6568542,87.6098537 63,86.266708 63,84.6098537 L63,7.60985374 C63,5.9529995 61.6568542,4.60985374 60,4.60985374 L48.441391,4.60985374 L48.441391,4.60985374" id="Line" stroke="#4A4A4A" stroke-width="2" stroke-linecap="square"></path>
            <line x1="22.7391304" y1="41.1342525" x2="42" y2="41.1342525" id="Line-6" stroke="#4A4A4A" stroke-width="2" stroke-linecap="round"></line>
            <line x1="22.7391304" y1="28.3425859" x2="42" y2="28.1342525" id="Line-6" stroke="#4A4A4A" stroke-width="2" stroke-linecap="round"></line>
            <rect id="Rectangle" stroke="#4A4A4A" x="11" y="23.1342525" width="7" height="7" rx="2"></rect>
            <rect id="Rectangle" stroke="#4A4A4A" x="11" y="36.1342525" width="7" height="7" rx="2"></rect>
            <rect id="Rectangle" stroke="#4A4A4A" x="11" y="49.1342525" width="7" height="7" rx="2"></rect>
            <rect id="Rectangle" stroke="#4A4A4A" x="11" y="63.1342525" width="7" height="7" rx="2"></rect>
            <path d="M21,3.13425255 L27.0794601,3.13425255 L27.0794601,3.13425255 C27.5192403,1.04475085 28.9492754,0 31.3695652,0 C33.7898551,0 35.224762,1.04475085 35.6742859,3.13425255 L42,3.13425255 C43.6568542,3.13425255 45,4.4773983 45,6.13425255 L45,10.1342525 C45,11.7911068 43.6568542,13.1342525 42,13.1342525 L21,13.1342525 C19.3431458,13.1342525 18,11.7911068 18,10.1342525 L18,6.13425255 C18,4.4773983 19.3431458,3.13425255 21,3.13425255 Z" id="Rectangle" stroke="#4A4A4A" stroke-width="2"></path>
        </g>
    </g>
</svg>