<?xml version="1.0" encoding="UTF-8"?>
<svg width="55px" height="55px" viewBox="0 0 55 55" version="1.1" xmlns="http://www.w3.org/2000/svg" xmlns:xlink="http://www.w3.org/1999/xlink">
    <!-- Generator: Sketch 63 (92445) - https://sketch.com -->
    <title>files_folder_back</title>
    <desc>Created with Sketch.</desc>
    <g id="files_folder_back" stroke="none" stroke-width="1" fill="none" fill-rule="evenodd">
        <path d="M9.87890625,9.82519531 L21.3192517,9.82519531 C22.0622837,9.82519531 22.7788785,10.1009365 23.3302527,10.5990158 L26.6433802,13.5919022 C27.1947544,14.0899815 27.9113491,14.3657227 28.6543811,14.3657227 L45.8789062,14.3657227 C47.5357605,14.3657227 48.8789062,15.7088684 48.8789062,17.3657227 L48.8789062,39.8251953 C48.8789062,41.4820496 47.5357605,42.8251953 45.8789062,42.8251953 L9.87890625,42.8251953 C8.222052,42.8251953 6.87890625,41.4820496 6.87890625,39.8251953 L6.87890625,12.8251953 C6.87890625,11.1683411 8.222052,9.82519531 9.87890625,9.82519531 Z" id="Rectangle" stroke="#4A4A4A" stroke-width="2"></path>
        <line x1="48" y1="20" x2="8" y2="20" id="Line" stroke="#4A4A4A" stroke-width="2" stroke-linecap="square"></line>
        <line x1="37" y1="31" x2="21.5361328" y2="31" id="Line" stroke="#4A4A4A" stroke-width="2" stroke-linecap="round" stroke-linejoin="round"></line>
        <polyline id="Line" stroke="#4A4A4A" stroke-width="2" stroke-linecap="round" stroke-linejoin="round" points="22 35.3 16.4990234 31.3 22 26.3"></polyline>
    </g>
</svg>