<?xml version="1.0" encoding="UTF-8"?>
<svg width="55px" height="55px" viewBox="0 0 55 55" version="1.1" xmlns="http://www.w3.org/2000/svg" xmlns:xlink="http://www.w3.org/1999/xlink">
    <title>files_simulator</title>
    <g id="files_simulator" stroke="none" stroke-width="1" fill="none" fill-rule="evenodd">
        <path d="M14.8789062,7.82519531 L38.8789062,7.82519531 C40.5357605,7.82519531 41.8789062,9.16834106 41.8789062,10.8251953 L41.8789062,42.8251953 C41.8789062,44.4820496 40.5357605,45.8251953 38.8789062,45.8251953 L14.8789062,45.8251953 C13.222052,45.8251953 11.8789062,44.4820496 11.8789062,42.8251953 L11.8789062,10.8251953 C11.8789062,9.16834106 13.222052,7.82519531 14.8789062,7.82519531 Z" id="Rectangle" stroke="#4A4A4A" stroke-width="2"></path>
        <rect id="Rectangle" stroke="#4A4A4A" x="31" y="26.5" width="6" height="6"></rect>
        <rect id="Rectangle" stroke="#4A4A4A" x="15" y="14.5" width="6" height="6"></rect>
        <polyline id="Line" stroke="#4A4A4A" stroke-linecap="square" points="16 40.5 23.3291016 40.5 23.3291016 31.5 30.6582031 31.5"></polyline>
        <polyline id="Line" stroke="#4A4A4A" stroke-linecap="square" transform="translate(26.158203, 22.500000) scale(1, -1) translate(-26.158203, -22.500000) " points="21.6582031 27.5 26.1582031 27.5 26.1582031 17.5 30.6582031 17.5"></polyline>
    </g>
</svg>