<?xml version="1.0" encoding="UTF-8"?>
<svg width="110px" height="110px" viewBox="0 0 110 110" version="1.1" xmlns="http://www.w3.org/2000/svg" xmlns:xlink="http://www.w3.org/1999/xlink">
    <title>flashcard</title>
    <defs>
        <path d="M7.33250125,3.01760979 L33.4447956,3.45150247 C35.0640972,3.47840946 36.3697372,4.78569899 36.3945997,6.40503326 L37.0244101,47.4256134 C37.0498457,49.0822724 35.7274778,50.4458794 34.0708188,50.471315 C34.0388547,50.4718057 34.0068847,50.4717856 33.9749213,50.4712544 L7.86262695,50.0373618 C6.24332536,50.0104548 4.93768533,48.7031652 4.91282285,47.083831 L4.28301243,6.06325086 C4.25757687,4.40659186 5.57994475,3.0429848 7.23660375,3.01754925 C7.26856787,3.01705849 7.30053778,3.01707867 7.33250125,3.01760979 Z" id="path-1"></path>
        <filter x="-21.3%" y="-10.5%" width="142.6%" height="129.4%" filterUnits="objectBoundingBox" id="filter-2">
            <feOffset dx="0" dy="2" in="SourceAlpha" result="shadowOffsetOuter1"></feOffset>
            <feGaussianBlur stdDeviation="2" in="shadowOffsetOuter1" result="shadowBlurOuter1"></feGaussianBlur>
            <feColorMatrix values="0 0 0 0 0   0 0 0 0 0   0 0 0 0 0  0 0 0 0.5 0" type="matrix" in="shadowBlurOuter1"></feColorMatrix>
        </filter>
    </defs>
    <g id="flashcard" stroke="none" stroke-width="1" fill="none" fill-rule="evenodd">
        <rect id="Rectangle" fill="#F2CED9" x="4" y="4" width="103" height="103" rx="21"></rect>
        <path d="M82.7924922,59.5141301 C90.0217722,56.705023 94.5,52.8077288 94.5,48.5 C94.5,39.9395864 76.8152476,33 55,33 C33.1847524,33 15.5,39.9395864 15.5,48.5 C15.5,51.6253883 17.857314,54.5347261 21.9123075,56.9691695" id="Path" stroke="#DA0506" stroke-width="2"></path>
        <g id="Group" transform="translate(25.640083, 26.762197)">
            <path d="M5.73717189,1.8346411 L31.778418,1.59393592 C33.4352015,1.57862189 34.7907044,2.9092958 34.8060184,4.56607927 C34.8061824,4.58382504 34.806189,4.60157191 34.8060381,4.6193178 L34.4563643,45.7397504 C34.442452,47.3757923 33.1202325,48.69899 31.4842013,48.7141122 L5.44295516,48.9548174 C3.78617168,48.9701314 2.43066883,47.6394575 2.4153548,45.982674 C2.41519078,45.9649283 2.41518421,45.9471814 2.41533512,45.9294355 L2.76500885,4.80900292 C2.77892118,3.17296103 4.10114074,1.8497633 5.73717189,1.8346411 Z" id="Rectangle" fill="#FFFFFF" transform="translate(18.610687, 25.274377) rotate(-6.000000) translate(-18.610687, -25.274377) "></path>
            <line x1="13.2017887" y1="31.1405072" x2="24.5107068" y2="31.0359763" id="Line-6" stroke="#4A4A4A" stroke-width="2" stroke-linecap="round" transform="translate(18.856248, 31.088242) rotate(-6.000000) translate(-18.856248, -31.088242) "></line>
            <line x1="14.1203096" y1="40.6574456" x2="25.4292277" y2="40.5529147" id="Line-6" stroke="#4A4A4A" stroke-width="2" stroke-linecap="round" transform="translate(19.774769, 40.605180) rotate(-6.000000) translate(-19.774769, -40.605180) "></line>
            <line x1="19.5516257" y1="38.1391722" x2="27.7191777" y2="38.0636776" id="Line-6" stroke="#4A4A4A" stroke-width="2" stroke-linecap="round" transform="translate(23.635402, 38.101425) rotate(-6.000000) translate(-23.635402, -38.101425) "></line>
            <line x1="12.9494761" y1="28.5854835" x2="21.1170281" y2="28.509989" id="Line-6" stroke="#4A4A4A" stroke-width="2" stroke-linecap="round" transform="translate(17.033252, 28.547736) rotate(-6.000000) translate(-17.033252, -28.547736) "></line>
            <line x1="18.3388084" y1="19.0338475" x2="26.5063604" y2="18.9583529" id="Line-6" stroke="#4A4A4A" stroke-width="2" stroke-linecap="round" transform="translate(22.422584, 18.996100) rotate(-6.000000) translate(-22.422584, -18.996100) "></line>
            <line x1="11.2436516" y1="10.9111694" x2="19.4112036" y2="10.8356748" id="Line-6" stroke="#4A4A4A" stroke-width="2" stroke-linecap="round" transform="translate(15.327428, 10.873422) rotate(-6.000000) translate(-15.327428, -10.873422) "></line>
            <line x1="21.2454136" y1="9.99774522" x2="25.015053" y2="9.96290158" id="Line-6" stroke="#4A4A4A" stroke-width="2" stroke-linecap="round" transform="translate(23.130233, 9.980323) rotate(-6.000000) translate(-23.130233, -9.980323) "></line>
            <line x1="12.1107345" y1="19.9780686" x2="15.8803739" y2="19.943225" id="Line-6" stroke="#4A4A4A" stroke-width="2" stroke-linecap="round" transform="translate(13.995554, 19.960647) rotate(-6.000000) translate(-13.995554, -19.960647) "></line>
            <line x1="22.9512381" y1="27.6720594" x2="26.7208775" y2="27.6372157" id="Line-6" stroke="#4A4A4A" stroke-width="2" stroke-linecap="round" transform="translate(24.836058, 27.654638) rotate(-6.000000) translate(-24.836058, -27.654638) "></line>
            <line x1="13.9477763" y1="39.0119454" x2="17.7174157" y2="38.9771018" id="Line-6" stroke="#4A4A4A" stroke-width="2" stroke-linecap="round" transform="translate(15.832596, 38.994524) rotate(-6.000000) translate(-15.832596, -38.994524) "></line>
            <path d="M9.41265112,1.67903004 L6.07702057,1.70986203 C4.44098942,1.72498424 3.11876986,3.04818197 3.10485754,4.68422386 L2.74086262,47.4887785 C2.73147009,48.593308 3.61925406,49.4963203 4.72378363,49.5057128 C4.73561422,49.5058134 4.74744547,49.5058091 4.75927598,49.5056997 L30.3307511,49.2693367 L30.3307511,49.2693367" id="Line" stroke="#4A4A4A" stroke-linecap="square" transform="translate(16.527151, 25.601773) rotate(-6.000000) translate(-16.527151, -25.601773) "></path>
            <line x1="12.3448277" y1="22.2377095" x2="24.9102923" y2="22.1215641" id="Line-6" stroke="#4A4A4A" stroke-width="2" stroke-linecap="round" transform="translate(18.627560, 22.179637) rotate(-6.000000) translate(-18.627560, -22.179637) "></line>
            <line x1="11.5120239" y1="14.0599453" x2="24.3606992" y2="13.9032017" id="Line-6" stroke="#4A4A4A" stroke-width="2" stroke-linecap="round" transform="translate(18.012024, 13.577969) rotate(-6.000000) translate(-18.012024, -13.577969) "></line>
            <path d="M6.5384104,11.1851071 L6.93586395,11.1814333 C8.04038627,11.171224 8.94405483,12.0583399 8.95426419,13.1628622 C8.95437354,13.1746927 8.95437791,13.186524 8.95427731,13.1983546 L8.94764512,13.9782769 C8.93837024,15.0689714 8.05689053,15.9511033 6.9662031,15.9611847 L6.56874955,15.9648585 C5.46422723,15.9750678 4.56055867,15.0879519 4.55034931,13.9834296 C4.55023996,13.9715991 4.55023559,13.9597678 4.55033619,13.9479372 L4.55696838,13.168015 C4.56624326,12.0773204 5.44772297,11.1951885 6.5384104,11.1851071 Z" id="Rectangle" stroke="#4A4A4A" transform="translate(6.752307, 13.573146) rotate(-6.000000) translate(-6.752307, -13.573146) "></path>
            <path d="M7.39132265,20.0222642 L7.7887762,20.0185904 C8.89329851,20.0083811 9.79696708,20.895497 9.80717643,22.0000193 C9.80728578,22.0118498 9.80729016,22.0236811 9.80718956,22.0355117 L9.80055737,22.8154339 C9.79128249,23.9061285 8.90980278,24.7882603 7.81911534,24.7983418 L7.4216618,24.8020156 C6.31713948,24.8122249 5.41347091,23.925109 5.40326156,22.8205867 C5.40315221,22.8087562 5.40314783,22.7969249 5.40324844,22.7850943 L5.40988062,22.005172 C5.41915551,20.9144774 6.30063521,20.0323456 7.39132265,20.0222642 Z" id="Rectangle" stroke="#4A4A4A" transform="translate(7.605219, 22.410303) rotate(-6.000000) translate(-7.605219, -22.410303) "></path>
            <path d="M8.24423489,28.8594212 L8.64168844,28.8557475 C9.74621076,28.8455381 10.6498793,29.7326541 10.6600887,30.8371764 C10.660198,30.8490069 10.6602024,30.8608381 10.6601018,30.8726687 L10.6534696,31.652591 C10.6441947,32.7432856 9.76271503,33.6254174 8.67202759,33.6354989 L8.27457404,33.6391727 C7.17005172,33.649382 6.26638316,32.7622661 6.25617381,31.6577438 C6.25606446,31.6459132 6.25606008,31.634082 6.25616068,31.6222514 L6.26279287,30.8423291 C6.27206775,29.7516345 7.15354746,28.8695027 8.24423489,28.8594212 Z" id="Rectangle" stroke="#4A4A4A" transform="translate(8.458131, 31.247460) rotate(-6.000000) translate(-8.458131, -31.247460) "></path>
            <path d="M9.16275578,38.3763596 L9.56020932,38.3726859 C10.6647316,38.3624765 11.5684002,39.2495925 11.5786096,40.3541148 C11.5787189,40.3659453 11.5787233,40.3777765 11.5786227,40.3896071 L11.5719905,41.1695294 C11.5627156,42.260224 10.6812359,43.1423558 9.59054847,43.1524373 L9.19309492,43.156111 C8.08857261,43.1663204 7.18490404,42.2792045 7.17469469,41.1746821 C7.17458534,41.1628516 7.17458096,41.1510204 7.17468156,41.1391898 L7.18131375,40.3592675 C7.19058863,39.2685729 8.07206834,38.3864411 9.16275578,38.3763596 Z" id="Rectangle" stroke="#4A4A4A" transform="translate(9.376652, 40.764398) rotate(-6.000000) translate(-9.376652, -40.764398) "></path>
        </g>
        <g id="Group-2" transform="translate(64.720247, 53.252366) rotate(-11.000000) translate(-64.720247, -53.252366) translate(44.066535, 26.643070)">
            <g id="Rectangle" transform="translate(20.653711, 26.744432) rotate(11.000000) translate(-20.653711, -26.744432) ">
                <use fill="black" fill-opacity="1" filter="url(#filter-2)" xlink:href="#path-1"></use>
                <use fill="#FFFFFF" fill-rule="evenodd" xlink:href="#path-1"></use>
            </g>
            <line x1="16.6603837" y1="33.2882743" x2="27.9949247" y2="33.4766137" id="Line-6" stroke="#4A4A4A" stroke-width="2" stroke-linecap="round" transform="translate(22.327654, 33.382444) rotate(11.000000) translate(-22.327654, -33.382444) "></line>
            <line x1="14.9836916" y1="43.6818185" x2="26.3182326" y2="43.8701579" id="Line-6" stroke="#4A4A4A" stroke-width="2" stroke-linecap="round" transform="translate(20.650962, 43.775988) rotate(11.000000) translate(-20.650962, -43.775988) "></line>
            <polyline id="Line-6" stroke="#4A4A4A" stroke-width="2" stroke-linecap="round" transform="translate(8.036997, 38.822745) rotate(11.000000) translate(-8.036997, -38.822745) " points="4.84761905 38.9868058 7.98186863 41.5031328 11.2263751 36.1423569"></polyline>
            <polyline id="Line-6" stroke="#4A4A4A" stroke-width="2" stroke-linecap="round" transform="translate(9.097558, 29.298778) rotate(11.000000) translate(-9.097558, -29.298778) " points="5.9081802 29.4628387 9.04242979 31.9791657 12.2869362 26.6183898"></polyline>
            <polyline id="Line-6" stroke="#4A4A4A" stroke-width="2" stroke-linecap="round" transform="translate(11.390381, 20.035656) rotate(11.000000) translate(-11.390381, -20.035656) " points="8.20100321 20.1997173 11.3352528 22.7160443 14.5797592 17.3552684"></polyline>
            <polyline id="Line-6" stroke="#4A4A4A" stroke-width="2" stroke-linecap="round" transform="translate(12.947310, 11.313080) rotate(11.000000) translate(-12.947310, -11.313080) " points="9.75793157 11.4771405 12.8921812 13.9934675 16.1366876 8.63269158"></polyline>
            <line x1="20.9220756" y1="41.542823" x2="29.108133" y2="41.6788459" id="Line-6" stroke="#4A4A4A" stroke-width="2" stroke-linecap="round" transform="translate(25.015104, 41.610834) rotate(11.000000) translate(-25.015104, -41.610834) "></line>
            <line x1="17.1733531" y1="30.3045056" x2="25.3594104" y2="30.4405285" id="Line-6" stroke="#4A4A4A" stroke-width="2" stroke-linecap="round" transform="translate(21.266382, 30.372517) rotate(11.000000) translate(-21.266382, -30.372517) "></line>
            <line x1="24.8915907" y1="22.8861574" x2="33.0776481" y2="23.0221803" id="Line-6" stroke="#4A4A4A" stroke-width="2" stroke-linecap="round" transform="translate(28.984619, 22.954169) rotate(11.000000) translate(-28.984619, -22.954169) "></line>
            <line x1="20.2872098" y1="12.859352" x2="28.4732672" y2="12.9953749" id="Line-6" stroke="#4A4A4A" stroke-width="2" stroke-linecap="round" transform="translate(24.380238, 12.927363) rotate(11.000000) translate(-24.380238, -12.927363) "></line>
            <line x1="30.1927849" y1="14.5262593" x2="33.9709652" y2="14.5890391" id="Line-6" stroke="#4A4A4A" stroke-width="2" stroke-linecap="round" transform="translate(32.081875, 14.557649) rotate(11.000000) translate(-32.081875, -14.557649) "></line>
            <line x1="18.7777617" y1="21.1620703" x2="22.555942" y2="21.2248501" id="Line-6" stroke="#4A4A4A" stroke-width="2" stroke-linecap="round" transform="translate(20.666852, 21.193460) rotate(11.000000) translate(-20.666852, -21.193460) "></line>
            <line x1="27.0789282" y1="31.9714129" x2="30.8571085" y2="32.0341927" id="Line-6" stroke="#4A4A4A" stroke-width="2" stroke-linecap="round" transform="translate(28.968018, 32.002803) rotate(11.000000) translate(-28.968018, -32.002803) "></line>
            <line x1="15.4243775" y1="39.9491588" x2="19.2025579" y2="40.0119386" id="Line-6" stroke="#4A4A4A" stroke-width="2" stroke-linecap="round" transform="translate(17.313468, 39.980549) rotate(11.000000) translate(-17.313468, -39.980549) "></line>
            <path d="M10.8847285,2.37200117 L7.68480158,2.31882986 C6.02817601,2.29130268 4.66290046,3.61194786 4.63537329,5.26857343 C4.63484217,5.3005369 4.63482199,5.33250681 4.63531275,5.36447093 L5.29019982,48.0183343 C5.30677481,49.0978904 6.1772015,49.9694168 7.25673589,49.9873548 L32.9896869,50.4149442 L32.9896869,50.4149442" id="Line" stroke="#4A4A4A" stroke-linecap="square" transform="translate(18.788724, 26.341156) rotate(11.000000) translate(-18.788724, -26.341156) "></path>
            <line x1="18.2037463" y1="24.685657" x2="30.7976807" y2="24.894923" id="Line-6" stroke="#4A4A4A" stroke-width="2" stroke-linecap="round" transform="translate(24.500713, 24.790290) rotate(11.000000) translate(-24.500713, -24.790290) "></line>
            <line x1="19.6772899" y1="15.7729393" x2="33.1500916" y2="16.1312691" id="Line-6" stroke="#4A4A4A" stroke-width="2" stroke-linecap="round" transform="translate(26.677290, 15.619222) rotate(11.000000) translate(-26.677290, -15.619222) "></line>
        </g>
        <polygon id="Triangle" fill="#DA0506" points="25.5 52 33 63 18 63"></polygon>
        <path d="M72.2006613,61.5701599 C77.3459792,61.5701599 89.1498948,58.4850793 92.1640752,53.7636636 C93.0576477,52.3639705 94.5,50.3479174 94.5,48.5 C94.5,44.9210676 91.4088757,41.6254402 86.2171213,39.0017927 M15.5,48.5 C15.5,51.6253883 17.857314,54.5347261 21.9123075,56.9691695" id="Shape" stroke="#DA0506" stroke-width="2" stroke-linecap="round"></path>
    </g>
</svg>