<?xml version="1.0" encoding="UTF-8"?>
<svg width="55px" height="55px" viewBox="0 0 55 55" version="1.1" xmlns="http://www.w3.org/2000/svg" xmlns:xlink="http://www.w3.org/1999/xlink">
    <!-- Generator: Sketch 64 (93537) - https://sketch.com -->
    <title>navigation_file</title>
    <desc>Created with Sketch.</desc>
    <g id="navigation_file" stroke="none" stroke-width="1" fill="none" fill-rule="evenodd">
        <g id="up" transform="translate(30.500000, 11.000000) rotate(-180.000000) translate(-30.500000, -11.000000) translate(24.000000, 2.000000)" stroke="#4A4A4A" stroke-width="2">
            <path d="M6.5,3.55540155e-17 L6.5,17 L6.5,3.55540155e-17 Z" id="Line-5" stroke-linecap="square"></path>
            <path d="M-5.44904609e-14,11 L5.41936064,17.4667965 C6.01618128,18.1789686 6.98507192,18.1774732 7.58309364,17.4638678 L11.6071429,12.6620639 L13,11" id="Path-21"></path>
        </g>
        <path d="M48,42 C47.4606934,43.5595703 46.6568542,44 45,44 L9,44 C7.34314575,44 6,42.6568542 6,41 L6,14 C6,12.3431458 7.34314575,11 9,11 L20.4403455,11 C21.1833775,11 21.8999722,11.2757411 22.4513464,11.7738205 L25.7644739,14.7667069 C26.3158481,15.2647862 27.0324428,15.5405273 27.7754748,15.5405273 L45,15.5405273 C46.6568542,15.5405273 48,16.8836731 48,18.5405273 L48,20.9399414" id="Path" stroke="#4A4A4A" stroke-width="2" stroke-linecap="round" stroke-linejoin="round"></path>
        <polyline id="Line" stroke="#4A4A4A" stroke-width="2" stroke-linecap="round" stroke-linejoin="round" points="48 42 53.0253906 21.1748047 16.1743019 21 7.02539062 42"></polyline>
    </g>
</svg>