<?xml version="1.0" encoding="UTF-8"?>
<svg width="55px" height="55px" viewBox="0 0 55 55" version="1.1" xmlns="http://www.w3.org/2000/svg" xmlns:xlink="http://www.w3.org/1999/xlink">
    <!-- Generator: Sketch 63 (92445) - https://sketch.com -->
    <title>navigation_addon</title>
    <desc>Created with Sketch.</desc>
    <g id="navigation_addon" stroke="none" stroke-width="1" fill="none" fill-rule="evenodd">
        <path d="M7.7878386,13.194788 L24.7878386,20.4805023 C25.5232063,20.7956598 26,21.5187361 26,22.3187923 L26,44.9600462 C26,46.0646157 25.1045695,46.9600462 24,46.9600462 C23.7277452,46.9600462 23.4583568,46.9044601 23.2083388,46.7966933 L6.20833882,39.4690798 C5.4750164,39.1529914 5,38.4309774 5,37.6324327 L5,15.033078 C5,13.9285085 5.8954305,13.033078 7,13.033078 C7.27085355,13.033078 7.5388849,13.0880935 7.7878386,13.194788 Z" id="Rectangle" stroke="#4A4A4A" stroke-width="2"></path>
        <path d="M7.11474609,12.8310547 L25.9398429,5.41750274 C26.6228142,5.14854035 27.380694,5.13930341 28.0700176,5.39154046 L43.9087496,11.1872437 C44.4274018,11.3770287 44.6940013,11.9513306 44.5042163,12.4699828 C44.4148179,12.7142944 44.2337287,12.9141498 43.9993866,13.0271278 L27,21.2226563 L27,21.2226563" id="Line-10" stroke="#4A4A4A" stroke-width="2" stroke-linecap="square"></path>
        <line x1="18" y1="9" x2="36" y2="16" id="Line" stroke="#4A4A4A" stroke-width="2" stroke-linecap="round"></line>
        <circle id="Oval" stroke="#4A4A4A" stroke-width="2" cx="41.5" cy="36.5" r="8.5"></circle>
        <line x1="44.5" y1="12.5" x2="44.5" y2="24" id="Line-2" stroke="#4A4A4A" stroke-width="2" stroke-linecap="round"></line>
        <line x1="30" y1="44" x2="26" y2="46" id="Line-3" stroke="#4A4A4A" stroke-width="2" stroke-linecap="round"></line>
        <line x1="41.5" y1="31.5" x2="41.5" y2="42.5" id="Line-11" stroke="#4A4A4A" stroke-linecap="round"></line>
        <line x1="46.5" y1="36.5" x2="36.5" y2="36.5" id="Line-11" stroke="#4A4A4A" stroke-linecap="round"></line>
    </g>
</svg>