<?xml version="1.0" encoding="UTF-8"?>
<svg width="315px" height="287px" viewBox="0 0 315 287" version="1.1" xmlns="http://www.w3.org/2000/svg" xmlns:xlink="http://www.w3.org/1999/xlink">
    <title>object_not_found</title>
    <g id="object_not_found" stroke="none" stroke-width="1" fill="none" fill-rule="evenodd">
        <path d="M98,53.5 C100.623353,53.5 102.998353,54.5633237 104.717514,56.2824856 C106.436676,58.0016474 107.5,60.3766474 107.5,63 L107.5,66 C107.5,68.6233526 106.436676,70.9983526 104.717514,72.7175144 C102.998353,74.4366763 100.623353,75.5 98,75.5 L42,75.5 C40.0685592,75.5 38.2720641,74.922953 36.7723835,73.9332703 C35.7054958,73.2292002 34.7893567,72.3154053 34.0821988,71.2508027 L13.25,71.25 C11.386039,71.25 9.69853897,70.4944805 8.47702923,69.2729708 C7.25551948,68.051461 6.5,66.363961 6.5,64.5 C6.5,62.636039 7.25551948,60.948539 8.47702923,59.7270292 C9.69853897,58.5055195 11.386039,57.75 13.2500162,57.75 L34.081576,57.7501353 C34.7886819,56.6853374 35.7048279,55.77136 36.7717644,55.0671383 C38.2715695,54.0772055 40.0682934,53.5 42,53.5 Z" id="Combined-Shape" stroke="#48463F" stroke-width="5" fill="#FFFFFF"></path>
        <path d="M98,104.5 C100.623353,104.5 102.998353,105.563324 104.717514,107.282486 C106.436676,109.001647 107.5,111.376647 107.5,114 L107.5,117 C107.5,119.623353 106.436676,121.998353 104.717514,123.717514 C102.998353,125.436676 100.623353,126.5 98,126.5 L42,126.5 C40.0685592,126.5 38.2720641,125.922953 36.7723835,124.93327 C35.7054958,124.2292 34.7893567,123.315405 34.0821988,122.250803 L13.25,122.25 C11.386039,122.25 9.69853897,121.494481 8.47702923,120.272971 C7.25551948,119.051461 6.5,117.363961 6.5,115.5 C6.5,113.636039 7.25551948,111.948539 8.47702923,110.727029 C9.69853897,109.505519 11.386039,108.75 13.2500162,108.75 L34.081576,108.750135 C34.7886819,107.685337 35.7048279,106.77136 36.7717644,106.067138 C38.2715695,105.077206 40.0682934,104.5 42,104.5 Z" id="Combined-Shape" stroke="#48463F" stroke-width="5" fill="#FFFFFF"></path>
        <path d="M98,155.5 C100.623353,155.5 102.998353,156.563324 104.717514,158.282486 C106.436676,160.001647 107.5,162.376647 107.5,165 L107.5,168 C107.5,170.623353 106.436676,172.998353 104.717514,174.717514 C102.998353,176.436676 100.623353,177.5 98,177.5 L42,177.5 C40.0685592,177.5 38.2720641,176.922953 36.7723835,175.93327 C35.7054958,175.2292 34.7893567,174.315405 34.0821988,173.250803 L13.25,173.25 C11.386039,173.25 9.69853897,172.494481 8.47702923,171.272971 C7.25551948,170.051461 6.5,168.363961 6.5,166.5 C6.5,164.636039 7.25551948,162.948539 8.47702923,161.727029 C9.69853897,160.505519 11.386039,159.75 13.2500162,159.75 L34.081576,159.750135 C34.7886819,158.685337 35.7048279,157.77136 36.7717644,157.067138 C38.2715695,156.077206 40.0682934,155.5 42,155.5 Z" id="Combined-Shape" stroke="#48463F" stroke-width="5" fill="#FFFFFF"></path>
        <path d="M98,206.5 C100.623353,206.5 102.998353,207.563324 104.717514,209.282486 C106.436676,211.001647 107.5,213.376647 107.5,216 L107.5,219 C107.5,221.623353 106.436676,223.998353 104.717514,225.717514 C102.998353,227.436676 100.623353,228.5 98,228.5 L42,228.5 C40.0685592,228.5 38.2720641,227.922953 36.7723835,226.93327 C35.7054958,226.2292 34.7893567,225.315405 34.0821988,224.250803 L13.25,224.25 C11.386039,224.25 9.69853897,223.494481 8.47702923,222.272971 C7.25551948,221.051461 6.5,219.363961 6.5,217.5 C6.5,215.636039 7.25551948,213.948539 8.47702923,212.727029 C9.69853897,211.505519 11.386039,210.75 13.2500162,210.75 L34.081576,210.750135 C34.7886819,209.685337 35.7048279,208.77136 36.7717644,208.067138 C38.2715695,207.077206 40.0682934,206.5 42,206.5 Z" id="Combined-Shape" stroke="#48463F" stroke-width="5" fill="#FFFFFF"></path>
        <path d="M298,56.5 C300.623353,56.5 302.998353,57.5633237 304.717514,59.2824856 C306.436676,61.0016474 307.5,63.3766474 307.5,66 L307.5,69 C307.5,71.6233526 306.436676,73.9983526 304.717514,75.7175144 C302.998353,77.4366763 300.623353,78.5 298,78.5 L242,78.5 C240.068559,78.5 238.272064,77.922953 236.772383,76.9332703 C235.705496,76.2292002 234.789357,75.3154053 234.082199,74.2508027 L213.25,74.25 C211.386039,74.25 209.698539,73.4944805 208.477029,72.2729708 C207.255519,71.051461 206.5,69.363961 206.5,67.5 C206.5,65.636039 207.255519,63.948539 208.477029,62.7270292 C209.698539,61.5055195 211.386039,60.75 213.250016,60.75 L234.081576,60.7501353 C234.788682,59.6853374 235.704828,58.77136 236.771764,58.0671383 C238.27157,57.0772055 240.068293,56.5 242,56.5 Z" id="Combined-Shape" stroke="#48463F" stroke-width="5" fill="#FFFFFF" transform="translate(257.000000, 67.500000) scale(-1, 1) translate(-257.000000, -67.500000) "></path>
        <path d="M298,107.5 C300.623353,107.5 302.998353,108.563324 304.717514,110.282486 C306.436676,112.001647 307.5,114.376647 307.5,117 L307.5,120 C307.5,122.623353 306.436676,124.998353 304.717514,126.717514 C302.998353,128.436676 300.623353,129.5 298,129.5 L242,129.5 C240.068559,129.5 238.272064,128.922953 236.772383,127.93327 C235.705496,127.2292 234.789357,126.315405 234.082199,125.250803 L213.25,125.25 C211.386039,125.25 209.698539,124.494481 208.477029,123.272971 C207.255519,122.051461 206.5,120.363961 206.5,118.5 C206.5,116.636039 207.255519,114.948539 208.477029,113.727029 C209.698539,112.505519 211.386039,111.75 213.250016,111.75 L234.081576,111.750135 C234.788682,110.685337 235.704828,109.77136 236.771764,109.067138 C238.27157,108.077206 240.068293,107.5 242,107.5 L298,107.5 Z" id="Combined-Shape" stroke="#48463F" stroke-width="5" fill="#FFFFFF" transform="translate(257.000000, 118.500000) scale(-1, 1) translate(-257.000000, -118.500000) "></path>
        <path d="M298,158.5 C300.623353,158.5 302.998353,159.563324 304.717514,161.282486 C306.436676,163.001647 307.5,165.376647 307.5,168 L307.5,171 C307.5,173.623353 306.436676,175.998353 304.717514,177.717514 C302.998353,179.436676 300.623353,180.5 298,180.5 L242,180.5 C240.068559,180.5 238.272064,179.922953 236.772383,178.93327 C235.705496,178.2292 234.789357,177.315405 234.082199,176.250803 L213.25,176.25 C211.386039,176.25 209.698539,175.494481 208.477029,174.272971 C207.255519,173.051461 206.5,171.363961 206.5,169.5 C206.5,167.636039 207.255519,165.948539 208.477029,164.727029 C209.698539,163.505519 211.386039,162.75 213.250016,162.75 L234.081576,162.750135 C234.788682,161.685337 235.704828,160.77136 236.771764,160.067138 C238.27157,159.077206 240.068293,158.5 242,158.5 Z" id="Combined-Shape" stroke="#48463F" stroke-width="5" fill="#FFFFFF" transform="translate(257.000000, 169.500000) scale(-1, 1) translate(-257.000000, -169.500000) "></path>
        <path d="M301,206.5 C303.623353,206.5 305.998353,207.563324 307.717514,209.282486 C309.436676,211.001647 310.5,213.376647 310.5,216 L310.5,219 C310.5,221.623353 309.436676,223.998353 307.717514,225.717514 C305.998353,227.436676 303.623353,228.5 301,228.5 L245,228.5 C243.068559,228.5 241.272064,227.922953 239.772383,226.93327 C238.705496,226.2292 237.789357,225.315405 237.082199,224.250803 L216.25,224.25 C214.386039,224.25 212.698539,223.494481 211.477029,222.272971 C210.255519,221.051461 209.5,219.363961 209.5,217.5 C209.5,215.636039 210.255519,213.948539 211.477029,212.727029 C212.698539,211.505519 214.386039,210.75 216.250016,210.75 L237.081576,210.750135 C237.788682,209.685337 238.704828,208.77136 239.771764,208.067138 C241.27157,207.077206 243.068293,206.5 245,206.5 Z" id="Combined-Shape" stroke="#48463F" stroke-width="5" fill="#FFFFFF" transform="translate(260.000000, 217.500000) scale(-1, 1) translate(-260.000000, -217.500000) "></path>
        <g id="Group" transform="translate(52.000000, 3.000000)" stroke="#48463F" stroke-width="8">
            <path d="M174,4 C182.284271,4 189.784271,7.35786438 195.213203,12.7867966 C200.642136,18.2157288 204,25.7157288 204,34 L204,244 C204,252.284271 200.642136,259.784271 195.213203,265.213203 C189.784271,270.642136 182.284271,274 174,274 L34,274 C25.7157288,274 18.2157288,270.642136 12.7867966,265.213203 C7.35786438,259.784271 4,252.284271 4,244 L4,34 C4,25.7157288 7.35786438,18.2157288 12.7867966,12.7867966 C18.2157288,7.35786438 25.7157288,4 34,4 Z" id="Rectangle" fill="#FFFFFF"></path>
            <circle id="Oval" cx="38.5" cy="35.5" r="8.5"></circle>
            <circle id="Oval" cx="174.5" cy="35.5" r="8.5"></circle>
            <circle id="Oval" cx="174.5" cy="244.5" r="8.5"></circle>
            <circle id="Oval" cx="38.5" cy="244.5" r="8.5"></circle>
        </g>
        <text id="?" font-family="Helvetica" font-size="170" font-weight="normal" fill="#48463F" fill-opacity="0.363590267">
            <tspan x="108" y="190">?</tspan>
        </text>
    </g>
</svg>