<?xml version="1.0" encoding="UTF-8"?>
<svg width="55px" height="55px" viewBox="0 0 55 55" version="1.1" xmlns="http://www.w3.org/2000/svg" xmlns:xlink="http://www.w3.org/1999/xlink">
    <title>status_index_false</title>
    <g id="status_index_false" stroke="none" stroke-width="1" fill="none" fill-rule="evenodd">
        <polygon id="Rectangle-path" fill="#4A4A4A" fill-rule="nonzero" points="21 8 25 8 25 11 21 11"></polygon>
        <polygon id="Rectangle-path" fill="#4A4A4A" fill-rule="nonzero" points="27 8 31 8 31 11 27 11"></polygon>
        <path d="M33.0196399,4.0325781 L33.5432676,20.5633682 L35.8869609,20.5633682 L36.4271803,29.9543919 C39.3059706,29.0411827 42.2539248,29.4488754 44.6650026,30.8287828 C46.768676,32.0327566 48.4634147,33.976223 49.3512883,36.4278248 C50.2409708,38.8844211 50.1895315,41.4882231 49.3557107,43.7992715 C48.5235803,46.1056351 46.9117632,48.1210086 44.676122,49.4041748 C42.4467005,50.6837711 39.9261221,51.0454521 37.5639049,50.5772369 C35.0537658,50.079702 32.7234244,48.6455029 31.1091974,46.3844839 L16.5056169,46.3844839 L16.0160781,20.9242555 L18.8436554,20.3929742 L18.8436554,4.50175326 L33.0196399,4.0325781 Z" id="Path" stroke="#4A4A4A" stroke-width="2" fill-rule="nonzero"></path>
        <line x1="25.5" y1="46.5" x2="25.5" y2="52.5" id="Line" stroke="#4A4A4A" stroke-width="2" stroke-linecap="square"></line>
        <path d="M49.9528275,40.139346 C49.9499299,45.9836265 45.2963811,50.7195117 39.5575714,50.7185283 C33.8187617,50.7175445 29.1667786,45.9800643 29.1658125,40.1357831 C29.1648468,34.2915019 33.8152637,29.5524273 39.5540728,29.5494764 C45.2947489,29.5553667 49.9470435,34.2931641 49.9528275,40.139346 L49.9528275,40.139346 Z" id="Path" stroke="#4A4A4A" stroke-width="2" stroke-linecap="round" fill-rule="nonzero"></path>
        <line x1="20" y1="21" x2="33" y2="21" id="Line-8" stroke="#4A4A4A" stroke-linecap="square"></line>
        <line x1="34.5" y1="35.5" x2="44.5" y2="45.5" id="Line-2" stroke="#4A4A4A" stroke-width="2" stroke-linecap="round"></line>
        <line x1="44.5" y1="35.5" x2="34.5" y2="45.5" id="Line-2" stroke="#4A4A4A" stroke-width="2" stroke-linecap="round"></line>
    </g>
</svg>