<?xml version="1.0" encoding="UTF-8"?>
<svg width="55px" height="55px" viewBox="0 0 55 55" version="1.1" xmlns="http://www.w3.org/2000/svg" xmlns:xlink="http://www.w3.org/1999/xlink">
    <title>status_index</title>
    <g id="status_index" stroke="none" stroke-width="1" fill="none" fill-rule="evenodd">
        <polygon id="Rectangle-path" fill="#4A4A4A" fill-rule="nonzero" points="22 8 26 8 26 11 22 11"></polygon>
        <polygon id="Rectangle-path" fill="#4A4A4A" fill-rule="nonzero" points="28 8 32 8 32 11 28 11"></polygon>
        <path d="M34.0196399,4.0325781 L34.5432676,20.5633682 L36.8516222,20.5633682 L37.3557124,44.8588015 C37.3534097,45.1315242 37.2419351,45.3782088 37.0628555,45.5572884 C36.8818911,45.7382529 36.6318911,45.8501817 36.3557487,45.8501817 L18,45.8501817 C17.7238576,45.8501817 17.4738576,45.7382529 17.2928932,45.5572884 C17.1119288,45.376324 17,45.126324 17,44.8501817 L17,20.9272764 L19.8436554,20.3929742 L19.8436554,4.50175326 L34.0196399,4.0325781 Z" id="Path" stroke="#4A4A4A" stroke-width="2" fill-rule="nonzero"></path>
        <line x1="26.5" y1="46.5" x2="26.5" y2="52.5" id="Line" stroke="#4A4A4A" stroke-width="2" stroke-linecap="square"></line>
        <line x1="21" y1="21" x2="34" y2="21" id="Line-8" stroke="#4A4A4A" stroke-linecap="square"></line>
    </g>
</svg>