<?xml version="1.0" encoding="UTF-8"?>
<svg width="55px" height="55px" viewBox="0 0 55 55" version="1.1" xmlns="http://www.w3.org/2000/svg" xmlns:xlink="http://www.w3.org/1999/xlink">
    <!-- Generator: Sketch 64 (93537) - https://sketch.com -->
    <title>toolbar_add_brain</title>
    <desc>Created with Sketch.</desc>
    <g id="toolbar_add_brain" stroke="none" stroke-width="1" fill="none" fill-rule="evenodd">
        <text id="+" font-family="72-Regular, 72" font-size="32" font-weight="normal" fill="#4A4A4A">
            <tspan x="32" y="50">+</tspan>
        </text>
        <path d="M24.3662109,3 L38.6666667,3 C40.5076158,3 42,4.63513396 42,6.65217391 L42,41.3478261 C42,43.364866 40.5076158,45 38.6666667,45 L15.3333333,45 C13.4923842,45 12,43.364866 12,41.3478261 L12,24" id="Rectangle-7" stroke="#4A4A4A" stroke-width="2" stroke-linecap="round" transform="translate(27.000000, 24.000000) scale(1, -1) rotate(90.000000) translate(-27.000000, -24.000000) "></path>
        <path d="M18,15 L21.7020013,15 C28.5673338,15.0638021 32,17.8971354 32,23.5 C32,29.1028646 28.5673338,31.9361979 21.7020013,32 L18,32 L18,15 Z" id="Rectangle" stroke="#4A4A4A"></path>
        <circle id="Oval" stroke="#4A4A4A" cx="34" cy="23.5" r="2"></circle>
        <line x1="13" y1="19" x2="18" y2="19" id="Line" stroke="#4A4A4A" stroke-linecap="square"></line>
        <line x1="13" y1="29" x2="18" y2="29" id="Line" stroke="#4A4A4A" stroke-linecap="square"></line>
        <line x1="36" y1="23.5" x2="41" y2="23.5" id="Line" stroke="#4A4A4A" stroke-linecap="square"></line>
    </g>
</svg>