<?xml version="1.0" encoding="UTF-8"?>
<svg width="55px" height="55px" viewBox="0 0 55 55" version="1.1" xmlns="http://www.w3.org/2000/svg" xmlns:xlink="http://www.w3.org/1999/xlink">
    <title>toolbar_language</title>
    <g id="toolbar_language" stroke="none" stroke-width="1" fill="none" fill-rule="evenodd">
        <path d="M48.8748762,8 L6.12489896,8 C5.50299527,8 5,8.47944803 5,9.070493 L5,40.1702752 C5,40.7613393 5.50301536,41.2407401 6.12489896,41.2407401 L21.724221,41.2407401 L26.5495644,48.5019122 C26.7551681,48.8118203 27.1141836,49 27.4998776,49 L27.5022318,49 C27.8879258,49 28.2469513,48.8103196 28.4525449,48.4985476 L33.2426317,41.2403386 L48.875101,41.240712 C49.4970047,41.240712 50,40.7612921 50,40.1702471 L50,9.0704649 C50,8.47940081 49.4965929,8 48.875101,8 L48.8748762,8 Z" id="Shape" stroke="#FFFFFF" stroke-width="2" fill-rule="nonzero"></path>
        <circle id="Oval" stroke="#FFFFFF" stroke-width="2" cx="27.5" cy="24.5" r="12.5"></circle>
        <ellipse id="Oval" stroke="#FFFFFF" stroke-width="2" cx="27.5" cy="24.5" rx="6.5" ry="12.5"></ellipse>
        <line x1="16" y1="21" x2="38" y2="21" id="Line-7" stroke="#FFFFFF" stroke-width="2" stroke-linecap="round"></line>
        <line x1="17" y1="29" x2="39" y2="29" id="Line-7" stroke="#FFFFFF" stroke-width="2" stroke-linecap="round"></line>
    </g>
</svg>