<?xml version="1.0" encoding="UTF-8"?>
<svg width="55px" height="55px" viewBox="0 0 55 55" version="1.1" xmlns="http://www.w3.org/2000/svg" xmlns:xlink="http://www.w3.org/1999/xlink">
    <!-- Generator: Sketch 64 (93537) - https://sketch.com -->
    <title>toolbar_add_text</title>
    <desc>Created with Sketch.</desc>
    <g id="toolbar_add_text" stroke="none" stroke-width="1" fill="none" fill-rule="evenodd">
        <text id="+" font-family="72-Regular, 72" font-size="32" font-weight="normal" fill="#4A4A4A">
            <tspan x="31" y="49.5">+</tspan>
        </text>
        <path d="M24.3662109,3 L38.6666667,3 C40.5076158,3 42,4.63513396 42,6.65217391 L42,41.3478261 C42,43.364866 40.5076158,45 38.6666667,45 L15.3333333,45 C13.4923842,45 12,43.364866 12,41.3478261 L12,24" id="Rectangle-7" stroke="#4A4A4A" stroke-width="2" stroke-linecap="round" transform="translate(27.000000, 24.000000) scale(1, -1) rotate(90.000000) translate(-27.000000, -24.000000) "></path>
        <path d="M14.40625,29 L15.2792969,26.4570312 L18.8066406,26.4570312 L19.6855469,29 L20.7753906,29 L17.6347656,20.0820312 L16.5273438,20.0820312 L13.3867188,29 L14.40625,29 Z M18.484375,25.53125 L15.6015625,25.53125 L17.0429688,21.3652344 L17.0664062,21.3652344 L18.484375,25.53125 Z M25.0878906,29.09375 C25.4707031,29.09375 25.8261719,29.0263672 26.1542969,28.8916016 C26.4824219,28.7568359 26.7666016,28.5556641 27.0068359,28.2880859 C27.2470703,28.0205078 27.4345703,27.6806641 27.5693359,27.2685547 C27.7041016,26.8564453 27.7714844,26.3730469 27.7714844,25.8183594 C27.7714844,25.2675781 27.7060547,24.7861328 27.5751953,24.3740234 C27.4443359,23.9619141 27.2626953,23.6201172 27.0302734,23.3486328 C26.7978516,23.0771484 26.5234375,22.8730469 26.2070312,22.7363281 C25.890625,22.5996094 25.5527344,22.53125 25.1933594,22.53125 C24.7207031,22.53125 24.3144531,22.6337891 23.9746094,22.8388672 C23.6347656,23.0439453 23.3457031,23.28125 23.1074219,23.5507812 L23.1074219,23.5507812 L23.1074219,20.1171875 L22.0761719,20.1171875 L22.0761719,29 L23.1074219,29 L23.1074219,28.1855469 C23.3769531,28.4628906 23.6757812,28.6835938 24.0039062,28.8476562 C24.3320312,29.0117188 24.6933594,29.09375 25.0878906,29.09375 Z M24.9414062,28.2558594 C24.2851562,28.2558594 23.6738281,27.9355469 23.1074219,27.2949219 L23.1074219,27.2949219 L23.1074219,24.3945312 C23.3691406,24.1054688 23.6503906,23.8710938 23.9511719,23.6914062 C24.2519531,23.5117188 24.5859375,23.421875 24.953125,23.421875 C25.4648438,23.421875 25.890625,23.6210938 26.2304688,24.0195312 C26.5703125,24.4179688 26.7402344,25.0214844 26.7402344,25.8300781 C26.7402344,26.6699219 26.578125,27.2841797 26.2539062,27.6728516 C25.9296875,28.0615234 25.4921875,28.2558594 24.9414062,28.2558594 Z M31.7207031,29.1347656 C32.0683594,29.1347656 32.3740234,29.0898438 32.6376953,29 C32.9013672,28.9101562 33.1367188,28.7861328 33.34375,28.6279297 C33.5507812,28.4697266 33.734375,28.2802734 33.8945312,28.0595703 C34.0546875,27.8388672 34.1953125,27.5957031 34.3164062,27.3300781 L34.3164062,27.3300781 L33.4609375,26.9960938 C33.2539062,27.4609375 33.0205078,27.7890625 32.7607422,27.9804688 C32.5009766,28.171875 32.1679688,28.2675781 31.7617188,28.2675781 C31.2226562,28.2675781 30.7851562,28.0576172 30.4492188,27.6376953 C30.1132812,27.2177734 29.9453125,26.6152344 29.9453125,25.8300781 C29.9453125,25.3847656 29.9980469,25.0078125 30.1035156,24.6992188 C30.2089844,24.390625 30.3496094,24.140625 30.5253906,23.9492188 C30.7011719,23.7578125 30.8964844,23.6201172 31.1113281,23.5361328 C31.3261719,23.4521484 31.5507812,23.4101562 31.7851562,23.4101562 C32.1992188,23.4101562 32.5341797,23.5175781 32.7900391,23.7324219 C33.0458984,23.9472656 33.2539062,24.2597656 33.4140625,24.6699219 L33.4140625,24.6699219 L34.2929688,24.3066406 C34.1953125,24.0761719 34.0791016,23.8525391 33.9443359,23.6357422 C33.8095703,23.4189453 33.6416016,23.2285156 33.4404297,23.0644531 C33.2392578,22.9003906 33.0068359,22.7705078 32.7431641,22.6748047 C32.4794922,22.5791016 32.1679688,22.53125 31.8085938,22.53125 C31.4570312,22.53125 31.1074219,22.5957031 30.7597656,22.7246094 C30.4121094,22.8535156 30.0996094,23.0517578 29.8222656,23.3193359 C29.5449219,23.5869141 29.3222656,23.9287109 29.1542969,24.3447266 C28.9863281,24.7607422 28.9023438,25.2558594 28.9023438,25.8300781 C28.9023438,26.3769531 28.9804688,26.8564453 29.1367188,27.2685547 C29.2929688,27.6806641 29.5009766,28.0244141 29.7607422,28.2998047 C30.0205078,28.5751953 30.3203125,28.7832031 30.6601562,28.9238281 C31,29.0644531 31.3535156,29.1347656 31.7207031,29.1347656 Z" id="Abc" fill="#4A4A4A" fill-rule="nonzero"></path>
    </g>
</svg>