<?xml version="1.0" encoding="UTF-8"?>
<svg width="55px" height="55px" viewBox="0 0 55 55" version="1.1" xmlns="http://www.w3.org/2000/svg" xmlns:xlink="http://www.w3.org/1999/xlink">
    <title>toolbar_new_simulator</title>
    <g id="toolbar_new_simulator" stroke="none" stroke-width="1" fill="none" fill-rule="evenodd">
        <path d="M27.5,45.8251953 L14.8789062,45.8251953 C13.222052,45.8251953 11.8789062,44.4820496 11.8789062,42.8251953 L11.8789062,10.8251953 C11.8789062,9.16834106 13.222052,7.82519531 14.8789062,7.82519531 L38.8789062,7.82519531 C40.5357605,7.82519531 41.8789062,9.16834106 41.8789062,10.8251953 L41.8789062,31.5" id="Path" stroke="#4A4A4A" stroke-width="2"></path>
        <circle id="Oval" stroke="#424242" cx="39" cy="43" r="9"></circle>
        <rect id="Rectangle" stroke="#4A4A4A" x="31" y="26.5" width="6" height="6"></rect>
        <rect id="Rectangle" stroke="#4A4A4A" x="15" y="14.5" width="6" height="6"></rect>
        <polyline id="Line" stroke="#4A4A4A" stroke-linecap="square" points="16 40.5 23.3291016 40.5 23.3291016 31.5 30.6582031 31.5"></polyline>
        <polyline id="Line" stroke="#4A4A4A" stroke-linecap="square" transform="translate(26.158203, 22.500000) scale(1, -1) translate(-26.158203, -22.500000) " points="21.6582031 27.5 26.1582031 27.5 26.1582031 17.5 30.6582031 17.5"></polyline>
        <line x1="45" y1="43" x2="33" y2="43" id="Line-2" stroke="#4A4A4A" stroke-linecap="round"></line>
        <line x1="39.25" y1="49" x2="39.25" y2="38" id="Line-2" stroke="#4A4A4A" stroke-linecap="round"></line>
    </g>
</svg>